<svg xmlns="http://www.w3.org/2000/svg" xmlns:xlink="http://www.w3.org/1999/xlink" width="945" zoomAndPan="magnify" viewBox="0 0 708 574.08" height="756" preserveAspectRatio="xMidYMid meet" version="1.2"><defs><clipPath id="5f86f94eb4"><path d="M 78.253906 191 L 191 191 L 191 323 L 78.253906 323 Z M 78.253906 191 "/></clipPath><clipPath id="cdff5c6a1b"><path d="M 78.253906 425 L 322 425 L 322 556 L 78.253906 556 Z M 78.253906 425 "/></clipPath><clipPath id="a33325075a"><path d="M 433 4.890625 L 629.609375 4.890625 L 629.609375 565.222656 L 433 565.222656 Z M 433 4.890625 "/></clipPath></defs><g id="e5ae9a3cf7"><path style=" stroke:none;fill-rule:nonzero;fill:#9fbef4;fill-opacity:1;" d="M 433.25 144.972656 L 470.605469 144.972656 C 491.234375 144.972656 507.960938 128.246094 507.960938 107.617188 C 507.960938 86.988281 491.234375 70.261719 470.605469 70.261719 L 460.210938 71.128906 C 456.363281 54.589844 441.617188 42.246094 423.910156 42.246094 C 419.519531 42.246094 415.363281 43.140625 411.453125 44.53125 C 404.800781 26.863281 387.871094 14.226562 367.875 14.226562 C 344.867188 14.226562 325.851562 30.90625 321.996094 52.824219 C 318.71875 52.089844 315.34375 51.582031 311.84375 51.582031 C 289.253906 51.582031 270.40625 67.628906 266.082031 88.9375 L 433.25 88.9375 Z M 433.25 144.972656 "/><g clip-rule="nonzero" clip-path="url(#5f86f94eb4)"><path style=" stroke:none;fill-rule:nonzero;fill:#9fbef4;fill-opacity:1;" d="M 190.4375 219.683594 L 190.4375 192.609375 C 187.421875 191.992188 184.300781 191.667969 181.097656 191.667969 C 158.089844 191.667969 139.074219 208.347656 135.21875 230.265625 C 131.941406 229.527344 128.566406 229.023438 125.066406 229.023438 C 99.28125 229.023438 78.371094 249.933594 78.371094 275.714844 C 78.371094 301.5 99.28125 322.410156 125.066406 322.410156 L 190.4375 322.410156 Z M 190.4375 219.683594 "/></g><path style=" stroke:none;fill-rule:nonzero;fill:#3f588e;fill-opacity:1;" d="M 582.671875 285.054688 C 582.671875 285.972656 582.625 286.886719 582.535156 287.800781 C 582.445312 288.714844 582.3125 289.621094 582.132812 290.519531 C 581.953125 291.421875 581.730469 292.308594 581.464844 293.1875 C 581.199219 294.066406 580.890625 294.929688 580.539062 295.777344 C 580.1875 296.625 579.792969 297.453125 579.363281 298.261719 C 578.929688 299.070312 578.457031 299.859375 577.949219 300.621094 C 577.4375 301.382812 576.894531 302.121094 576.3125 302.828125 C 575.730469 303.539062 575.113281 304.21875 574.464844 304.867188 C 573.816406 305.515625 573.136719 306.128906 572.425781 306.710938 C 571.71875 307.292969 570.980469 307.839844 570.21875 308.351562 C 569.457031 308.859375 568.671875 309.332031 567.859375 309.761719 C 567.050781 310.195312 566.222656 310.589844 565.375 310.9375 C 564.527344 311.289062 563.664062 311.597656 562.785156 311.867188 C 561.910156 312.132812 561.019531 312.355469 560.121094 312.535156 C 559.21875 312.710938 558.3125 312.847656 557.398438 312.9375 C 556.488281 313.027344 555.570312 313.070312 554.652344 313.070312 C 553.738281 313.070312 552.820312 313.027344 551.90625 312.9375 C 550.996094 312.847656 550.089844 312.710938 549.1875 312.535156 C 548.289062 312.355469 547.398438 312.132812 546.519531 311.867188 C 545.644531 311.597656 544.78125 311.289062 543.933594 310.9375 C 543.085938 310.589844 542.257812 310.195312 541.445312 309.761719 C 540.636719 309.332031 539.851562 308.859375 539.089844 308.351562 C 538.324219 307.839844 537.589844 307.292969 536.878906 306.710938 C 536.171875 306.128906 535.492188 305.515625 534.84375 304.867188 C 534.195312 304.21875 533.578125 303.539062 532.996094 302.828125 C 532.414062 302.121094 531.867188 301.382812 531.359375 300.621094 C 530.847656 299.859375 530.378906 299.070312 529.945312 298.261719 C 529.511719 297.453125 529.121094 296.625 528.769531 295.777344 C 528.417969 294.929688 528.109375 294.066406 527.84375 293.1875 C 527.578125 292.308594 527.355469 291.421875 527.175781 290.519531 C 526.996094 289.621094 526.863281 288.714844 526.773438 287.800781 C 526.683594 286.886719 526.636719 285.972656 526.636719 285.054688 C 526.636719 284.136719 526.683594 283.222656 526.773438 282.308594 C 526.863281 281.394531 526.996094 280.488281 527.175781 279.589844 C 527.355469 278.691406 527.578125 277.800781 527.84375 276.921875 C 528.109375 276.042969 528.417969 275.179688 528.769531 274.332031 C 529.121094 273.484375 529.511719 272.65625 529.945312 271.847656 C 530.378906 271.039062 530.847656 270.253906 531.359375 269.488281 C 531.867188 268.726562 532.414062 267.992188 532.996094 267.28125 C 533.578125 266.574219 534.195312 265.894531 534.84375 265.246094 C 535.492188 264.59375 536.171875 263.980469 536.878906 263.398438 C 537.589844 262.816406 538.324219 262.269531 539.089844 261.761719 C 539.851562 261.25 540.636719 260.78125 541.445312 260.347656 C 542.257812 259.914062 543.085938 259.523438 543.933594 259.171875 C 544.78125 258.820312 545.644531 258.511719 546.519531 258.246094 C 547.398438 257.980469 548.289062 257.757812 549.1875 257.578125 C 550.089844 257.398438 550.996094 257.261719 551.90625 257.171875 C 552.820312 257.082031 553.738281 257.039062 554.652344 257.039062 C 555.570312 257.039062 556.488281 257.082031 557.398438 257.171875 C 558.3125 257.261719 559.21875 257.398438 560.121094 257.578125 C 561.019531 257.757812 561.910156 257.980469 562.785156 258.246094 C 563.664062 258.511719 564.527344 258.820312 565.375 259.171875 C 566.222656 259.523438 567.050781 259.914062 567.859375 260.347656 C 568.671875 260.78125 569.457031 261.25 570.21875 261.761719 C 570.980469 262.269531 571.71875 262.816406 572.425781 263.398438 C 573.136719 263.980469 573.816406 264.59375 574.464844 265.246094 C 575.113281 265.894531 575.730469 266.574219 576.3125 267.28125 C 576.894531 267.992188 577.4375 268.726562 577.949219 269.488281 C 578.457031 270.253906 578.929688 271.039062 579.363281 271.847656 C 579.792969 272.65625 580.1875 273.484375 580.539062 274.332031 C 580.890625 275.179688 581.199219 276.042969 581.464844 276.921875 C 581.730469 277.800781 581.953125 278.691406 582.132812 279.589844 C 582.3125 280.488281 582.445312 281.394531 582.535156 282.308594 C 582.625 283.222656 582.671875 284.136719 582.671875 285.054688 Z M 582.671875 285.054688 "/><path style=" stroke:none;fill-rule:nonzero;fill:#3f588e;fill-opacity:1;" d="M 582.671875 154.3125 C 582.671875 155.230469 582.625 156.144531 582.535156 157.058594 C 582.445312 157.96875 582.3125 158.875 582.132812 159.777344 C 581.953125 160.675781 581.730469 161.566406 581.464844 162.445312 C 581.199219 163.320312 580.890625 164.183594 580.539062 165.03125 C 580.1875 165.878906 579.792969 166.707031 579.363281 167.519531 C 578.929688 168.328125 578.457031 169.113281 577.949219 169.875 C 577.4375 170.640625 576.894531 171.375 576.3125 172.085938 C 575.730469 172.792969 575.113281 173.472656 574.464844 174.121094 C 573.816406 174.769531 573.136719 175.386719 572.425781 175.96875 C 571.71875 176.550781 570.980469 177.097656 570.21875 177.605469 C 569.457031 178.117188 568.671875 178.585938 567.859375 179.019531 C 567.050781 179.453125 566.222656 179.84375 565.375 180.195312 C 564.527344 180.546875 563.664062 180.855469 562.785156 181.121094 C 561.910156 181.386719 561.019531 181.609375 560.121094 181.789062 C 559.21875 181.96875 558.3125 182.101562 557.398438 182.191406 C 556.488281 182.28125 555.570312 182.328125 554.652344 182.328125 C 553.738281 182.328125 552.820312 182.28125 551.90625 182.191406 C 550.996094 182.101562 550.089844 181.96875 549.1875 181.789062 C 548.289062 181.609375 547.398438 181.386719 546.519531 181.121094 C 545.644531 180.855469 544.78125 180.546875 543.933594 180.195312 C 543.085938 179.84375 542.257812 179.453125 541.445312 179.019531 C 540.636719 178.585938 539.851562 178.117188 539.089844 177.605469 C 538.324219 177.097656 537.589844 176.550781 536.878906 175.96875 C 536.171875 175.386719 535.492188 174.769531 534.84375 174.121094 C 534.195312 173.472656 533.578125 172.792969 532.996094 172.085938 C 532.414062 171.375 531.867188 170.640625 531.359375 169.875 C 530.847656 169.113281 530.378906 168.328125 529.945312 167.519531 C 529.511719 166.707031 529.121094 165.878906 528.769531 165.03125 C 528.417969 164.183594 528.109375 163.320312 527.84375 162.445312 C 527.578125 161.566406 527.355469 160.675781 527.175781 159.777344 C 526.996094 158.875 526.863281 157.96875 526.773438 157.058594 C 526.683594 156.144531 526.636719 155.230469 526.636719 154.3125 C 526.636719 153.394531 526.683594 152.476562 526.773438 151.566406 C 526.863281 150.652344 526.996094 149.746094 527.175781 148.84375 C 527.355469 147.945312 527.578125 147.054688 527.84375 146.179688 C 528.109375 145.300781 528.417969 144.4375 528.769531 143.589844 C 529.121094 142.742188 529.511719 141.914062 529.945312 141.105469 C 530.378906 140.296875 530.847656 139.507812 531.359375 138.746094 C 531.867188 137.984375 532.414062 137.246094 532.996094 136.539062 C 533.578125 135.828125 534.195312 135.148438 534.84375 134.5 C 535.492188 133.851562 536.171875 133.234375 536.878906 132.652344 C 537.589844 132.070312 538.324219 131.527344 539.089844 131.015625 C 539.851562 130.507812 540.636719 130.035156 541.445312 129.601562 C 542.257812 129.171875 543.085938 128.777344 543.933594 128.425781 C 544.78125 128.074219 545.644531 127.765625 546.519531 127.5 C 547.398438 127.234375 548.289062 127.011719 549.1875 126.832031 C 550.089844 126.652344 550.996094 126.519531 551.90625 126.429688 C 552.820312 126.339844 553.738281 126.292969 554.652344 126.292969 C 555.570312 126.292969 556.488281 126.339844 557.398438 126.429688 C 558.3125 126.519531 559.21875 126.652344 560.121094 126.832031 C 561.019531 127.011719 561.910156 127.234375 562.785156 127.5 C 563.664062 127.765625 564.527344 128.074219 565.375 128.425781 C 566.222656 128.777344 567.050781 129.171875 567.859375 129.601562 C 568.671875 130.035156 569.457031 130.507812 570.21875 131.015625 C 570.980469 131.527344 571.71875 132.070312 572.425781 132.652344 C 573.136719 133.234375 573.816406 133.851562 574.464844 134.5 C 575.113281 135.148438 575.730469 135.828125 576.3125 136.539062 C 576.894531 137.246094 577.4375 137.984375 577.949219 138.746094 C 578.457031 139.507812 578.929688 140.296875 579.363281 141.105469 C 579.792969 141.914062 580.1875 142.742188 580.539062 143.589844 C 580.890625 144.4375 581.199219 145.300781 581.464844 146.179688 C 581.730469 147.054688 581.953125 147.945312 582.132812 148.84375 C 582.3125 149.746094 582.445312 150.652344 582.535156 151.566406 C 582.625 152.476562 582.671875 153.394531 582.671875 154.3125 Z M 582.671875 154.3125 "/><path style=" stroke:none;fill-rule:nonzero;fill:#3f588e;fill-opacity:1;" d="M 582.671875 42.246094 C 582.671875 43.164062 582.625 44.078125 582.535156 44.992188 C 582.445312 45.902344 582.3125 46.8125 582.132812 47.710938 C 581.953125 48.609375 581.730469 49.5 581.464844 50.378906 C 581.199219 51.253906 580.890625 52.117188 580.539062 52.964844 C 580.1875 53.8125 579.792969 54.640625 579.363281 55.453125 C 578.929688 56.261719 578.457031 57.046875 577.949219 57.808594 C 577.4375 58.574219 576.894531 59.308594 576.3125 60.019531 C 575.730469 60.726562 575.113281 61.40625 574.464844 62.054688 C 573.816406 62.703125 573.136719 63.320312 572.425781 63.902344 C 571.71875 64.484375 570.980469 65.03125 570.21875 65.539062 C 569.457031 66.050781 568.671875 66.519531 567.859375 66.953125 C 567.050781 67.386719 566.222656 67.777344 565.375 68.128906 C 564.527344 68.480469 563.664062 68.789062 562.785156 69.054688 C 561.910156 69.320312 561.019531 69.542969 560.121094 69.722656 C 559.21875 69.902344 558.3125 70.035156 557.398438 70.125 C 556.488281 70.214844 555.570312 70.261719 554.652344 70.261719 C 553.738281 70.261719 552.820312 70.214844 551.90625 70.125 C 550.996094 70.035156 550.089844 69.902344 549.1875 69.722656 C 548.289062 69.542969 547.398438 69.320312 546.519531 69.054688 C 545.644531 68.789062 544.78125 68.480469 543.933594 68.128906 C 543.085938 67.777344 542.257812 67.386719 541.445312 66.953125 C 540.636719 66.519531 539.851562 66.050781 539.089844 65.539062 C 538.324219 65.03125 537.589844 64.484375 536.878906 63.902344 C 536.171875 63.320312 535.492188 62.703125 534.84375 62.054688 C 534.195312 61.40625 533.578125 60.726562 532.996094 60.019531 C 532.414062 59.308594 531.867188 58.574219 531.359375 57.808594 C 530.847656 57.046875 530.378906 56.261719 529.945312 55.453125 C 529.511719 54.640625 529.121094 53.8125 528.769531 52.964844 C 528.417969 52.117188 528.109375 51.253906 527.84375 50.378906 C 527.578125 49.5 527.355469 48.609375 527.175781 47.710938 C 526.996094 46.8125 526.863281 45.902344 526.773438 44.992188 C 526.683594 44.078125 526.636719 43.164062 526.636719 42.246094 C 526.636719 41.328125 526.683594 40.410156 526.773438 39.5 C 526.863281 38.585938 526.996094 37.679688 527.175781 36.777344 C 527.355469 35.878906 527.578125 34.988281 527.84375 34.113281 C 528.109375 33.234375 528.417969 32.371094 528.769531 31.523438 C 529.121094 30.675781 529.511719 29.847656 529.945312 29.039062 C 530.378906 28.230469 530.847656 27.441406 531.359375 26.679688 C 531.867188 25.917969 532.414062 25.179688 532.996094 24.472656 C 533.578125 23.761719 534.195312 23.082031 534.84375 22.433594 C 535.492188 21.785156 536.171875 21.167969 536.878906 20.585938 C 537.589844 20.003906 538.324219 19.460938 539.089844 18.949219 C 539.851562 18.441406 540.636719 17.96875 541.445312 17.535156 C 542.257812 17.105469 543.085938 16.710938 543.933594 16.359375 C 544.78125 16.007812 545.644531 15.699219 546.519531 15.433594 C 547.398438 15.167969 548.289062 14.945312 549.1875 14.765625 C 550.089844 14.585938 550.996094 14.453125 551.90625 14.363281 C 552.820312 14.273438 553.738281 14.226562 554.652344 14.226562 C 555.570312 14.226562 556.488281 14.273438 557.398438 14.363281 C 558.3125 14.453125 559.21875 14.585938 560.121094 14.765625 C 561.019531 14.945312 561.910156 15.167969 562.785156 15.433594 C 563.664062 15.699219 564.527344 16.007812 565.375 16.359375 C 566.222656 16.710938 567.050781 17.105469 567.859375 17.535156 C 568.671875 17.96875 569.457031 18.441406 570.21875 18.949219 C 570.980469 19.460938 571.71875 20.003906 572.425781 20.585938 C 573.136719 21.167969 573.816406 21.785156 574.464844 22.433594 C 575.113281 23.082031 575.730469 23.761719 576.3125 24.472656 C 576.894531 25.179688 577.4375 25.917969 577.949219 26.679688 C 578.457031 27.441406 578.929688 28.230469 579.363281 29.039062 C 579.792969 29.847656 580.1875 30.675781 580.539062 31.523438 C 580.890625 32.371094 581.199219 33.234375 581.464844 34.113281 C 581.730469 34.988281 581.953125 35.878906 582.132812 36.777344 C 582.3125 37.679688 582.445312 38.585938 582.535156 39.5 C 582.625 40.410156 582.671875 41.328125 582.671875 42.246094 Z M 582.671875 42.246094 "/><path style=" stroke:none;fill-rule:nonzero;fill:#3f588e;fill-opacity:1;" d="M 582.671875 527.867188 C 582.671875 528.785156 582.625 529.699219 582.535156 530.613281 C 582.445312 531.523438 582.3125 532.429688 582.132812 533.332031 C 581.953125 534.230469 581.730469 535.121094 581.464844 536 C 581.199219 536.875 580.890625 537.738281 580.539062 538.585938 C 580.1875 539.433594 579.792969 540.261719 579.363281 541.074219 C 578.929688 541.882812 578.457031 542.667969 577.949219 543.429688 C 577.4375 544.195312 576.894531 544.929688 576.3125 545.640625 C 575.730469 546.347656 575.113281 547.027344 574.464844 547.675781 C 573.816406 548.324219 573.136719 548.941406 572.425781 549.523438 C 571.71875 550.105469 570.980469 550.652344 570.21875 551.160156 C 569.457031 551.671875 568.671875 552.140625 567.859375 552.574219 C 567.050781 553.007812 566.222656 553.398438 565.375 553.75 C 564.527344 554.101562 563.664062 554.410156 562.785156 554.675781 C 561.910156 554.941406 561.019531 555.164062 560.121094 555.34375 C 559.21875 555.523438 558.3125 555.65625 557.398438 555.746094 C 556.488281 555.835938 555.570312 555.882812 554.652344 555.882812 C 553.738281 555.882812 552.820312 555.835938 551.90625 555.746094 C 550.996094 555.65625 550.089844 555.523438 549.1875 555.34375 C 548.289062 555.164062 547.398438 554.941406 546.519531 554.675781 C 545.644531 554.410156 544.78125 554.101562 543.933594 553.75 C 543.085938 553.398438 542.257812 553.007812 541.445312 552.574219 C 540.636719 552.140625 539.851562 551.671875 539.089844 551.160156 C 538.324219 550.652344 537.589844 550.105469 536.878906 549.523438 C 536.171875 548.941406 535.492188 548.324219 534.84375 547.675781 C 534.195312 547.027344 533.578125 546.347656 532.996094 545.640625 C 532.414062 544.929688 531.867188 544.195312 531.359375 543.429688 C 530.847656 542.667969 530.378906 541.882812 529.945312 541.074219 C 529.511719 540.261719 529.121094 539.433594 528.769531 538.585938 C 528.417969 537.738281 528.109375 536.875 527.84375 536 C 527.578125 535.121094 527.355469 534.230469 527.175781 533.332031 C 526.996094 532.429688 526.863281 531.523438 526.773438 530.613281 C 526.683594 529.699219 526.636719 528.785156 526.636719 527.867188 C 526.636719 526.949219 526.683594 526.03125 526.773438 525.121094 C 526.863281 524.207031 526.996094 523.300781 527.175781 522.398438 C 527.355469 521.5 527.578125 520.609375 527.84375 519.734375 C 528.109375 518.855469 528.417969 517.992188 528.769531 517.144531 C 529.121094 516.296875 529.511719 515.46875 529.945312 514.660156 C 530.378906 513.847656 530.847656 513.0625 531.359375 512.300781 C 531.867188 511.539062 532.414062 510.800781 532.996094 510.09375 C 533.578125 509.382812 534.195312 508.703125 534.84375 508.054688 C 535.492188 507.40625 536.171875 506.789062 536.878906 506.207031 C 537.589844 505.625 538.324219 505.082031 539.089844 504.570312 C 539.851562 504.0625 540.636719 503.589844 541.445312 503.15625 C 542.257812 502.726562 543.085938 502.332031 543.933594 501.980469 C 544.78125 501.628906 545.644531 501.320312 546.519531 501.054688 C 547.398438 500.789062 548.289062 500.566406 549.1875 500.386719 C 550.089844 500.207031 550.996094 500.074219 551.90625 499.984375 C 552.820312 499.894531 553.738281 499.847656 554.652344 499.847656 C 555.570312 499.847656 556.488281 499.894531 557.398438 499.984375 C 558.3125 500.074219 559.21875 500.207031 560.121094 500.386719 C 561.019531 500.566406 561.910156 500.789062 562.785156 501.054688 C 563.664062 501.320312 564.527344 501.628906 565.375 501.980469 C 566.222656 502.332031 567.050781 502.726562 567.859375 503.15625 C 568.671875 503.589844 569.457031 504.0625 570.21875 504.570312 C 570.980469 505.082031 571.71875 505.625 572.425781 506.207031 C 573.136719 506.789062 573.816406 507.40625 574.464844 508.054688 C 575.113281 508.703125 575.730469 509.382812 576.3125 510.09375 C 576.894531 510.800781 577.4375 511.539062 577.949219 512.300781 C 578.457031 513.0625 578.929688 513.847656 579.363281 514.660156 C 579.792969 515.46875 580.1875 516.296875 580.539062 517.144531 C 580.890625 517.992188 581.199219 518.855469 581.464844 519.734375 C 581.730469 520.609375 581.953125 521.5 582.132812 522.398438 C 582.3125 523.300781 582.445312 524.207031 582.535156 525.121094 C 582.625 526.03125 582.671875 526.949219 582.671875 527.867188 Z M 582.671875 527.867188 "/><path style=" stroke:none;fill-rule:nonzero;fill:#3f588e;fill-opacity:1;" d="M 582.671875 415.800781 C 582.671875 416.71875 582.625 417.632812 582.535156 418.546875 C 582.445312 419.457031 582.3125 420.363281 582.132812 421.265625 C 581.953125 422.164062 581.730469 423.054688 581.464844 423.933594 C 581.199219 424.808594 580.890625 425.671875 580.539062 426.519531 C 580.1875 427.367188 579.792969 428.195312 579.363281 429.007812 C 578.929688 429.816406 578.457031 430.601562 577.949219 431.363281 C 577.4375 432.128906 576.894531 432.863281 576.3125 433.574219 C 575.730469 434.28125 575.113281 434.960938 574.464844 435.609375 C 573.816406 436.257812 573.136719 436.875 572.425781 437.457031 C 571.71875 438.039062 570.980469 438.585938 570.21875 439.09375 C 569.457031 439.605469 568.671875 440.074219 567.859375 440.507812 C 567.050781 440.941406 566.222656 441.332031 565.375 441.683594 C 564.527344 442.035156 563.664062 442.34375 562.785156 442.609375 C 561.910156 442.875 561.019531 443.097656 560.121094 443.277344 C 559.21875 443.457031 558.3125 443.589844 557.398438 443.679688 C 556.488281 443.769531 555.570312 443.816406 554.652344 443.816406 C 553.738281 443.816406 552.820312 443.769531 551.90625 443.679688 C 550.996094 443.589844 550.089844 443.457031 549.1875 443.277344 C 548.289062 443.097656 547.398438 442.875 546.519531 442.609375 C 545.644531 442.34375 544.78125 442.035156 543.933594 441.683594 C 543.085938 441.332031 542.257812 440.941406 541.445312 440.507812 C 540.636719 440.074219 539.851562 439.605469 539.089844 439.09375 C 538.324219 438.585938 537.589844 438.039062 536.878906 437.457031 C 536.171875 436.875 535.492188 436.257812 534.84375 435.609375 C 534.195312 434.960938 533.578125 434.28125 532.996094 433.574219 C 532.414062 432.863281 531.867188 432.128906 531.359375 431.363281 C 530.847656 430.601562 530.378906 429.816406 529.945312 429.007812 C 529.511719 428.195312 529.121094 427.367188 528.769531 426.519531 C 528.417969 425.671875 528.109375 424.808594 527.84375 423.933594 C 527.578125 423.054688 527.355469 422.164062 527.175781 421.265625 C 526.996094 420.363281 526.863281 419.457031 526.773438 418.546875 C 526.683594 417.632812 526.636719 416.71875 526.636719 415.800781 C 526.636719 414.882812 526.683594 413.964844 526.773438 413.054688 C 526.863281 412.140625 526.996094 411.234375 527.175781 410.332031 C 527.355469 409.433594 527.578125 408.542969 527.84375 407.667969 C 528.109375 406.789062 528.417969 405.925781 528.769531 405.078125 C 529.121094 404.230469 529.511719 403.402344 529.945312 402.59375 C 530.378906 401.78125 530.847656 400.996094 531.359375 400.234375 C 531.867188 399.472656 532.414062 398.734375 532.996094 398.027344 C 533.578125 397.316406 534.195312 396.636719 534.84375 395.988281 C 535.492188 395.339844 536.171875 394.722656 536.878906 394.140625 C 537.589844 393.558594 538.324219 393.015625 539.089844 392.503906 C 539.851562 391.996094 540.636719 391.523438 541.445312 391.089844 C 542.257812 390.660156 543.085938 390.265625 543.933594 389.914062 C 544.78125 389.5625 545.644531 389.253906 546.519531 388.988281 C 547.398438 388.722656 548.289062 388.5 549.1875 388.320312 C 550.089844 388.140625 550.996094 388.007812 551.90625 387.917969 C 552.820312 387.828125 553.738281 387.78125 554.652344 387.78125 C 555.570312 387.78125 556.488281 387.828125 557.398438 387.917969 C 558.3125 388.007812 559.21875 388.140625 560.121094 388.320312 C 561.019531 388.5 561.910156 388.722656 562.785156 388.988281 C 563.664062 389.253906 564.527344 389.5625 565.375 389.914062 C 566.222656 390.265625 567.050781 390.660156 567.859375 391.089844 C 568.671875 391.523438 569.457031 391.996094 570.21875 392.503906 C 570.980469 393.015625 571.71875 393.558594 572.425781 394.140625 C 573.136719 394.722656 573.816406 395.339844 574.464844 395.988281 C 575.113281 396.636719 575.730469 397.316406 576.3125 398.027344 C 576.894531 398.734375 577.4375 399.472656 577.949219 400.234375 C 578.457031 400.996094 578.929688 401.78125 579.363281 402.59375 C 579.792969 403.402344 580.1875 404.230469 580.539062 405.078125 C 580.890625 405.925781 581.199219 406.789062 581.464844 407.667969 C 581.730469 408.542969 581.953125 409.433594 582.132812 410.332031 C 582.3125 411.234375 582.445312 412.140625 582.535156 413.054688 C 582.625 413.964844 582.671875 414.882812 582.671875 415.800781 Z M 582.671875 415.800781 "/><path style=" stroke:none;fill-rule:nonzero;fill:#3f588e;fill-opacity:1;" d="M 190.4375 88.9375 L 433.25 88.9375 L 433.25 481.171875 L 190.4375 481.171875 Z M 190.4375 88.9375 "/><g clip-rule="nonzero" clip-path="url(#cdff5c6a1b)"><path style=" stroke:none;fill-rule:nonzero;fill:#9fbef4;fill-opacity:1;" d="M 273.152344 481.171875 C 268.988281 465.089844 254.511719 453.15625 237.132812 453.15625 C 232.742188 453.15625 228.585938 454.050781 224.675781 455.441406 C 218.023438 437.773438 201.09375 425.136719 181.097656 425.136719 C 158.089844 425.136719 139.074219 441.816406 135.21875 463.734375 C 131.941406 462.996094 128.566406 462.492188 125.066406 462.492188 C 99.28125 462.492188 78.371094 483.402344 78.371094 509.1875 C 78.371094 534.972656 99.28125 555.882812 125.066406 555.882812 L 283.828125 555.882812 C 304.457031 555.882812 321.183594 539.15625 321.183594 518.527344 C 321.183594 497.898438 304.457031 481.171875 283.828125 481.171875 L 273.433594 482.039062 C 273.367188 481.742188 273.238281 481.46875 273.152344 481.171875 Z M 273.152344 481.171875 "/></g><path style=" stroke:none;fill-rule:nonzero;fill:#020159;fill-opacity:1;" d="M 190.4375 406.460938 L 433.25 406.460938 L 433.25 425.136719 L 190.4375 425.136719 Z M 190.4375 406.460938 "/><path style=" stroke:none;fill-rule:nonzero;fill:#ffffff;fill-opacity:1;" d="M 293.164062 462.492188 C 288.011719 462.492188 283.828125 458.308594 283.828125 453.15625 C 283.828125 448 288.011719 443.816406 293.164062 443.816406 C 298.320312 443.816406 302.503906 448 302.503906 453.15625 C 302.503906 458.308594 298.320312 462.492188 293.164062 462.492188 Z M 293.164062 462.492188 "/><path style=" stroke:none;fill-rule:nonzero;fill:#ffffff;fill-opacity:1;" d="M 321.183594 462.492188 C 316.027344 462.492188 311.84375 458.308594 311.84375 453.15625 C 311.84375 448 316.027344 443.816406 321.183594 443.816406 C 326.335938 443.816406 330.519531 448 330.519531 453.15625 C 330.519531 458.308594 326.335938 462.492188 321.183594 462.492188 Z M 321.183594 462.492188 "/><path style=" stroke:none;fill-rule:nonzero;fill:#020159;fill-opacity:1;" d="M 190.4375 341.089844 L 433.25 341.089844 L 433.25 359.765625 L 190.4375 359.765625 Z M 190.4375 341.089844 "/><path style=" stroke:none;fill-rule:nonzero;fill:#ffffff;fill-opacity:1;" d="M 265.148438 397.121094 L 227.792969 397.121094 C 222.640625 397.121094 218.453125 392.9375 218.453125 387.78125 C 218.453125 382.628906 222.640625 378.445312 227.792969 378.445312 L 265.148438 378.445312 C 270.304688 378.445312 274.488281 382.628906 274.488281 387.78125 C 274.488281 392.9375 270.304688 397.121094 265.148438 397.121094 Z M 265.148438 397.121094 "/><path style=" stroke:none;fill-rule:nonzero;fill:#ffffff;fill-opacity:1;" d="M 293.164062 397.121094 C 288.011719 397.121094 283.828125 392.9375 283.828125 387.78125 C 283.828125 382.628906 288.011719 378.445312 293.164062 378.445312 C 298.320312 378.445312 302.503906 382.628906 302.503906 387.78125 C 302.503906 392.9375 298.320312 397.121094 293.164062 397.121094 Z M 293.164062 397.121094 "/><path style=" stroke:none;fill-rule:nonzero;fill:#ffffff;fill-opacity:1;" d="M 321.183594 397.121094 C 316.027344 397.121094 311.84375 392.9375 311.84375 387.78125 C 311.84375 382.628906 316.027344 378.445312 321.183594 378.445312 C 326.335938 378.445312 330.519531 382.628906 330.519531 387.78125 C 330.519531 392.9375 326.335938 397.121094 321.183594 397.121094 Z M 321.183594 397.121094 "/><path style=" stroke:none;fill-rule:nonzero;fill:#020159;fill-opacity:1;" d="M 190.4375 275.714844 L 433.25 275.714844 L 433.25 294.394531 L 190.4375 294.394531 Z M 190.4375 275.714844 "/><path style=" stroke:none;fill-rule:nonzero;fill:#ffffff;fill-opacity:1;" d="M 265.148438 331.75 L 227.792969 331.75 C 222.640625 331.75 218.453125 327.566406 218.453125 322.410156 C 218.453125 317.253906 222.640625 313.070312 227.792969 313.070312 L 265.148438 313.070312 C 270.304688 313.070312 274.488281 317.253906 274.488281 322.410156 C 274.488281 327.566406 270.304688 331.75 265.148438 331.75 Z M 265.148438 331.75 "/><path style=" stroke:none;fill-rule:nonzero;fill:#ffffff;fill-opacity:1;" d="M 293.164062 331.75 C 288.011719 331.75 283.828125 327.566406 283.828125 322.410156 C 283.828125 317.253906 288.011719 313.070312 293.164062 313.070312 C 298.320312 313.070312 302.503906 317.253906 302.503906 322.410156 C 302.503906 327.566406 298.320312 331.75 293.164062 331.75 Z M 293.164062 331.75 "/><path style=" stroke:none;fill-rule:nonzero;fill:#ffffff;fill-opacity:1;" d="M 321.183594 331.75 C 316.027344 331.75 311.84375 327.566406 311.84375 322.410156 C 311.84375 317.253906 316.027344 313.070312 321.183594 313.070312 C 326.335938 313.070312 330.519531 317.253906 330.519531 322.410156 C 330.519531 327.566406 326.335938 331.75 321.183594 331.75 Z M 321.183594 331.75 "/><path style=" stroke:none;fill-rule:nonzero;fill:#020159;fill-opacity:1;" d="M 190.4375 210.34375 L 433.25 210.34375 L 433.25 229.023438 L 190.4375 229.023438 Z M 190.4375 210.34375 "/><path style=" stroke:none;fill-rule:nonzero;fill:#ffffff;fill-opacity:1;" d="M 265.148438 266.378906 L 227.792969 266.378906 C 222.640625 266.378906 218.453125 262.195312 218.453125 257.039062 C 218.453125 251.882812 222.640625 247.699219 227.792969 247.699219 L 265.148438 247.699219 C 270.304688 247.699219 274.488281 251.882812 274.488281 257.039062 C 274.488281 262.195312 270.304688 266.378906 265.148438 266.378906 Z M 265.148438 266.378906 "/><path style=" stroke:none;fill-rule:nonzero;fill:#ffffff;fill-opacity:1;" d="M 293.164062 266.378906 C 288.011719 266.378906 283.828125 262.195312 283.828125 257.039062 C 283.828125 251.882812 288.011719 247.699219 293.164062 247.699219 C 298.320312 247.699219 302.503906 251.882812 302.503906 257.039062 C 302.503906 262.195312 298.320312 266.378906 293.164062 266.378906 Z M 293.164062 266.378906 "/><path style=" stroke:none;fill-rule:nonzero;fill:#ffffff;fill-opacity:1;" d="M 321.183594 266.378906 C 316.027344 266.378906 311.84375 262.195312 311.84375 257.039062 C 311.84375 251.882812 316.027344 247.699219 321.183594 247.699219 C 326.335938 247.699219 330.519531 251.882812 330.519531 257.039062 C 330.519531 262.195312 326.335938 266.378906 321.183594 266.378906 Z M 321.183594 266.378906 "/><path style=" stroke:none;fill-rule:nonzero;fill:#020159;fill-opacity:1;" d="M 190.4375 144.972656 L 433.25 144.972656 L 433.25 163.648438 L 190.4375 163.648438 Z M 190.4375 144.972656 "/><path style=" stroke:none;fill-rule:nonzero;fill:#ffffff;fill-opacity:1;" d="M 265.148438 201.003906 L 227.792969 201.003906 C 222.640625 201.003906 218.453125 196.820312 218.453125 191.667969 C 218.453125 186.511719 222.640625 182.328125 227.792969 182.328125 L 265.148438 182.328125 C 270.304688 182.328125 274.488281 186.511719 274.488281 191.667969 C 274.488281 196.820312 270.304688 201.003906 265.148438 201.003906 Z M 265.148438 201.003906 "/><path style=" stroke:none;fill-rule:nonzero;fill:#ffffff;fill-opacity:1;" d="M 293.164062 201.003906 C 288.011719 201.003906 283.828125 196.820312 283.828125 191.667969 C 283.828125 186.511719 288.011719 182.328125 293.164062 182.328125 C 298.320312 182.328125 302.503906 186.511719 302.503906 191.667969 C 302.503906 196.820312 298.320312 201.003906 293.164062 201.003906 Z M 293.164062 201.003906 "/><path style=" stroke:none;fill-rule:nonzero;fill:#ffffff;fill-opacity:1;" d="M 321.183594 201.003906 C 316.027344 201.003906 311.84375 196.820312 311.84375 191.667969 C 311.84375 186.511719 316.027344 182.328125 321.183594 182.328125 C 326.335938 182.328125 330.519531 186.511719 330.519531 191.667969 C 330.519531 196.820312 326.335938 201.003906 321.183594 201.003906 Z M 321.183594 201.003906 "/><path style=" stroke:none;fill-rule:nonzero;fill:#ffffff;fill-opacity:1;" d="M 265.148438 135.632812 L 227.792969 135.632812 C 222.640625 135.632812 218.453125 131.449219 218.453125 126.292969 C 218.453125 121.140625 222.640625 116.957031 227.792969 116.957031 L 265.148438 116.957031 C 270.304688 116.957031 274.488281 121.140625 274.488281 126.292969 C 274.488281 131.449219 270.304688 135.632812 265.148438 135.632812 Z M 265.148438 135.632812 "/><path style=" stroke:none;fill-rule:nonzero;fill:#ffffff;fill-opacity:1;" d="M 293.164062 135.632812 C 288.011719 135.632812 283.828125 131.449219 283.828125 126.292969 C 283.828125 121.140625 288.011719 116.957031 293.164062 116.957031 C 298.320312 116.957031 302.503906 121.140625 302.503906 126.292969 C 302.503906 131.449219 298.320312 135.632812 293.164062 135.632812 Z M 293.164062 135.632812 "/><path style=" stroke:none;fill-rule:nonzero;fill:#ffffff;fill-opacity:1;" d="M 321.183594 135.632812 C 316.027344 135.632812 311.84375 131.449219 311.84375 126.292969 C 311.84375 121.140625 316.027344 116.957031 321.183594 116.957031 C 326.335938 116.957031 330.519531 121.140625 330.519531 126.292969 C 330.519531 131.449219 326.335938 135.632812 321.183594 135.632812 Z M 321.183594 135.632812 "/><path style=" stroke:none;fill-rule:nonzero;fill:#477cd6;fill-opacity:1;" d="M 162.421875 135.632812 L 143.742188 135.632812 L 143.742188 51.582031 C 143.742188 46.429688 147.917969 42.246094 153.082031 42.246094 L 227.792969 42.246094 L 227.792969 60.921875 L 162.421875 60.921875 Z M 162.421875 135.632812 "/><path style=" stroke:none;fill-rule:nonzero;fill:#477cd6;fill-opacity:1;" d="M 470.605469 527.867188 L 395.894531 527.867188 L 395.894531 509.1875 L 461.265625 509.1875 L 461.265625 434.476562 L 479.941406 434.476562 L 479.941406 518.527344 C 479.941406 523.683594 475.769531 527.867188 470.605469 527.867188 Z M 470.605469 527.867188 "/><g clip-rule="nonzero" clip-path="url(#a33325075a)"><path style=" stroke:none;fill-rule:nonzero;fill:#9fbef4;fill-opacity:1;" d="M 590.683594 51.582031 L 629.363281 51.582031 L 629.363281 32.90625 L 590.683594 32.90625 C 586.507812 16.84375 572.015625 4.890625 554.652344 4.890625 C 534.050781 4.890625 517.296875 21.644531 517.296875 42.246094 C 517.296875 59.597656 529.242188 74.101562 545.316406 78.273438 L 545.316406 118.28125 C 529.242188 122.457031 517.296875 136.960938 517.296875 154.3125 C 517.296875 171.664062 529.242188 186.164062 545.316406 190.339844 L 545.316406 249.027344 C 532.25 252.425781 522.023438 262.652344 518.625 275.714844 L 433.25 275.714844 L 433.25 294.394531 L 518.625 294.394531 C 522.023438 307.460938 532.25 317.683594 545.316406 321.085938 L 545.316406 379.769531 C 529.242188 383.945312 517.296875 398.449219 517.296875 415.800781 C 517.296875 433.152344 529.242188 447.652344 545.316406 451.828125 L 545.316406 491.835938 C 529.242188 496.011719 517.296875 510.515625 517.296875 527.867188 C 517.296875 548.46875 534.050781 565.222656 554.652344 565.222656 C 572.015625 565.222656 586.507812 553.265625 590.683594 537.203125 L 629.363281 537.203125 L 629.363281 518.527344 L 590.683594 518.527344 C 587.285156 505.460938 577.058594 495.234375 563.992188 491.835938 L 563.992188 451.828125 C 577.058594 448.429688 587.285156 438.203125 590.683594 425.136719 L 629.363281 425.136719 L 629.363281 406.460938 L 590.683594 406.460938 C 587.285156 393.394531 577.058594 383.167969 563.992188 379.769531 L 563.992188 321.085938 C 577.058594 317.683594 587.285156 307.460938 590.683594 294.394531 L 629.363281 294.394531 L 629.363281 275.714844 L 590.683594 275.714844 C 587.285156 262.652344 577.058594 252.425781 563.992188 249.027344 L 563.992188 190.339844 C 577.058594 186.941406 587.285156 176.714844 590.683594 163.648438 L 629.363281 163.648438 L 629.363281 144.972656 L 590.683594 144.972656 C 587.285156 131.90625 577.058594 121.679688 563.992188 118.28125 L 563.992188 78.273438 C 577.058594 74.875 587.285156 64.648438 590.683594 51.582031 Z M 535.976562 42.246094 C 535.976562 31.945312 544.351562 23.566406 554.652344 23.566406 C 564.953125 23.566406 573.332031 31.945312 573.332031 42.246094 C 573.332031 52.546875 564.953125 60.921875 554.652344 60.921875 C 544.351562 60.921875 535.976562 52.546875 535.976562 42.246094 Z M 573.332031 527.867188 C 573.332031 538.167969 564.953125 546.542969 554.652344 546.542969 C 544.351562 546.542969 535.976562 538.167969 535.976562 527.867188 C 535.976562 517.566406 544.351562 509.1875 554.652344 509.1875 C 564.953125 509.1875 573.332031 517.566406 573.332031 527.867188 Z M 573.332031 415.800781 C 573.332031 426.101562 564.953125 434.476562 554.652344 434.476562 C 544.351562 434.476562 535.976562 426.101562 535.976562 415.800781 C 535.976562 405.5 544.351562 397.121094 554.652344 397.121094 C 564.953125 397.121094 573.332031 405.5 573.332031 415.800781 Z M 573.332031 285.054688 C 573.332031 295.355469 564.953125 303.734375 554.652344 303.734375 C 544.351562 303.734375 535.976562 295.355469 535.976562 285.054688 C 535.976562 274.753906 544.351562 266.378906 554.652344 266.378906 C 564.953125 266.378906 573.332031 274.753906 573.332031 285.054688 Z M 573.332031 154.3125 C 573.332031 164.613281 564.953125 172.988281 554.652344 172.988281 C 544.351562 172.988281 535.976562 164.613281 535.976562 154.3125 C 535.976562 144.011719 544.351562 135.632812 554.652344 135.632812 C 564.953125 135.632812 573.332031 144.011719 573.332031 154.3125 Z M 573.332031 154.3125 "/></g><path style=" stroke:none;fill-rule:nonzero;fill:#477cd6;fill-opacity:1;" d="M 461.265625 397.121094 L 479.941406 397.121094 L 479.941406 415.800781 L 461.265625 415.800781 Z M 461.265625 397.121094 "/><path style=" stroke:none;fill-rule:nonzero;fill:#477cd6;fill-opacity:1;" d="M 143.742188 154.3125 L 162.421875 154.3125 L 162.421875 172.988281 L 143.742188 172.988281 Z M 143.742188 154.3125 "/></g></svg>