<svg xmlns="http://www.w3.org/2000/svg" xmlns:xlink="http://www.w3.org/1999/xlink" width="945" zoomAndPan="magnify" viewBox="0 0 708 574.08" height="756" preserveAspectRatio="xMidYMid meet" version="1.2"><defs><clipPath id="902c291dd7"><path d="M 125.96875 87.777344 L 582 87.777344 L 582 477.542969 L 125.96875 477.542969 Z M 125.96875 87.777344 "/></clipPath></defs><g id="fd47eb0af9"><g clip-rule="nonzero" clip-path="url(#902c291dd7)"><path style=" stroke:none;fill-rule:evenodd;fill:#020159;fill-opacity:1;" d="M 125.933594 433.300781 L 125.933594 111.039062 C 125.933594 98.257812 136.398438 87.796875 149.179688 87.796875 L 535.902344 87.796875 C 548.6875 87.796875 559.125 98.253906 559.125 111.039062 L 559.125 265.960938 C 559.78125 266.882812 560.425781 267.8125 561.058594 268.75 L 570.183594 263.652344 C 572.785156 262.199219 576.003906 262.429688 578.371094 264.242188 C 580.738281 266.054688 581.800781 269.101562 581.074219 271.992188 L 568.140625 323.445312 C 567.582031 325.671875 566.03125 327.515625 563.933594 328.449219 C 562.40625 329.128906 560.714844 329.269531 559.125 328.882812 L 559.125 373.550781 L 570.707031 373.550781 C 573.082031 373.550781 575.316406 374.683594 576.722656 376.597656 C 578.128906 378.511719 578.542969 380.980469 577.835938 383.246094 C 560.824219 437.765625 509.8125 477.523438 449.816406 477.523438 C 423.382812 477.523438 398.695312 469.8125 377.890625 456.527344 L 149.179688 456.527344 C 136.394531 456.527344 125.933594 446.054688 125.933594 433.300781 Z M 544.1875 144.082031 L 544.1875 111.039062 C 544.1875 106.476562 540.464844 102.734375 535.902344 102.734375 L 149.179688 102.734375 C 144.613281 102.734375 140.875 106.472656 140.875 111.039062 L 140.875 144.082031 C 140.875 144.082031 544.1875 144.082031 544.1875 144.082031 Z M 544.1875 248.355469 L 544.1875 159.023438 L 140.875 159.023438 L 140.875 433.300781 C 140.875 437.855469 144.617188 441.585938 149.179688 441.585938 L 358.59375 441.585938 C 332.242188 417.078125 315.71875 382.136719 315.71875 343.460938 C 315.71875 269.589844 375.945312 209.367188 449.816406 209.367188 C 486.554688 209.367188 519.929688 224.273438 544.1875 248.355469 Z M 544.1875 321.21875 L 511.90625 304.101562 C 509.421875 302.785156 507.886719 300.1875 507.933594 297.378906 C 507.980469 294.566406 509.601562 292.023438 512.128906 290.789062 L 520.9375 286.488281 C 504.238281 265.652344 478.578125 252.3125 449.816406 252.3125 C 399.476562 252.3125 358.664062 293.121094 358.664062 343.460938 C 358.664062 393.769531 399.476562 434.578125 449.816406 434.578125 C 487.835938 434.578125 520.429688 411.273438 534.085938 378.171875 C 535.238281 375.375 537.964844 373.550781 540.992188 373.550781 L 544.1875 373.550781 Z M 442.347656 306.144531 C 442.347656 302.023438 445.695312 298.675781 449.816406 298.675781 C 453.9375 298.675781 457.285156 302.023438 457.285156 306.144531 L 457.285156 339.148438 L 478.429688 351.355469 C 482 353.417969 483.226562 357.992188 481.164062 361.5625 C 479.101562 365.132812 474.53125 366.355469 470.960938 364.296875 L 446.082031 349.933594 C 443.769531 348.597656 442.347656 346.132812 442.347656 343.460938 Z M 442.347656 264.941406 C 442.347656 260.820312 445.695312 257.472656 449.816406 257.472656 C 453.9375 257.472656 457.285156 260.820312 457.285156 264.941406 L 457.285156 273.464844 C 457.285156 277.589844 453.9375 280.9375 449.816406 280.9375 C 445.695312 280.9375 442.347656 277.589844 442.347656 273.464844 Z M 399.570312 404.242188 C 396.652344 407.15625 391.917969 407.15625 389.003906 404.242188 C 386.089844 401.324219 386.089844 396.589844 389.003906 393.675781 L 395.015625 387.664062 C 397.933594 384.746094 402.667969 384.746094 405.582031 387.664062 C 408.496094 390.578125 408.496094 395.3125 405.582031 398.226562 Z M 389.003906 293.214844 C 386.089844 290.300781 386.089844 285.566406 389.003906 282.648438 C 391.917969 279.734375 396.652344 279.734375 399.570312 282.648438 L 405.582031 288.664062 C 408.496094 291.578125 408.496094 296.3125 405.582031 299.226562 C 402.667969 302.144531 397.933594 302.144531 395.015625 299.226562 Z M 528.300781 335.992188 C 532.425781 335.992188 535.773438 339.339844 535.773438 343.460938 C 535.773438 347.585938 532.425781 350.933594 528.300781 350.933594 L 519.8125 350.933594 C 515.691406 350.933594 512.34375 347.585938 512.34375 343.460938 C 512.34375 339.339844 515.691406 335.992188 519.8125 335.992188 Z M 371.296875 350.933594 C 367.175781 350.933594 363.828125 347.585938 363.828125 343.460938 C 363.828125 339.339844 367.175781 335.992188 371.296875 335.992188 L 379.820312 335.992188 C 383.941406 335.992188 387.289062 339.339844 387.289062 343.460938 C 387.289062 347.585938 383.941406 350.933594 379.820312 350.933594 Z M 510.609375 393.671875 C 513.523438 396.585938 513.523438 401.320312 510.609375 404.234375 C 507.691406 407.152344 502.957031 407.152344 500.042969 404.234375 L 494.019531 398.210938 C 491.101562 395.296875 491.101562 390.5625 494.019531 387.644531 C 496.933594 384.730469 501.667969 384.730469 504.582031 387.644531 Z M 457.285156 421.945312 C 457.285156 426.070312 453.9375 429.417969 449.816406 429.417969 C 445.695312 429.417969 442.347656 426.070312 442.347656 421.945312 L 442.347656 413.460938 C 442.347656 409.335938 445.695312 405.988281 449.816406 405.988281 C 453.9375 405.988281 457.285156 409.335938 457.285156 413.460938 Z M 176.277344 132.609375 C 171.207031 132.609375 167.066406 128.492188 167.066406 123.417969 C 167.066406 118.347656 171.207031 114.207031 176.277344 114.207031 C 181.347656 114.207031 185.488281 118.347656 185.488281 123.417969 C 185.488281 128.492188 181.347656 132.609375 176.277344 132.609375 Z M 211.632812 132.609375 C 206.5625 132.609375 202.421875 128.492188 202.421875 123.417969 C 202.421875 118.347656 206.5625 114.207031 211.632812 114.207031 C 216.707031 114.207031 220.824219 118.347656 220.824219 123.417969 C 220.824219 128.492188 216.707031 132.609375 211.632812 132.609375 Z M 246.96875 132.609375 C 241.898438 132.609375 237.757812 128.492188 237.757812 123.417969 C 237.757812 118.347656 241.898438 114.207031 246.96875 114.207031 C 252.042969 114.207031 256.183594 118.347656 256.183594 123.417969 C 256.183594 128.492188 252.042969 132.609375 246.96875 132.609375 Z M 298.816406 321.601562 L 162.414062 321.601562 C 158.289062 321.601562 154.941406 318.257812 154.941406 314.132812 L 154.941406 238.597656 C 154.941406 234.472656 158.289062 231.128906 162.414062 231.128906 L 200.410156 231.128906 L 200.410156 215.207031 C 200.410156 211.082031 203.753906 207.734375 207.878906 207.734375 L 245.878906 207.734375 L 245.878906 184.566406 C 245.878906 180.441406 249.222656 177.097656 253.347656 177.097656 L 298.816406 177.097656 C 302.941406 177.097656 306.285156 180.441406 306.285156 184.566406 L 306.285156 314.132812 C 306.285156 318.257812 302.941406 321.601562 298.816406 321.601562 Z M 200.410156 246.070312 C 200.410156 246.070312 169.882812 246.070312 169.882812 246.070312 C 169.882812 246.070312 169.882812 306.660156 169.882812 306.660156 C 169.882812 306.660156 200.410156 306.660156 200.410156 306.660156 Z M 245.878906 222.675781 L 215.351562 222.675781 L 215.351562 306.660156 L 245.878906 306.660156 Z M 260.816406 306.660156 L 291.34375 306.660156 L 291.34375 192.039062 L 260.816406 192.039062 Z M 162.414062 350.933594 C 158.289062 350.933594 154.941406 347.585938 154.941406 343.460938 C 154.941406 339.339844 158.289062 335.992188 162.414062 335.992188 L 266.976562 335.992188 C 271.101562 335.992188 274.445312 339.339844 274.445312 343.460938 C 274.445312 347.585938 271.101562 350.933594 266.976562 350.933594 Z M 162.414062 386.011719 C 158.289062 386.011719 154.941406 382.664062 154.941406 378.542969 C 154.941406 374.417969 158.289062 371.074219 162.414062 371.074219 L 287.289062 371.074219 C 291.414062 371.074219 294.761719 374.417969 294.761719 378.542969 C 294.761719 382.664062 291.414062 386.011719 287.289062 386.011719 Z M 162.414062 421.09375 C 158.289062 421.09375 154.941406 417.746094 154.941406 413.621094 C 154.941406 409.5 158.289062 406.152344 162.414062 406.152344 L 287.289062 406.152344 C 291.414062 406.152344 294.761719 409.5 294.761719 413.621094 C 294.761719 417.746094 291.414062 421.09375 287.289062 421.09375 Z M 535.488281 296.011719 L 531.871094 297.777344 L 555.976562 310.558594 L 562.363281 285.132812 L 562.183594 285.238281 C 558.65625 287.207031 554.203125 286.015625 552.128906 282.550781 C 531.296875 247.714844 493.203125 224.304688 449.816406 224.304688 C 384.175781 224.304688 330.660156 277.820312 330.660156 343.460938 C 330.660156 409.070312 384.175781 462.585938 449.816406 462.585938 C 499.503906 462.585938 542.253906 431.886719 560.078125 388.492188 C 560.078125 388.492188 545.859375 388.492188 545.859375 388.492188 C 528.917969 424.546875 492.273438 449.519531 449.816406 449.519531 C 391.226562 449.519531 343.726562 402.015625 343.726562 343.460938 C 343.726562 284.871094 391.226562 237.371094 449.816406 237.371094 C 486.863281 237.371094 519.484375 256.382812 538.453125 285.191406 C 539.632812 286.984375 539.984375 289.199219 539.417969 291.269531 C 538.847656 293.34375 537.417969 295.070312 535.488281 296.011719 Z M 535.488281 296.011719 "/></g></g></svg>