<svg xmlns="http://www.w3.org/2000/svg" xmlns:xlink="http://www.w3.org/1999/xlink" width="945" zoomAndPan="magnify" viewBox="0 0 708 574.08" height="756" preserveAspectRatio="xMidYMid meet" version="1.2"><defs><clipPath id="a21e3eb898"><path d="M 85.390625 0 L 644 0 L 644 558 L 85.390625 558 Z M 85.390625 0 "/></clipPath></defs><g id="3d0c5dd3c3"><g clip-rule="nonzero" clip-path="url(#a21e3eb898)"><path style=" stroke:none;fill-rule:nonzero;fill:#3f588e;fill-opacity:1;" d="M 483.742188 45.402344 C 503.609375 45.402344 513.65625 69.539062 499.558594 83.597656 C 487.417969 95.738281 466.796875 90.195312 462.1875 73.832031 L 428.175781 73.832031 L 428.175781 139.429688 C 428.175781 147.414062 416.035156 147.414062 416.035156 139.429688 L 416.035156 67.78125 C 416.035156 64.410156 418.75 61.691406 422.085938 61.691406 L 462.175781 61.691406 C 464.867188 52.183594 473.601562 45.402344 483.742188 45.402344 Z M 364.324219 -0.046875 C 384.195312 -0.046875 394.199219 24.089844 380.144531 38.183594 C 377.460938 40.828125 374.125 42.867188 370.378906 43.898438 L 370.378906 98.808594 C 370.378906 106.789062 358.238281 106.789062 358.238281 98.808594 L 358.238281 43.886719 C 341.910156 39.3125 336.332031 18.644531 348.472656 6.511719 C 352.535156 2.460938 358.140625 -0.046875 364.324219 -0.046875 Z M 244.921875 45.402344 C 255.0625 45.402344 263.792969 52.167969 266.476562 61.703125 L 306.527344 61.703125 C 309.898438 61.703125 312.617188 64.421875 312.617188 67.792969 L 312.617188 139.441406 C 312.617188 147.425781 300.476562 147.425781 300.476562 139.441406 L 300.476562 73.832031 L 266.476562 73.832031 C 261.867188 90.195312 241.210938 95.738281 229.066406 83.597656 C 214.996094 69.539062 225.039062 45.402344 244.921875 45.402344 Z M 499.558594 505.929688 C 487.417969 518.070312 466.796875 512.492188 462.1875 496.164062 L 422.097656 496.164062 C 418.765625 496.164062 416.046875 493.449219 416.046875 490.078125 L 416.046875 418.425781 C 416.046875 410.445312 428.1875 410.445312 428.1875 418.425781 L 428.1875 484.023438 L 462.1875 484.023438 C 466.796875 467.695312 487.429688 462.117188 499.558594 474.257812 C 508.328125 483.003906 508.328125 497.171875 499.558594 505.929688 Z M 380.144531 551.355469 C 366.085938 565.414062 341.945312 555.40625 341.945312 535.539062 C 341.945312 525.398438 348.714844 516.664062 358.25 513.984375 L 358.25 459.074219 C 358.25 451.089844 370.390625 451.089844 370.390625 459.074219 L 370.390625 513.984375 C 386.742188 518.558594 392.285156 539.214844 380.144531 551.355469 Z M 260.726562 505.929688 C 246.667969 519.988281 222.53125 509.957031 222.53125 490.078125 C 222.53125 470.207031 246.667969 460.199219 260.726562 474.257812 C 263.40625 476.941406 265.40625 480.273438 266.464844 484.023438 L 300.460938 484.023438 L 300.460938 418.425781 C 300.460938 410.445312 312.605469 410.445312 312.605469 418.425781 L 312.605469 490.078125 C 312.605469 493.449219 309.886719 496.164062 306.515625 496.164062 L 266.464844 496.164062 C 265.40625 499.878906 263.417969 503.25 260.726562 505.929688 Z M 591.296875 143.675781 C 603.460938 155.84375 597.894531 176.476562 581.53125 181.085938 L 581.53125 221.171875 C 581.53125 224.507812 578.816406 227.226562 575.480469 227.226562 L 503.828125 227.226562 C 495.847656 227.226562 495.847656 215.082031 503.828125 215.082031 L 569.425781 215.082031 L 569.425781 181.085938 C 553.0625 176.476562 547.496094 155.84375 559.664062 143.675781 C 568.394531 134.941406 582.5625 134.941406 591.296875 143.675781 Z M 636.746094 263.117188 C 650.804688 277.175781 640.796875 301.3125 620.929688 301.3125 C 610.789062 301.3125 602.054688 294.546875 599.375 284.988281 L 544.464844 284.988281 C 536.484375 284.988281 536.484375 272.882812 544.464844 272.882812 L 599.375 272.882812 C 603.949219 256.519531 624.617188 250.953125 636.746094 263.117188 Z M 591.296875 382.535156 C 605.390625 396.59375 595.347656 420.730469 575.480469 420.730469 C 555.609375 420.730469 545.566406 396.59375 559.664062 382.535156 C 562.304688 379.855469 565.679688 377.851562 569.425781 376.796875 L 569.425781 342.785156 L 503.828125 342.785156 C 495.847656 342.785156 495.847656 330.644531 503.828125 330.644531 L 575.480469 330.644531 C 578.816406 330.644531 581.53125 333.359375 581.53125 336.695312 L 581.53125 376.785156 C 585.28125 377.851562 588.652344 379.855469 591.296875 382.535156 Z M 130.792969 159.515625 C 130.792969 139.648438 154.929688 129.605469 168.988281 143.664062 C 181.128906 155.832031 175.550781 176.460938 159.222656 181.070312 L 159.222656 215.070312 L 224.820312 215.070312 C 232.804688 215.070312 232.804688 227.214844 224.820312 227.214844 L 153.183594 227.214844 C 149.8125 227.214844 147.09375 224.496094 147.09375 221.160156 L 147.09375 181.070312 C 137.574219 178.402344 130.792969 169.671875 130.792969 159.515625 Z M 85.34375 278.933594 C 85.34375 259.066406 109.480469 249.023438 123.539062 263.117188 C 126.21875 265.761719 128.207031 269.132812 129.277344 272.882812 L 184.1875 272.882812 C 192.167969 272.882812 192.167969 284.988281 184.1875 284.988281 L 129.289062 284.988281 C 124.714844 301.351562 104.046875 306.917969 91.917969 294.75 C 87.851562 290.722656 85.34375 285.121094 85.34375 278.933594 Z M 130.792969 398.351562 C 130.792969 388.210938 137.5625 379.476562 147.09375 376.796875 L 147.09375 336.707031 C 147.09375 333.371094 149.8125 330.65625 153.183594 330.65625 L 224.835938 330.65625 C 232.816406 330.65625 232.816406 342.796875 224.835938 342.796875 L 159.238281 342.796875 L 159.238281 376.796875 C 175.5625 381.40625 181.144531 402.039062 169 414.203125 C 154.929688 428.261719 130.792969 418.21875 130.792969 398.351562 Z M 431.792969 188.507812 L 402.570312 175.203125 L 313.175781 262.195312 L 353.46875 278.59375 L 309.523438 344.191406 L 397.136719 269.921875 L 354.367188 252.457031 Z M 297.042969 341.0625 L 335.140625 284.199219 L 291.4375 266.453125 L 372.378906 187.683594 C 318.632812 183.074219 272.734375 225.261719 272.734375 278.933594 C 272.734375 302.9375 281.941406 324.734375 297.042969 341.0625 Z M 424.742188 210.0625 L 377.667969 248.949219 L 420.171875 266.308594 L 314.507812 355.8125 C 350.789062 379.367188 398.578125 374.214844 429.109375 343.707031 C 466.617188 306.203125 464.457031 244.933594 424.742188 210.0625 Z M 427.316406 173.210938 L 454.414062 185.558594 L 434.15625 202.273438 C 477.785156 242.058594 479.644531 310.300781 437.660156 352.292969 C 402.144531 387.847656 346.09375 392.832031 304.878906 363.988281 L 284.28125 381.417969 L 275.34375 373.4375 L 290.09375 351.433594 C 250.414062 310.761719 250.828125 245.773438 290.988281 205.609375 C 314.886719 181.714844 349.101562 170.640625 383.382812 176.972656 L 399.296875 161.496094 C 395.0625 160.222656 392.003906 158.644531 389.324219 155.066406 C 387.152344 152.179688 385.890625 148.636719 385.890625 144.78125 L 385.890625 134.289062 C 385.890625 132.773438 384.691406 131.570312 383.175781 131.570312 L 345.488281 131.570312 C 343.972656 131.570312 342.734375 132.773438 342.734375 134.289062 L 342.734375 144.78125 C 342.734375 152.445312 337.714844 159.082031 330.386719 161.179688 C 321.542969 163.726562 312.992188 167.269531 305.046875 171.671875 C 298.304688 175.382812 290.128906 174.253906 284.730469 168.820312 L 277.308594 161.433594 C 276.238281 160.367188 274.492188 160.367188 273.460938 161.433594 L 246.777344 188.082031 C 245.746094 189.113281 245.746094 190.898438 246.777344 191.929688 L 254.199219 199.351562 C 259.632812 204.785156 260.761719 212.972656 257.050781 219.667969 C 252.648438 227.613281 249.105469 236.175781 246.558594 245.007812 C 244.421875 252.371094 237.789062 257.355469 230.160156 257.355469 L 219.667969 257.355469 C 218.152344 257.355469 216.949219 258.59375 216.949219 260.109375 L 216.949219 297.796875 C 216.949219 299.3125 218.152344 300.550781 219.667969 300.550781 L 230.160156 300.550781 C 237.789062 300.550781 244.421875 305.535156 246.558594 312.898438 C 249.105469 321.726562 252.648438 330.292969 257.050781 338.238281 C 260.761719 344.945312 259.632812 353.121094 254.199219 358.554688 L 246.777344 365.976562 C 245.746094 367.007812 245.746094 368.792969 246.777344 369.824219 L 273.460938 396.507812 C 274.492188 397.539062 276.25 397.539062 277.308594 396.507812 L 284.730469 389.085938 C 290.128906 383.648438 298.316406 382.523438 305.046875 386.234375 C 312.992188 390.636719 321.554688 394.179688 330.386719 396.726562 C 337.714844 398.859375 342.734375 405.460938 342.734375 413.125 L 342.734375 423.617188 C 342.734375 425.097656 343.972656 426.335938 345.488281 426.335938 L 383.175781 426.335938 C 383.925781 426.335938 384.617188 426.019531 385.105469 425.546875 C 385.625 425.0625 385.890625 424.382812 385.890625 423.617188 L 385.890625 413.125 C 385.890625 409.28125 387.164062 405.738281 389.324219 402.839844 C 391.519531 399.953125 394.589844 397.78125 398.265625 396.714844 C 407.09375 394.167969 415.660156 390.625 423.601562 386.222656 C 430.3125 382.511719 438.488281 383.636719 443.921875 389.070312 L 451.34375 396.496094 C 452.375 397.527344 454.132812 397.527344 455.1875 396.496094 L 481.839844 369.808594 C 482.90625 368.777344 482.90625 366.996094 481.839844 365.964844 L 474.414062 358.542969 C 469.015625 353.109375 467.875 344.921875 471.601562 338.222656 C 476.003906 330.28125 479.546875 321.714844 482.09375 312.886719 C 484.191406 305.523438 490.828125 300.539062 498.492188 300.539062 L 508.984375 300.539062 C 510.5 300.539062 511.703125 299.300781 511.703125 297.785156 L 511.703125 260.097656 C 511.703125 258.582031 510.5 257.34375 508.984375 257.34375 L 498.492188 257.34375 C 490.828125 257.34375 484.191406 252.359375 482.09375 244.996094 C 479.546875 236.152344 476.003906 227.601562 471.601562 219.65625 C 467.890625 212.949219 469.015625 204.773438 474.414062 199.339844 L 481.839844 191.914062 C 482.90625 190.886719 482.90625 189.101562 481.839844 188.070312 L 455.1875 161.421875 C 454.121094 160.355469 452.375 160.355469 451.34375 161.421875 L 443.921875 168.808594 C 439.53125 173.210938 433.199219 174.863281 427.316406 173.210938 Z M 427.316406 173.210938 "/></g></g></svg>