<svg xmlns="http://www.w3.org/2000/svg" xmlns:xlink="http://www.w3.org/1999/xlink" width="945" zoomAndPan="magnify" viewBox="0 0 708 574.08" height="756" preserveAspectRatio="xMidYMid meet" version="1.2"><defs><clipPath id="1399649685"><path d="M 57.117188 0 L 628.667969 0 L 628.667969 565.570312 L 57.117188 565.570312 Z M 57.117188 0 "/></clipPath><clipPath id="0e3d8aa76b"><path d="M 514.550781 382.101562 C 507.238281 379.925781 499.511719 380.726562 492.804688 384.359375 L 416.273438 425.800781 C 411.5625 428.351562 406.710938 430.558594 401.742188 432.414062 C 403.828125 425.367188 403.613281 417.589844 400.601562 410.28125 C 397.207031 402.050781 390.8125 395.636719 382.59375 392.21875 C 374.375 388.800781 365.316406 388.785156 357.085938 392.175781 L 302.605469 414.644531 C 287.84375 409.949219 271.871094 410.171875 257.222656 415.335938 L 227.957031 425.65625 L 227.105469 416.726562 C 226.601562 411.492188 221.957031 407.652344 216.71875 408.15625 L 159.847656 413.597656 C 157.332031 413.839844 155.015625 415.066406 153.410156 417.015625 C 151.800781 418.960938 151.035156 421.46875 151.273438 423.984375 L 65.96875 432.144531 C 63.453125 432.386719 61.136719 433.617188 59.53125 435.5625 C 57.921875 437.511719 57.152344 440.019531 57.394531 442.53125 L 68.28125 556.273438 C 68.753906 561.203125 72.898438 564.890625 77.746094 564.890625 C 78.050781 564.890625 78.359375 564.875 78.664062 564.847656 L 163.972656 556.683594 C 164.210938 559.195312 165.441406 561.511719 167.390625 563.117188 C 169.101562 564.53125 171.25 565.296875 173.453125 565.296875 C 173.753906 565.296875 174.054688 565.28125 174.359375 565.253906 L 231.230469 559.8125 C 236.464844 559.308594 240.304688 554.660156 239.800781 549.425781 L 239.054688 541.617188 L 370.378906 525.734375 C 374.019531 525.292969 377.636719 524.507812 381.132812 523.394531 L 402.605469 516.554688 C 418.769531 511.410156 433.691406 503.445312 446.96875 492.886719 L 520.808594 434.148438 C 527.105469 430.476562 531.695312 424.640625 533.785156 417.625 C 535.960938 410.308594 535.15625 402.585938 531.523438 395.875 C 527.890625 389.167969 521.867188 384.277344 514.550781 382.101562 Z M 86.332031 544.984375 L 77.261719 450.195312 L 153.089844 442.941406 L 162.160156 537.726562 Z M 182.023438 545.390625 L 171.140625 431.648438 L 209.054688 428.019531 L 219.941406 541.761719 Z M 515.535156 412.195312 C 514.808594 414.632812 513.179688 416.644531 510.941406 417.851562 C 510.449219 418.117188 509.984375 418.425781 509.546875 418.773438 L 435.113281 477.984375 C 423.660156 487.097656 410.78125 493.96875 396.832031 498.410156 L 375.355469 505.25 C 372.996094 506 370.554688 506.535156 368.09375 506.832031 L 240.347656 522.28125 L 230.972656 444.789062 L 263.558594 433.296875 C 275.195312 429.195312 287.964844 429.347656 299.523438 433.726562 C 301.785156 434.582031 304.292969 434.550781 306.53125 433.625 L 364.347656 409.785156 C 367.875 408.328125 371.757812 408.335938 375.277344 409.800781 C 378.800781 411.265625 381.542969 414.015625 382.996094 417.542969 C 386 424.824219 382.519531 433.1875 375.238281 436.191406 L 364.996094 440.414062 C 360.59375 442.230469 358.207031 447.019531 359.414062 451.625 C 360.621094 456.234375 365.058594 459.246094 369.769531 458.671875 L 377.746094 457.707031 C 394.496094 455.679688 410.507812 450.578125 425.34375 442.546875 L 501.875 401.105469 C 504.109375 399.894531 506.683594 399.628906 509.121094 400.351562 C 511.5625 401.078125 513.570312 402.707031 514.78125 404.945312 C 515.992188 407.183594 516.257812 409.757812 515.535156 412.195312 Z M 621.457031 234.285156 L 603.75 229.859375 C 602.597656 226.476562 601.226562 223.171875 599.652344 219.964844 L 609.042969 204.3125 C 611.289062 200.566406 610.699219 195.769531 607.609375 192.683594 L 588.375 173.445312 C 585.28125 170.355469 580.488281 169.765625 576.742188 172.011719 L 561.09375 181.402344 C 557.886719 179.828125 554.578125 178.457031 551.195312 177.304688 L 546.769531 159.597656 C 545.710938 155.359375 541.902344 152.386719 537.53125 152.386719 L 514.222656 152.386719 L 487.992188 145.828125 C 485.199219 136.738281 481.546875 127.933594 477.097656 119.527344 L 497.382812 85.71875 C 499.632812 81.972656 499.039062 77.179688 495.949219 74.089844 L 459.398438 37.539062 C 456.308594 34.449219 451.515625 33.859375 447.765625 36.105469 L 413.957031 56.390625 C 405.558594 51.9375 396.746094 48.289062 387.660156 45.492188 L 378.097656 7.246094 C 377.039062 3.007812 373.230469 0.0351562 368.859375 0.0351562 L 317.167969 0.0351562 C 312.800781 0.0351562 308.992188 3.007812 307.933594 7.246094 L 298.371094 45.492188 C 289.28125 48.289062 280.472656 51.9375 272.070312 56.390625 L 238.257812 36.105469 C 234.507812 33.855469 229.714844 34.449219 226.625 37.539062 L 190.074219 74.085938 C 186.984375 77.175781 186.394531 81.972656 188.644531 85.71875 L 208.929688 119.527344 C 204.476562 127.929688 200.828125 136.738281 198.03125 145.828125 L 171.804688 152.382812 L 148.492188 152.382812 C 144.121094 152.382812 140.3125 155.359375 139.253906 159.597656 L 134.828125 177.300781 C 131.445312 178.457031 128.140625 179.828125 124.933594 181.402344 L 109.285156 172.011719 C 105.535156 169.761719 100.738281 170.355469 97.652344 173.445312 L 78.414062 192.679688 C 75.324219 195.769531 74.734375 200.566406 76.984375 204.3125 L 86.375 219.964844 C 84.796875 223.167969 83.425781 226.476562 82.273438 229.859375 L 64.566406 234.285156 C 60.328125 235.34375 57.355469 239.152344 57.355469 243.523438 L 57.355469 270.726562 C 57.355469 275.097656 60.328125 278.90625 64.566406 279.964844 L 82.273438 284.390625 C 83.425781 287.773438 84.796875 291.078125 86.371094 294.285156 L 76.980469 309.9375 C 74.734375 313.683594 75.324219 318.480469 78.414062 321.566406 L 97.648438 340.804688 C 100.742188 343.894531 105.535156 344.488281 109.28125 342.238281 L 124.929688 332.847656 C 128.140625 334.421875 131.445312 335.792969 134.828125 336.945312 L 139.253906 354.652344 C 140.3125 358.890625 144.121094 361.863281 148.492188 361.863281 L 175.695312 361.863281 C 180.066406 361.863281 183.875 358.890625 184.933594 354.652344 L 189.359375 336.945312 C 192.742188 335.792969 196.046875 334.421875 199.257812 332.847656 L 214.90625 342.238281 C 218.132812 344.175781 222.128906 343.992188 225.152344 341.933594 L 226.625 343.40625 C 229.714844 346.496094 234.511719 347.085938 238.257812 344.835938 L 272.066406 324.550781 C 280.46875 329.003906 289.277344 332.65625 298.363281 335.449219 L 307.925781 373.695312 C 308.988281 377.933594 312.796875 380.910156 317.164062 380.910156 L 368.855469 380.910156 C 373.222656 380.910156 377.03125 377.933594 378.09375 373.695312 L 387.652344 335.449219 C 396.742188 332.65625 405.550781 329.003906 413.953125 324.550781 L 447.761719 344.835938 C 451.511719 347.085938 456.304688 346.496094 459.394531 343.40625 L 460.863281 341.933594 C 463.890625 343.992188 467.886719 344.175781 471.113281 342.238281 L 486.761719 332.847656 C 489.96875 334.421875 493.277344 335.792969 496.65625 336.945312 L 501.085938 354.652344 C 502.144531 358.890625 505.953125 361.863281 510.320312 361.863281 L 537.527344 361.863281 C 541.894531 361.863281 545.703125 358.890625 546.765625 354.652344 L 551.191406 336.945312 C 554.574219 335.792969 557.878906 334.421875 561.085938 332.847656 L 576.734375 342.238281 C 580.480469 344.484375 585.277344 343.894531 588.367188 340.804688 L 607.605469 321.566406 C 610.695312 318.476562 611.285156 313.683594 609.035156 309.9375 L 599.644531 294.285156 C 601.222656 291.078125 602.589844 287.773438 603.746094 284.390625 L 621.449219 279.964844 C 625.691406 278.90625 628.664062 275.097656 628.664062 270.726562 L 628.664062 243.523438 C 628.667969 239.152344 625.695312 235.34375 621.457031 234.285156 Z M 485.839844 257.125 C 485.839844 248.257812 488.894531 240.097656 493.996094 233.617188 L 526.238281 225.554688 C 529.195312 224.816406 531.535156 222.738281 532.679688 220.0625 C 549.472656 224.03125 562.015625 239.136719 562.015625 257.125 C 562.015625 278.128906 544.929688 295.214844 523.929688 295.214844 C 502.925781 295.214844 485.839844 278.128906 485.839844 257.125 Z M 191.988281 233.605469 C 197.109375 240.082031 200.183594 248.246094 200.183594 257.125 C 200.183594 278.128906 183.097656 295.214844 162.09375 295.214844 C 141.09375 295.214844 124.007812 278.128906 124.007812 257.125 C 124.007812 239.136719 136.550781 224.03125 153.34375 220.0625 C 154.488281 222.734375 156.828125 224.816406 159.785156 225.554688 Z M 194.761719 313.671875 C 189.8125 316.539062 184.5 318.738281 178.976562 320.210938 C 175.628906 321.105469 173.03125 323.742188 172.195312 327.105469 L 168.265625 342.824219 L 155.925781 342.824219 L 151.996094 327.105469 C 151.15625 323.742188 148.558594 321.105469 145.214844 320.210938 C 139.6875 318.738281 134.378906 316.539062 129.429688 313.671875 C 126.429688 311.933594 122.726562 311.960938 119.757812 313.746094 L 105.859375 322.085938 L 97.136719 313.359375 L 105.472656 299.464844 C 107.257812 296.496094 107.285156 292.789062 105.546875 289.792969 C 102.683594 284.84375 100.480469 279.535156 99.007812 274.003906 C 98.113281 270.660156 95.476562 268.0625 92.117188 267.222656 L 76.398438 263.292969 L 76.398438 250.957031 L 92.117188 247.027344 C 95.476562 246.1875 98.113281 243.59375 99.007812 240.246094 C 100.484375 234.71875 102.683594 229.40625 105.550781 224.460938 C 107.285156 221.460938 107.257812 217.757812 105.476562 214.789062 L 97.136719 200.890625 L 105.859375 192.167969 L 119.757812 200.507812 C 122.726562 202.289062 126.433594 202.316406 129.429688 200.582031 C 134.378906 197.714844 139.6875 195.515625 145.214844 194.039062 C 148.5625 193.148438 151.160156 190.507812 151.996094 187.148438 L 152.574219 184.84375 L 152.574219 200.804688 C 125.589844 205.351562 104.964844 228.867188 104.964844 257.125 C 104.964844 288.628906 130.59375 314.257812 162.09375 314.257812 C 172.269531 314.257812 181.824219 311.570312 190.109375 306.890625 L 196.21875 313 C 195.722656 313.1875 195.230469 313.398438 194.761719 313.671875 Z M 409.375 305.324219 C 399.316406 311.152344 388.523438 315.621094 377.296875 318.617188 C 373.949219 319.511719 371.351562 322.148438 370.511719 325.507812 L 361.421875 361.867188 L 324.601562 361.867188 L 315.511719 325.507812 C 314.671875 322.148438 312.074219 319.511719 308.726562 318.617188 C 297.5 315.621094 286.707031 311.152344 276.648438 305.324219 C 273.652344 303.589844 269.949219 303.617188 266.976562 305.398438 L 234.835938 324.683594 L 208.796875 298.648438 L 228.085938 266.503906 C 229.867188 263.535156 229.894531 259.832031 228.160156 256.835938 C 222.332031 246.777344 217.863281 235.984375 214.867188 224.757812 C 213.972656 221.410156 211.335938 218.8125 207.976562 217.972656 L 171.617188 208.882812 L 171.617188 172.058594 L 207.976562 162.96875 C 211.335938 162.128906 213.972656 159.535156 214.867188 156.1875 C 217.863281 144.960938 222.335938 134.167969 228.160156 124.109375 C 229.894531 121.113281 229.867188 117.410156 228.085938 114.4375 L 208.800781 82.296875 L 234.835938 56.257812 L 266.980469 75.542969 C 269.949219 77.324219 273.652344 77.355469 276.652344 75.617188 C 286.707031 69.792969 297.5 65.320312 308.730469 62.324219 C 312.074219 61.433594 314.671875 58.792969 315.511719 55.433594 L 324.601562 19.078125 L 361.421875 19.078125 L 370.511719 55.4375 C 371.351562 58.792969 373.949219 61.433594 377.296875 62.328125 C 388.523438 65.320312 399.316406 69.796875 409.375 75.621094 C 412.375 77.355469 416.074219 77.328125 419.046875 75.546875 L 451.1875 56.257812 L 477.226562 82.296875 L 457.9375 114.441406 C 456.15625 117.410156 456.128906 121.113281 457.867188 124.109375 C 463.691406 134.167969 468.160156 144.960938 471.15625 156.1875 C 472.050781 159.535156 474.6875 162.132812 478.046875 162.972656 L 514.40625 172.0625 L 514.40625 208.882812 L 478.046875 217.972656 C 474.6875 218.8125 472.050781 221.410156 471.15625 224.757812 C 468.160156 235.984375 463.6875 246.777344 457.863281 256.835938 C 456.128906 259.832031 456.15625 263.535156 457.9375 266.507812 L 477.222656 298.648438 L 451.1875 324.6875 L 419.042969 305.402344 C 416.074219 303.617188 412.371094 303.589844 409.375 305.324219 Z M 609.625 263.292969 L 593.90625 267.222656 C 590.546875 268.0625 587.910156 270.660156 587.015625 274.003906 C 585.542969 279.535156 583.339844 284.84375 580.472656 289.792969 C 578.738281 292.789062 578.765625 296.496094 580.546875 299.464844 L 588.886719 313.359375 L 580.164062 322.085938 L 566.265625 313.746094 C 563.296875 311.964844 559.59375 311.933594 556.59375 313.671875 C 551.644531 316.539062 546.335938 318.738281 540.808594 320.210938 C 537.460938 321.105469 534.867188 323.742188 534.027344 327.105469 L 530.097656 342.824219 L 517.761719 342.824219 L 513.832031 327.105469 C 512.992188 323.742188 510.394531 321.105469 507.046875 320.210938 C 501.523438 318.738281 496.210938 316.539062 491.261719 313.671875 C 490.792969 313.398438 490.304688 313.1875 489.804688 313 L 495.914062 306.894531 C 504.195312 311.578125 513.753906 314.257812 523.929688 314.257812 C 555.433594 314.257812 581.058594 288.628906 581.058594 257.125 C 581.058594 228.867188 560.433594 205.351562 533.449219 200.800781 L 533.449219 184.839844 L 534.027344 187.148438 C 534.867188 190.507812 537.464844 193.148438 540.808594 194.039062 C 546.335938 195.515625 551.644531 197.714844 556.59375 200.582031 C 559.59375 202.316406 563.292969 202.289062 566.265625 200.507812 L 580.164062 192.167969 L 588.886719 200.890625 L 580.546875 214.789062 C 578.765625 217.757812 578.738281 221.460938 580.472656 224.457031 C 583.339844 229.40625 585.542969 234.71875 587.015625 240.246094 C 587.910156 243.589844 590.546875 246.1875 593.90625 247.027344 L 609.625 250.957031 Z M 343.011719 76.210938 C 280.007812 76.210938 228.75 127.46875 228.75 190.472656 C 228.75 253.476562 280.007812 304.734375 343.011719 304.734375 C 406.015625 304.734375 457.273438 253.476562 457.273438 190.472656 C 457.273438 127.46875 406.015625 76.210938 343.011719 76.210938 Z M 333.488281 285.214844 L 333.488281 215.0625 C 333.488281 211.277344 331.25 207.851562 327.78125 206.335938 C 313.894531 200.269531 304.925781 186.566406 304.925781 171.429688 C 304.925781 161.96875 308.429688 153.066406 314.445312 146.242188 L 314.445312 171.429688 C 314.445312 176.6875 318.710938 180.949219 323.96875 180.949219 L 362.054688 180.949219 C 367.3125 180.949219 371.578125 176.6875 371.578125 171.429688 L 371.578125 146.242188 C 377.59375 153.066406 381.097656 161.96875 381.097656 171.429688 C 381.097656 186.566406 372.128906 200.269531 358.242188 206.339844 C 354.773438 207.851562 352.535156 211.277344 352.535156 215.0625 L 352.535156 285.214844 C 349.402344 285.527344 346.226562 285.691406 343.011719 285.691406 C 339.796875 285.691406 336.621094 285.527344 333.488281 285.214844 Z M 371.578125 281.308594 L 371.578125 220.90625 C 389.113281 210.78125 400.144531 191.988281 400.144531 171.429688 C 400.144531 148.71875 386.6875 128.167969 365.867188 119.070312 C 362.921875 117.78125 359.527344 118.066406 356.84375 119.824219 C 354.152344 121.585938 352.535156 124.582031 352.535156 127.792969 L 352.535156 161.90625 L 333.488281 161.90625 L 333.488281 127.792969 C 333.488281 124.582031 331.871094 121.585938 329.179688 119.828125 C 326.496094 118.066406 323.101562 117.78125 320.15625 119.070312 C 299.335938 128.167969 285.878906 148.71875 285.878906 171.429688 C 285.878906 191.988281 296.910156 210.78125 314.445312 220.90625 L 314.445312 281.308594 C 275.855469 269.144531 247.792969 233.027344 247.792969 190.472656 C 247.792969 137.96875 290.507812 95.253906 343.011719 95.253906 C 395.515625 95.253906 438.230469 137.96875 438.230469 190.472656 C 438.230469 233.027344 410.167969 269.144531 371.578125 281.308594 Z M 371.578125 281.308594 "/></clipPath><linearGradient x1="10.699499" gradientTransform="matrix(1.19024,0,0,1.19024,38.310387,-19.009955)" y1="485.782484" x2="488.241119" gradientUnits="userSpaceOnUse" y2="8.242102" id="3b435bc807"><stop style="stop-color:#020159;stop-opacity:1;" offset="0"/><stop style="stop-color:#020159;stop-opacity:1;" offset="0.015625"/><stop style="stop-color:#03025a;stop-opacity:1;" offset="0.0195312"/><stop style="stop-color:#03035a;stop-opacity:1;" offset="0.0234375"/><stop style="stop-color:#04045b;stop-opacity:1;" offset="0.0273437"/><stop style="stop-color:#04045b;stop-opacity:1;" offset="0.03125"/><stop style="stop-color:#05055c;stop-opacity:1;" offset="0.0351562"/><stop style="stop-color:#06065c;stop-opacity:1;" offset="0.0390625"/><stop style="stop-color:#06075d;stop-opacity:1;" offset="0.0429687"/><stop style="stop-color:#07085d;stop-opacity:1;" offset="0.046875"/><stop style="stop-color:#07085e;stop-opacity:1;" offset="0.0507812"/><stop style="stop-color:#08095e;stop-opacity:1;" offset="0.0546875"/><stop style="stop-color:#080a5e;stop-opacity:1;" offset="0.0585937"/><stop style="stop-color:#090b5f;stop-opacity:1;" offset="0.0625"/><stop style="stop-color:#090c5f;stop-opacity:1;" offset="0.0664062"/><stop style="stop-color:#0a0c60;stop-opacity:1;" offset="0.0703125"/><stop style="stop-color:#0b0d60;stop-opacity:1;" offset="0.0742187"/><stop style="stop-color:#0b0e61;stop-opacity:1;" offset="0.078125"/><stop style="stop-color:#0c0f61;stop-opacity:1;" offset="0.0820312"/><stop style="stop-color:#0c1062;stop-opacity:1;" offset="0.0859375"/><stop style="stop-color:#0d1162;stop-opacity:1;" offset="0.0898438"/><stop style="stop-color:#0d1163;stop-opacity:1;" offset="0.09375"/><stop style="stop-color:#0e1263;stop-opacity:1;" offset="0.0976562"/><stop style="stop-color:#0f1364;stop-opacity:1;" offset="0.101562"/><stop style="stop-color:#0f1464;stop-opacity:1;" offset="0.105469"/><stop style="stop-color:#101565;stop-opacity:1;" offset="0.109375"/><stop style="stop-color:#101565;stop-opacity:1;" offset="0.113281"/><stop style="stop-color:#111666;stop-opacity:1;" offset="0.117187"/><stop style="stop-color:#111766;stop-opacity:1;" offset="0.121094"/><stop style="stop-color:#121867;stop-opacity:1;" offset="0.125"/><stop style="stop-color:#131967;stop-opacity:1;" offset="0.128906"/><stop style="stop-color:#131968;stop-opacity:1;" offset="0.132813"/><stop style="stop-color:#141a68;stop-opacity:1;" offset="0.136719"/><stop style="stop-color:#141b69;stop-opacity:1;" offset="0.140625"/><stop style="stop-color:#151c69;stop-opacity:1;" offset="0.144531"/><stop style="stop-color:#151d6a;stop-opacity:1;" offset="0.148438"/><stop style="stop-color:#161d6a;stop-opacity:1;" offset="0.152344"/><stop style="stop-color:#171e6b;stop-opacity:1;" offset="0.15625"/><stop style="stop-color:#171f6b;stop-opacity:1;" offset="0.160156"/><stop style="stop-color:#18206c;stop-opacity:1;" offset="0.164062"/><stop style="stop-color:#18216c;stop-opacity:1;" offset="0.167969"/><stop style="stop-color:#19216d;stop-opacity:1;" offset="0.171875"/><stop style="stop-color:#19226d;stop-opacity:1;" offset="0.175781"/><stop style="stop-color:#1a236e;stop-opacity:1;" offset="0.179688"/><stop style="stop-color:#1a246e;stop-opacity:1;" offset="0.183594"/><stop style="stop-color:#1b256f;stop-opacity:1;" offset="0.1875"/><stop style="stop-color:#1c266f;stop-opacity:1;" offset="0.191406"/><stop style="stop-color:#1c2670;stop-opacity:1;" offset="0.195312"/><stop style="stop-color:#1d2770;stop-opacity:1;" offset="0.199219"/><stop style="stop-color:#1d2871;stop-opacity:1;" offset="0.203125"/><stop style="stop-color:#1e2971;stop-opacity:1;" offset="0.207031"/><stop style="stop-color:#1e2a72;stop-opacity:1;" offset="0.210938"/><stop style="stop-color:#1f2a72;stop-opacity:1;" offset="0.214844"/><stop style="stop-color:#202b73;stop-opacity:1;" offset="0.21875"/><stop style="stop-color:#202c73;stop-opacity:1;" offset="0.222656"/><stop style="stop-color:#212d74;stop-opacity:1;" offset="0.226562"/><stop style="stop-color:#212e74;stop-opacity:1;" offset="0.230469"/><stop style="stop-color:#222e75;stop-opacity:1;" offset="0.234375"/><stop style="stop-color:#222f75;stop-opacity:1;" offset="0.238281"/><stop style="stop-color:#233076;stop-opacity:1;" offset="0.242188"/><stop style="stop-color:#243176;stop-opacity:1;" offset="0.246094"/><stop style="stop-color:#243277;stop-opacity:1;" offset="0.25"/><stop style="stop-color:#253277;stop-opacity:1;" offset="0.253906"/><stop style="stop-color:#253378;stop-opacity:1;" offset="0.257812"/><stop style="stop-color:#263478;stop-opacity:1;" offset="0.261719"/><stop style="stop-color:#263579;stop-opacity:1;" offset="0.265625"/><stop style="stop-color:#273679;stop-opacity:1;" offset="0.269531"/><stop style="stop-color:#28377a;stop-opacity:1;" offset="0.273438"/><stop style="stop-color:#28377a;stop-opacity:1;" offset="0.277344"/><stop style="stop-color:#29387b;stop-opacity:1;" offset="0.28125"/><stop style="stop-color:#29397b;stop-opacity:1;" offset="0.285156"/><stop style="stop-color:#2a3a7c;stop-opacity:1;" offset="0.289062"/><stop style="stop-color:#2a3b7c;stop-opacity:1;" offset="0.292969"/><stop style="stop-color:#2b3b7d;stop-opacity:1;" offset="0.296875"/><stop style="stop-color:#2c3c7d;stop-opacity:1;" offset="0.300781"/><stop style="stop-color:#2c3d7e;stop-opacity:1;" offset="0.304688"/><stop style="stop-color:#2d3e7e;stop-opacity:1;" offset="0.308594"/><stop style="stop-color:#2d3f7f;stop-opacity:1;" offset="0.3125"/><stop style="stop-color:#2e3f7f;stop-opacity:1;" offset="0.316406"/><stop style="stop-color:#2e4080;stop-opacity:1;" offset="0.320312"/><stop style="stop-color:#2f4180;stop-opacity:1;" offset="0.324219"/><stop style="stop-color:#2f4281;stop-opacity:1;" offset="0.328125"/><stop style="stop-color:#304381;stop-opacity:1;" offset="0.332031"/><stop style="stop-color:#314382;stop-opacity:1;" offset="0.335938"/><stop style="stop-color:#314482;stop-opacity:1;" offset="0.339844"/><stop style="stop-color:#324583;stop-opacity:1;" offset="0.34375"/><stop style="stop-color:#324683;stop-opacity:1;" offset="0.347656"/><stop style="stop-color:#334783;stop-opacity:1;" offset="0.351562"/><stop style="stop-color:#334884;stop-opacity:1;" offset="0.355469"/><stop style="stop-color:#344884;stop-opacity:1;" offset="0.359375"/><stop style="stop-color:#354985;stop-opacity:1;" offset="0.363281"/><stop style="stop-color:#354a85;stop-opacity:1;" offset="0.367188"/><stop style="stop-color:#364b86;stop-opacity:1;" offset="0.371094"/><stop style="stop-color:#364c86;stop-opacity:1;" offset="0.375"/><stop style="stop-color:#374c87;stop-opacity:1;" offset="0.378906"/><stop style="stop-color:#374d87;stop-opacity:1;" offset="0.382812"/><stop style="stop-color:#384e88;stop-opacity:1;" offset="0.386719"/><stop style="stop-color:#394f88;stop-opacity:1;" offset="0.390625"/><stop style="stop-color:#395089;stop-opacity:1;" offset="0.394531"/><stop style="stop-color:#3a5089;stop-opacity:1;" offset="0.398438"/><stop style="stop-color:#3a518a;stop-opacity:1;" offset="0.402344"/><stop style="stop-color:#3b528a;stop-opacity:1;" offset="0.40625"/><stop style="stop-color:#3b538b;stop-opacity:1;" offset="0.410156"/><stop style="stop-color:#3c548b;stop-opacity:1;" offset="0.414062"/><stop style="stop-color:#3d548c;stop-opacity:1;" offset="0.417969"/><stop style="stop-color:#3d558c;stop-opacity:1;" offset="0.421875"/><stop style="stop-color:#3e568d;stop-opacity:1;" offset="0.425781"/><stop style="stop-color:#3e578d;stop-opacity:1;" offset="0.429687"/><stop style="stop-color:#3f588e;stop-opacity:1;" offset="0.433594"/><stop style="stop-color:#3f588e;stop-opacity:1;" offset="0.4375"/><stop style="stop-color:#3f598f;stop-opacity:1;" offset="0.441406"/><stop style="stop-color:#3f5990;stop-opacity:1;" offset="0.445312"/><stop style="stop-color:#3f5991;stop-opacity:1;" offset="0.449219"/><stop style="stop-color:#3f5a91;stop-opacity:1;" offset="0.453125"/><stop style="stop-color:#3f5a92;stop-opacity:1;" offset="0.457031"/><stop style="stop-color:#405a93;stop-opacity:1;" offset="0.460937"/><stop style="stop-color:#405b94;stop-opacity:1;" offset="0.464844"/><stop style="stop-color:#405b94;stop-opacity:1;" offset="0.46875"/><stop style="stop-color:#405c95;stop-opacity:1;" offset="0.472656"/><stop style="stop-color:#405c96;stop-opacity:1;" offset="0.476562"/><stop style="stop-color:#405c97;stop-opacity:1;" offset="0.480469"/><stop style="stop-color:#405d97;stop-opacity:1;" offset="0.484375"/><stop style="stop-color:#405d98;stop-opacity:1;" offset="0.488281"/><stop style="stop-color:#405d99;stop-opacity:1;" offset="0.492188"/><stop style="stop-color:#405e99;stop-opacity:1;" offset="0.496094"/><stop style="stop-color:#405e9a;stop-opacity:1;" offset="0.5"/><stop style="stop-color:#405e9b;stop-opacity:1;" offset="0.503906"/><stop style="stop-color:#405f9c;stop-opacity:1;" offset="0.507812"/><stop style="stop-color:#415f9c;stop-opacity:1;" offset="0.511719"/><stop style="stop-color:#41609d;stop-opacity:1;" offset="0.515625"/><stop style="stop-color:#41609e;stop-opacity:1;" offset="0.519531"/><stop style="stop-color:#41609f;stop-opacity:1;" offset="0.523438"/><stop style="stop-color:#41619f;stop-opacity:1;" offset="0.527344"/><stop style="stop-color:#4161a0;stop-opacity:1;" offset="0.53125"/><stop style="stop-color:#4161a1;stop-opacity:1;" offset="0.535156"/><stop style="stop-color:#4162a2;stop-opacity:1;" offset="0.539063"/><stop style="stop-color:#4162a2;stop-opacity:1;" offset="0.542969"/><stop style="stop-color:#4162a3;stop-opacity:1;" offset="0.546875"/><stop style="stop-color:#4163a4;stop-opacity:1;" offset="0.550781"/><stop style="stop-color:#4163a4;stop-opacity:1;" offset="0.554688"/><stop style="stop-color:#4264a5;stop-opacity:1;" offset="0.558594"/><stop style="stop-color:#4264a6;stop-opacity:1;" offset="0.5625"/><stop style="stop-color:#4264a7;stop-opacity:1;" offset="0.566406"/><stop style="stop-color:#4265a7;stop-opacity:1;" offset="0.570313"/><stop style="stop-color:#4265a8;stop-opacity:1;" offset="0.574219"/><stop style="stop-color:#4265a9;stop-opacity:1;" offset="0.578125"/><stop style="stop-color:#4266aa;stop-opacity:1;" offset="0.582031"/><stop style="stop-color:#4266aa;stop-opacity:1;" offset="0.585938"/><stop style="stop-color:#4267ab;stop-opacity:1;" offset="0.589844"/><stop style="stop-color:#4267ac;stop-opacity:1;" offset="0.59375"/><stop style="stop-color:#4267ad;stop-opacity:1;" offset="0.597656"/><stop style="stop-color:#4268ad;stop-opacity:1;" offset="0.601562"/><stop style="stop-color:#4368ae;stop-opacity:1;" offset="0.605469"/><stop style="stop-color:#4368af;stop-opacity:1;" offset="0.609375"/><stop style="stop-color:#4369af;stop-opacity:1;" offset="0.613281"/><stop style="stop-color:#4369b0;stop-opacity:1;" offset="0.617187"/><stop style="stop-color:#4369b1;stop-opacity:1;" offset="0.621094"/><stop style="stop-color:#436ab2;stop-opacity:1;" offset="0.625"/><stop style="stop-color:#436ab2;stop-opacity:1;" offset="0.628906"/><stop style="stop-color:#436bb3;stop-opacity:1;" offset="0.632812"/><stop style="stop-color:#436bb4;stop-opacity:1;" offset="0.636719"/><stop style="stop-color:#436bb5;stop-opacity:1;" offset="0.640625"/><stop style="stop-color:#436cb5;stop-opacity:1;" offset="0.644531"/><stop style="stop-color:#436cb6;stop-opacity:1;" offset="0.648437"/><stop style="stop-color:#436cb7;stop-opacity:1;" offset="0.652344"/><stop style="stop-color:#446db8;stop-opacity:1;" offset="0.65625"/><stop style="stop-color:#446db8;stop-opacity:1;" offset="0.660156"/><stop style="stop-color:#446db9;stop-opacity:1;" offset="0.664062"/><stop style="stop-color:#446eba;stop-opacity:1;" offset="0.667969"/><stop style="stop-color:#446eba;stop-opacity:1;" offset="0.671875"/><stop style="stop-color:#446fbb;stop-opacity:1;" offset="0.675781"/><stop style="stop-color:#446fbc;stop-opacity:1;" offset="0.679688"/><stop style="stop-color:#446fbd;stop-opacity:1;" offset="0.683594"/><stop style="stop-color:#4470bd;stop-opacity:1;" offset="0.6875"/><stop style="stop-color:#4470be;stop-opacity:1;" offset="0.691406"/><stop style="stop-color:#4470bf;stop-opacity:1;" offset="0.695312"/><stop style="stop-color:#4471c0;stop-opacity:1;" offset="0.699219"/><stop style="stop-color:#4571c0;stop-opacity:1;" offset="0.703125"/><stop style="stop-color:#4572c1;stop-opacity:1;" offset="0.707031"/><stop style="stop-color:#4572c2;stop-opacity:1;" offset="0.710938"/><stop style="stop-color:#4572c3;stop-opacity:1;" offset="0.714844"/><stop style="stop-color:#4573c3;stop-opacity:1;" offset="0.71875"/><stop style="stop-color:#4573c4;stop-opacity:1;" offset="0.722656"/><stop style="stop-color:#4573c5;stop-opacity:1;" offset="0.726563"/><stop style="stop-color:#4574c5;stop-opacity:1;" offset="0.730469"/><stop style="stop-color:#4574c6;stop-opacity:1;" offset="0.734375"/><stop style="stop-color:#4574c7;stop-opacity:1;" offset="0.738281"/><stop style="stop-color:#4575c8;stop-opacity:1;" offset="0.742188"/><stop style="stop-color:#4575c8;stop-opacity:1;" offset="0.746094"/><stop style="stop-color:#4576c9;stop-opacity:1;" offset="0.75"/><stop style="stop-color:#4676ca;stop-opacity:1;" offset="0.753906"/><stop style="stop-color:#4676cb;stop-opacity:1;" offset="0.757813"/><stop style="stop-color:#4677cb;stop-opacity:1;" offset="0.761719"/><stop style="stop-color:#4677cc;stop-opacity:1;" offset="0.765625"/><stop style="stop-color:#4677cd;stop-opacity:1;" offset="0.769531"/><stop style="stop-color:#4678ce;stop-opacity:1;" offset="0.773438"/><stop style="stop-color:#4678ce;stop-opacity:1;" offset="0.777344"/><stop style="stop-color:#4678cf;stop-opacity:1;" offset="0.78125"/><stop style="stop-color:#4679d0;stop-opacity:1;" offset="0.785156"/><stop style="stop-color:#4679d0;stop-opacity:1;" offset="0.789062"/><stop style="stop-color:#467ad1;stop-opacity:1;" offset="0.792969"/><stop style="stop-color:#467ad2;stop-opacity:1;" offset="0.796875"/><stop style="stop-color:#477ad3;stop-opacity:1;" offset="0.800781"/><stop style="stop-color:#477bd3;stop-opacity:1;" offset="0.804688"/><stop style="stop-color:#477bd4;stop-opacity:1;" offset="0.808594"/><stop style="stop-color:#477bd5;stop-opacity:1;" offset="0.8125"/><stop style="stop-color:#477cd5;stop-opacity:1;" offset="0.816406"/><stop style="stop-color:#477cd6;stop-opacity:1;" offset="0.820312"/><stop style="stop-color:#477cd6;stop-opacity:1;" offset="0.828125"/><stop style="stop-color:#477cd6;stop-opacity:1;" offset="0.84375"/><stop style="stop-color:#477cd6;stop-opacity:1;" offset="0.875"/><stop style="stop-color:#477cd6;stop-opacity:1;" offset="1"/></linearGradient></defs><g id="ba8f681e51"><g clip-rule="nonzero" clip-path="url(#1399649685)"><g clip-rule="nonzero" clip-path="url(#0e3d8aa76b)"><path style=" stroke:none;fill-rule:nonzero;fill:url(#3b435bc807);" d="M 57.152344 0.0351562 L 57.152344 565.296875 L 628.667969 565.296875 L 628.667969 0.0351562 Z M 57.152344 0.0351562 "/></g></g></g></svg>