<svg xmlns="http://www.w3.org/2000/svg" xmlns:xlink="http://www.w3.org/1999/xlink" width="945" zoomAndPan="magnify" viewBox="0 0 708 574.08" height="756" preserveAspectRatio="xMidYMid meet" version="1.2"><defs><clipPath id="79bb4cef95"><path d="M 78.023438 6.769531 L 225 6.769531 L 225 154 L 78.023438 154 Z M 78.023438 6.769531 "/></clipPath><clipPath id="647c60325b"><path d="M 483 6.769531 L 630 6.769531 L 630 154 L 483 154 Z M 483 6.769531 "/></clipPath><clipPath id="77d3460f1c"><path d="M 483 412 L 630 412 L 630 558.871094 L 483 558.871094 Z M 483 412 "/></clipPath><clipPath id="23246656f9"><path d="M 78.023438 412 L 225 412 L 225 558.871094 L 78.023438 558.871094 Z M 78.023438 412 "/></clipPath></defs><g id="b6609a0428"><path style=" stroke:none;fill-rule:nonzero;fill:#020159;fill-opacity:1;" d="M 483.363281 308.617188 C 483.363281 299.105469 475.621094 291.371094 466.113281 291.371094 L 457.488281 291.371094 L 457.488281 274.121094 L 466.113281 274.121094 C 475.621094 274.121094 483.363281 266.386719 483.363281 256.871094 L 483.363281 187.878906 C 483.363281 178.367188 475.621094 170.628906 466.113281 170.628906 L 241.882812 170.628906 C 232.371094 170.628906 224.636719 178.367188 224.636719 187.878906 L 224.636719 256.871094 C 224.636719 266.386719 232.371094 274.121094 241.882812 274.121094 L 250.507812 274.121094 L 250.507812 291.371094 L 241.882812 291.371094 C 232.371094 291.371094 224.636719 299.105469 224.636719 308.617188 L 224.636719 377.613281 C 224.636719 387.125 232.371094 394.859375 241.882812 394.859375 L 466.113281 394.859375 C 475.621094 394.859375 483.363281 387.125 483.363281 377.613281 Z M 241.882812 187.878906 L 466.113281 187.878906 L 466.121094 256.871094 L 241.882812 256.871094 Z M 267.757812 274.121094 L 440.242188 274.121094 L 440.242188 291.371094 L 267.757812 291.371094 Z M 241.882812 377.613281 L 241.882812 308.617188 L 466.113281 308.617188 L 466.121094 377.613281 Z M 241.882812 377.613281 "/><path style=" stroke:none;fill-rule:nonzero;fill:#020159;fill-opacity:1;" d="M 276.382812 231 L 328.125 231 C 332.890625 231 336.75 227.136719 336.75 222.375 C 336.75 217.613281 332.890625 213.75 328.125 213.75 L 276.382812 213.75 C 271.617188 213.75 267.757812 217.613281 267.757812 222.375 C 267.757812 227.136719 271.617188 231 276.382812 231 Z M 276.382812 231 "/><path style=" stroke:none;fill-rule:nonzero;fill:#020159;fill-opacity:1;" d="M 371.246094 222.375 C 371.246094 222.941406 371.191406 223.503906 371.082031 224.058594 C 370.972656 224.613281 370.808594 225.152344 370.589844 225.675781 C 370.375 226.199219 370.109375 226.695312 369.792969 227.167969 C 369.480469 227.636719 369.121094 228.074219 368.722656 228.472656 C 368.320312 228.875 367.886719 229.230469 367.414062 229.546875 C 366.945312 229.859375 366.445312 230.125 365.921875 230.34375 C 365.398438 230.558594 364.859375 230.722656 364.304688 230.835938 C 363.75 230.945312 363.191406 231 362.625 231 C 362.058594 231 361.496094 230.945312 360.941406 230.835938 C 360.386719 230.722656 359.847656 230.558594 359.324219 230.34375 C 358.800781 230.125 358.300781 229.859375 357.832031 229.546875 C 357.359375 229.230469 356.925781 228.875 356.523438 228.472656 C 356.125 228.074219 355.765625 227.636719 355.453125 227.167969 C 355.136719 226.695312 354.871094 226.199219 354.65625 225.675781 C 354.4375 225.152344 354.273438 224.613281 354.164062 224.058594 C 354.054688 223.503906 354 222.941406 354 222.375 C 354 221.808594 354.054688 221.25 354.164062 220.691406 C 354.273438 220.136719 354.4375 219.597656 354.65625 219.074219 C 354.871094 218.550781 355.136719 218.054688 355.453125 217.585938 C 355.765625 217.113281 356.125 216.679688 356.523438 216.277344 C 356.925781 215.878906 357.359375 215.519531 357.832031 215.203125 C 358.300781 214.890625 358.800781 214.625 359.324219 214.40625 C 359.847656 214.191406 360.386719 214.027344 360.941406 213.917969 C 361.496094 213.808594 362.058594 213.75 362.625 213.75 C 363.191406 213.75 363.75 213.808594 364.304688 213.917969 C 364.859375 214.027344 365.398438 214.191406 365.921875 214.40625 C 366.445312 214.625 366.945312 214.890625 367.414062 215.203125 C 367.886719 215.519531 368.320312 215.878906 368.722656 216.277344 C 369.121094 216.679688 369.480469 217.113281 369.792969 217.585938 C 370.109375 218.054688 370.375 218.550781 370.589844 219.074219 C 370.808594 219.597656 370.972656 220.136719 371.082031 220.691406 C 371.191406 221.25 371.246094 221.808594 371.246094 222.375 Z M 371.246094 222.375 "/><path style=" stroke:none;fill-rule:nonzero;fill:#020159;fill-opacity:1;" d="M 405.746094 222.375 C 405.746094 222.941406 405.6875 223.503906 405.578125 224.058594 C 405.46875 224.613281 405.304688 225.152344 405.085938 225.675781 C 404.871094 226.199219 404.605469 226.695312 404.289062 227.167969 C 403.976562 227.636719 403.617188 228.074219 403.21875 228.472656 C 402.816406 228.875 402.382812 229.230469 401.910156 229.546875 C 401.441406 229.859375 400.945312 230.125 400.421875 230.34375 C 399.898438 230.558594 399.359375 230.722656 398.800781 230.835938 C 398.246094 230.945312 397.6875 231 397.121094 231 C 396.554688 231 395.992188 230.945312 395.4375 230.835938 C 394.882812 230.722656 394.34375 230.558594 393.820312 230.34375 C 393.296875 230.125 392.800781 229.859375 392.328125 229.546875 C 391.859375 229.230469 391.421875 228.875 391.023438 228.472656 C 390.621094 228.074219 390.265625 227.636719 389.949219 227.167969 C 389.632812 226.695312 389.367188 226.199219 389.152344 225.675781 C 388.9375 225.152344 388.773438 224.613281 388.660156 224.058594 C 388.550781 223.503906 388.496094 222.941406 388.496094 222.375 C 388.496094 221.808594 388.550781 221.25 388.660156 220.691406 C 388.773438 220.136719 388.9375 219.597656 389.152344 219.074219 C 389.367188 218.550781 389.632812 218.054688 389.949219 217.585938 C 390.265625 217.113281 390.621094 216.679688 391.023438 216.277344 C 391.421875 215.878906 391.859375 215.519531 392.328125 215.203125 C 392.800781 214.890625 393.296875 214.625 393.820312 214.40625 C 394.34375 214.191406 394.882812 214.027344 395.4375 213.917969 C 395.992188 213.808594 396.554688 213.75 397.121094 213.75 C 397.6875 213.75 398.246094 213.808594 398.800781 213.917969 C 399.359375 214.027344 399.898438 214.191406 400.421875 214.40625 C 400.945312 214.625 401.441406 214.890625 401.910156 215.203125 C 402.382812 215.519531 402.816406 215.878906 403.21875 216.277344 C 403.617188 216.679688 403.976562 217.113281 404.289062 217.585938 C 404.605469 218.054688 404.871094 218.550781 405.085938 219.074219 C 405.304688 219.597656 405.46875 220.136719 405.578125 220.691406 C 405.6875 221.25 405.746094 221.808594 405.746094 222.375 Z M 405.746094 222.375 "/><path style=" stroke:none;fill-rule:nonzero;fill:#020159;fill-opacity:1;" d="M 328.125 334.492188 L 276.382812 334.492188 C 271.617188 334.492188 267.757812 338.351562 267.757812 343.113281 C 267.757812 347.878906 271.617188 351.738281 276.382812 351.738281 L 328.125 351.738281 C 332.890625 351.738281 336.75 347.878906 336.75 343.113281 C 336.75 338.351562 332.890625 334.492188 328.125 334.492188 Z M 328.125 334.492188 "/><path style=" stroke:none;fill-rule:nonzero;fill:#020159;fill-opacity:1;" d="M 371.246094 343.113281 C 371.246094 343.679688 371.191406 344.242188 371.082031 344.796875 C 370.972656 345.351562 370.808594 345.890625 370.589844 346.414062 C 370.375 346.9375 370.109375 347.433594 369.792969 347.90625 C 369.480469 348.378906 369.121094 348.8125 368.722656 349.214844 C 368.320312 349.613281 367.886719 349.972656 367.414062 350.285156 C 366.945312 350.601562 366.445312 350.867188 365.921875 351.082031 C 365.398438 351.300781 364.859375 351.464844 364.304688 351.574219 C 363.75 351.683594 363.191406 351.738281 362.625 351.738281 C 362.058594 351.738281 361.496094 351.683594 360.941406 351.574219 C 360.386719 351.464844 359.847656 351.300781 359.324219 351.082031 C 358.800781 350.867188 358.300781 350.601562 357.832031 350.285156 C 357.359375 349.972656 356.925781 349.613281 356.523438 349.214844 C 356.125 348.8125 355.765625 348.378906 355.453125 347.90625 C 355.136719 347.433594 354.871094 346.9375 354.65625 346.414062 C 354.4375 345.890625 354.273438 345.351562 354.164062 344.796875 C 354.054688 344.242188 354 343.679688 354 343.113281 C 354 342.546875 354.054688 341.988281 354.164062 341.433594 C 354.273438 340.878906 354.4375 340.335938 354.65625 339.816406 C 354.871094 339.292969 355.136719 338.792969 355.453125 338.324219 C 355.765625 337.851562 356.125 337.417969 356.523438 337.015625 C 356.925781 336.617188 357.359375 336.257812 357.832031 335.945312 C 358.300781 335.628906 358.800781 335.363281 359.324219 335.148438 C 359.847656 334.929688 360.386719 334.765625 360.941406 334.65625 C 361.496094 334.546875 362.058594 334.492188 362.625 334.492188 C 363.191406 334.492188 363.75 334.546875 364.304688 334.65625 C 364.859375 334.765625 365.398438 334.929688 365.921875 335.148438 C 366.445312 335.363281 366.945312 335.628906 367.414062 335.945312 C 367.886719 336.257812 368.320312 336.617188 368.722656 337.015625 C 369.121094 337.417969 369.480469 337.851562 369.792969 338.324219 C 370.109375 338.792969 370.375 339.292969 370.589844 339.816406 C 370.808594 340.335938 370.972656 340.878906 371.082031 341.433594 C 371.191406 341.988281 371.246094 342.546875 371.246094 343.113281 Z M 371.246094 343.113281 "/><path style=" stroke:none;fill-rule:nonzero;fill:#020159;fill-opacity:1;" d="M 405.746094 343.113281 C 405.746094 343.679688 405.6875 344.242188 405.578125 344.796875 C 405.46875 345.351562 405.304688 345.890625 405.085938 346.414062 C 404.871094 346.9375 404.605469 347.433594 404.289062 347.90625 C 403.976562 348.378906 403.617188 348.8125 403.21875 349.214844 C 402.816406 349.613281 402.382812 349.972656 401.910156 350.285156 C 401.441406 350.601562 400.945312 350.867188 400.421875 351.082031 C 399.898438 351.300781 399.359375 351.464844 398.800781 351.574219 C 398.246094 351.683594 397.6875 351.738281 397.121094 351.738281 C 396.554688 351.738281 395.992188 351.683594 395.4375 351.574219 C 394.882812 351.464844 394.34375 351.300781 393.820312 351.082031 C 393.296875 350.867188 392.800781 350.601562 392.328125 350.285156 C 391.859375 349.972656 391.421875 349.613281 391.023438 349.214844 C 390.621094 348.8125 390.265625 348.378906 389.949219 347.90625 C 389.632812 347.433594 389.367188 346.9375 389.152344 346.414062 C 388.9375 345.890625 388.773438 345.351562 388.660156 344.796875 C 388.550781 344.242188 388.496094 343.679688 388.496094 343.113281 C 388.496094 342.546875 388.550781 341.988281 388.660156 341.433594 C 388.773438 340.878906 388.9375 340.335938 389.152344 339.816406 C 389.367188 339.292969 389.632812 338.792969 389.949219 338.324219 C 390.265625 337.851562 390.621094 337.417969 391.023438 337.015625 C 391.421875 336.617188 391.859375 336.257812 392.328125 335.945312 C 392.800781 335.628906 393.296875 335.363281 393.820312 335.148438 C 394.34375 334.929688 394.882812 334.765625 395.4375 334.65625 C 395.992188 334.546875 396.554688 334.492188 397.121094 334.492188 C 397.6875 334.492188 398.246094 334.546875 398.800781 334.65625 C 399.359375 334.765625 399.898438 334.929688 400.421875 335.148438 C 400.945312 335.363281 401.441406 335.628906 401.910156 335.945312 C 402.382812 336.257812 402.816406 336.617188 403.21875 337.015625 C 403.617188 337.417969 403.976562 337.851562 404.289062 338.324219 C 404.605469 338.792969 404.871094 339.292969 405.085938 339.816406 C 405.304688 340.335938 405.46875 340.878906 405.578125 341.433594 C 405.6875 341.988281 405.746094 342.546875 405.746094 343.113281 Z M 405.746094 343.113281 "/><g clip-rule="nonzero" clip-path="url(#79bb4cef95)"><path style=" stroke:none;fill-rule:nonzero;fill:#020159;fill-opacity:1;" d="M 103.894531 110.261719 L 155.640625 110.261719 C 159.628906 110.261719 163.367188 109.277344 166.742188 107.660156 C 166.765625 107.679688 166.769531 107.710938 166.792969 107.734375 L 209.910156 150.851562 C 211.59375 152.535156 213.800781 153.378906 216.007812 153.378906 C 218.214844 153.378906 220.421875 152.535156 222.105469 150.851562 C 225.472656 147.480469 225.472656 142.023438 222.105469 138.65625 L 178.988281 95.539062 C 178.964844 95.515625 178.933594 95.511719 178.914062 95.488281 C 180.53125 92.113281 181.515625 88.378906 181.515625 84.386719 L 181.515625 32.644531 C 181.515625 18.375 169.910156 6.769531 155.640625 6.769531 L 103.894531 6.769531 C 89.628906 6.769531 78.023438 18.375 78.023438 32.644531 L 78.023438 84.386719 C 78.023438 98.65625 89.628906 110.261719 103.894531 110.261719 Z M 95.273438 32.644531 C 95.273438 27.886719 99.140625 24.019531 103.894531 24.019531 L 155.640625 24.019531 C 160.394531 24.019531 164.265625 27.886719 164.265625 32.644531 L 164.265625 84.386719 C 164.265625 89.140625 160.394531 93.011719 155.640625 93.011719 L 103.894531 93.011719 C 99.140625 93.011719 95.273438 89.140625 95.273438 84.386719 Z M 95.273438 32.644531 "/></g><g clip-rule="nonzero" clip-path="url(#647c60325b)"><path style=" stroke:none;fill-rule:nonzero;fill:#020159;fill-opacity:1;" d="M 604.101562 6.769531 L 552.355469 6.769531 C 538.089844 6.769531 526.484375 18.375 526.484375 32.644531 L 526.484375 84.386719 C 526.484375 88.378906 527.464844 92.113281 529.085938 95.488281 C 529.0625 95.511719 529.03125 95.515625 529.011719 95.539062 L 485.890625 138.660156 C 482.519531 142.027344 482.519531 147.488281 485.890625 150.855469 C 487.574219 152.539062 489.78125 153.382812 491.988281 153.382812 C 494.191406 153.382812 496.398438 152.539062 498.085938 150.855469 L 541.207031 107.734375 C 541.226562 107.710938 541.234375 107.679688 541.253906 107.660156 C 544.632812 109.277344 548.367188 110.261719 552.355469 110.261719 L 604.101562 110.261719 C 618.367188 110.261719 629.972656 98.65625 629.972656 84.386719 L 629.972656 32.644531 C 629.972656 18.375 618.367188 6.769531 604.101562 6.769531 Z M 612.726562 84.386719 C 612.726562 89.140625 608.859375 93.011719 604.101562 93.011719 L 552.355469 93.011719 C 547.597656 93.011719 543.730469 89.140625 543.730469 84.386719 L 543.730469 32.644531 C 543.730469 27.886719 547.597656 24.019531 552.355469 24.019531 L 604.101562 24.019531 C 608.859375 24.019531 612.726562 27.886719 612.726562 32.644531 Z M 612.726562 84.386719 "/></g><g clip-rule="nonzero" clip-path="url(#77d3460f1c)"><path style=" stroke:none;fill-rule:nonzero;fill:#020159;fill-opacity:1;" d="M 604.101562 455.230469 L 552.355469 455.230469 C 548.367188 455.230469 544.632812 456.210938 541.253906 457.832031 C 541.234375 457.808594 541.226562 457.777344 541.207031 457.757812 L 498.074219 414.632812 C 494.707031 411.261719 489.25 411.261719 485.878906 414.632812 C 482.511719 418 482.511719 423.457031 485.878906 426.828125 L 529.011719 469.953125 C 529.03125 469.972656 529.0625 469.980469 529.085938 470 C 527.464844 473.378906 526.484375 477.113281 526.484375 481.101562 L 526.484375 532.847656 C 526.484375 547.113281 538.089844 558.71875 552.355469 558.71875 L 604.101562 558.71875 C 618.367188 558.71875 629.972656 547.113281 629.972656 532.847656 L 629.972656 481.101562 C 629.972656 466.835938 618.367188 455.230469 604.101562 455.230469 Z M 612.726562 532.847656 C 612.726562 537.601562 608.859375 541.472656 604.101562 541.472656 L 552.355469 541.472656 C 547.597656 541.472656 543.730469 537.601562 543.730469 532.847656 L 543.730469 481.101562 C 543.730469 476.347656 547.597656 472.476562 552.355469 472.476562 L 604.101562 472.476562 C 608.859375 472.476562 612.726562 476.347656 612.726562 481.101562 Z M 612.726562 532.847656 "/></g><g clip-rule="nonzero" clip-path="url(#23246656f9)"><path style=" stroke:none;fill-rule:nonzero;fill:#020159;fill-opacity:1;" d="M 209.914062 414.636719 L 166.792969 457.757812 C 166.769531 457.777344 166.765625 457.808594 166.742188 457.832031 C 163.367188 456.210938 159.628906 455.230469 155.640625 455.230469 L 103.894531 455.230469 C 89.628906 455.230469 78.023438 466.835938 78.023438 481.101562 L 78.023438 532.847656 C 78.023438 547.113281 89.628906 558.71875 103.894531 558.71875 L 155.640625 558.71875 C 169.910156 558.71875 181.515625 547.113281 181.515625 532.847656 L 181.515625 481.101562 C 181.515625 477.113281 180.53125 473.378906 178.914062 470 C 178.9375 469.980469 178.964844 469.972656 178.988281 469.953125 L 222.109375 426.832031 C 225.476562 423.460938 225.476562 418.003906 222.109375 414.636719 C 218.738281 411.265625 213.28125 411.265625 209.914062 414.636719 Z M 164.265625 532.847656 C 164.265625 537.601562 160.394531 541.472656 155.640625 541.472656 L 103.894531 541.472656 C 99.140625 541.472656 95.273438 537.601562 95.273438 532.847656 L 95.273438 481.101562 C 95.273438 476.347656 99.140625 472.476562 103.894531 472.476562 L 155.640625 472.476562 C 160.394531 472.476562 164.265625 476.347656 164.265625 481.101562 Z M 164.265625 532.847656 "/></g><path style=" stroke:none;fill-rule:nonzero;fill:#020159;fill-opacity:1;" d="M 336.75 101.636719 L 345.375 101.636719 L 345.375 144.757812 C 345.375 149.519531 349.234375 153.382812 354 153.382812 C 358.761719 153.382812 362.625 149.519531 362.625 144.757812 L 362.625 101.636719 L 371.246094 101.636719 C 385.515625 101.636719 397.121094 90.03125 397.121094 75.765625 L 397.121094 41.265625 C 397.121094 27 385.515625 15.394531 371.246094 15.394531 L 336.75 15.394531 C 322.484375 15.394531 310.878906 27 310.878906 41.265625 L 310.878906 75.765625 C 310.878906 90.03125 322.484375 101.636719 336.75 101.636719 Z M 328.125 41.265625 C 328.125 36.511719 331.996094 32.644531 336.75 32.644531 L 371.246094 32.644531 C 376.007812 32.644531 379.871094 36.511719 379.871094 41.265625 L 379.871094 75.765625 C 379.871094 80.519531 376.007812 84.386719 371.246094 84.386719 L 336.75 84.386719 C 331.996094 84.386719 328.125 80.519531 328.125 75.765625 Z M 328.125 41.265625 "/><path style=" stroke:none;fill-rule:nonzero;fill:#020159;fill-opacity:1;" d="M 147.015625 239.625 L 112.519531 239.625 C 98.253906 239.625 86.648438 251.230469 86.648438 265.496094 L 86.648438 299.992188 C 86.648438 314.261719 98.253906 325.867188 112.519531 325.867188 L 147.015625 325.867188 C 161.285156 325.867188 172.890625 314.261719 172.890625 299.992188 L 172.890625 291.371094 L 198.757812 291.371094 C 203.519531 291.371094 207.382812 287.507812 207.382812 282.746094 C 207.382812 277.984375 203.519531 274.121094 198.757812 274.121094 L 172.890625 274.121094 L 172.890625 265.496094 C 172.890625 251.230469 161.285156 239.625 147.015625 239.625 Z M 155.640625 299.992188 C 155.640625 304.746094 151.773438 308.617188 147.015625 308.617188 L 112.519531 308.617188 C 107.765625 308.617188 103.894531 304.746094 103.894531 299.992188 L 103.894531 265.496094 C 103.894531 260.742188 107.765625 256.871094 112.519531 256.871094 L 147.015625 256.871094 C 151.773438 256.871094 155.640625 260.742188 155.640625 265.496094 Z M 155.640625 299.992188 "/><path style=" stroke:none;fill-rule:nonzero;fill:#020159;fill-opacity:1;" d="M 371.246094 463.855469 L 362.625 463.855469 L 362.625 420.734375 C 362.625 415.96875 358.761719 412.109375 354 412.109375 C 349.234375 412.109375 345.375 415.96875 345.375 420.734375 L 345.375 463.855469 L 336.75 463.855469 C 322.484375 463.855469 310.878906 475.460938 310.878906 489.726562 L 310.878906 524.222656 C 310.878906 538.492188 322.484375 550.097656 336.75 550.097656 L 371.246094 550.097656 C 385.515625 550.097656 397.121094 538.492188 397.121094 524.222656 L 397.121094 489.726562 C 397.121094 475.460938 385.515625 463.855469 371.246094 463.855469 Z M 379.871094 524.222656 C 379.871094 528.976562 376.007812 532.847656 371.246094 532.847656 L 336.75 532.847656 C 331.996094 532.847656 328.125 528.976562 328.125 524.222656 L 328.125 489.726562 C 328.125 484.972656 331.996094 481.101562 336.75 481.101562 L 371.246094 481.101562 C 376.007812 481.101562 379.871094 484.972656 379.871094 489.726562 Z M 379.871094 524.222656 "/><path style=" stroke:none;fill-rule:nonzero;fill:#020159;fill-opacity:1;" d="M 560.980469 325.867188 L 595.476562 325.867188 C 609.746094 325.867188 621.351562 314.261719 621.351562 299.992188 L 621.351562 265.496094 C 621.351562 251.230469 609.746094 239.625 595.476562 239.625 L 560.980469 239.625 C 546.714844 239.625 535.109375 251.230469 535.109375 265.496094 L 535.109375 274.121094 L 509.226562 274.121094 C 504.460938 274.121094 500.601562 277.984375 500.601562 282.746094 C 500.601562 287.507812 504.460938 291.371094 509.226562 291.371094 L 535.109375 291.371094 L 535.109375 299.992188 C 535.109375 314.261719 546.714844 325.867188 560.980469 325.867188 Z M 552.355469 265.496094 C 552.355469 260.742188 556.222656 256.871094 560.980469 256.871094 L 595.476562 256.871094 C 600.234375 256.871094 604.101562 260.742188 604.101562 265.496094 L 604.101562 299.992188 C 604.101562 304.746094 600.234375 308.617188 595.476562 308.617188 L 560.980469 308.617188 C 556.222656 308.617188 552.355469 304.746094 552.355469 299.992188 Z M 552.355469 265.496094 "/></g></svg>