<svg xmlns="http://www.w3.org/2000/svg" xmlns:xlink="http://www.w3.org/1999/xlink" width="945" zoomAndPan="magnify" viewBox="0 0 708 574.08" height="756" preserveAspectRatio="xMidYMid meet" version="1.2"><defs><clipPath id="5465312538"><path d="M 97 11.433594 L 612 11.433594 L 612 465 L 97 465 Z M 97 11.433594 "/></clipPath><clipPath id="3ebb41bf05"><path d="M 49.582031 382 L 658.539062 382 L 658.539062 553.808594 L 49.582031 553.808594 Z M 49.582031 382 "/></clipPath></defs><g id="d872d15860"><g clip-rule="nonzero" clip-path="url(#5465312538)"><path style=" stroke:none;fill-rule:nonzero;fill:#020159;fill-opacity:1;" d="M 97.171875 291.414062 C 97.171875 314.230469 115.710938 333.246094 139.003906 333.246094 C 139.953125 333.246094 140.90625 333.722656 141.382812 335.148438 C 145.183594 347.980469 150.414062 360.816406 157.066406 372.699219 C 157.542969 373.652344 157.542969 375.078125 156.59375 375.550781 C 140.429688 391.714844 140.429688 418.335938 156.59375 434.496094 L 187.015625 464.917969 L 183.210938 434.019531 L 169.902344 420.710938 C 160.871094 411.679688 160.871094 397.417969 169.902344 388.863281 C 176.558594 382.207031 177.984375 371.75 173.703125 363.667969 C 168 352.734375 163.246094 341.328125 159.445312 329.445312 C 156.59375 320.410156 148.511719 314.230469 139.003906 314.230469 C 126.644531 314.230469 116.1875 304.25 116.1875 291.414062 L 116.1875 246.257812 C 116.1875 233.898438 126.167969 223.441406 139.003906 223.441406 C 148.511719 223.441406 156.59375 217.261719 159.445312 208.230469 C 163.246094 196.34375 168 184.9375 173.703125 174.003906 C 177.984375 165.445312 176.558594 155.464844 169.902344 148.808594 C 160.871094 139.777344 160.871094 125.515625 169.902344 116.960938 L 201.75 85.113281 C 206.027344 80.835938 211.734375 78.457031 217.914062 78.457031 C 223.617188 78.457031 229.320312 80.835938 234.074219 85.113281 C 238.351562 89.390625 243.582031 91.292969 249.285156 91.292969 C 252.613281 91.292969 255.941406 90.339844 259.269531 88.914062 C 270.203125 83.210938 281.609375 78.457031 293.492188 74.65625 C 302.527344 71.800781 308.707031 63.722656 308.707031 54.214844 C 308.707031 41.855469 318.6875 31.398438 331.523438 31.398438 L 376.679688 31.398438 C 389.039062 31.398438 399.496094 41.378906 399.496094 54.214844 C 399.496094 63.722656 405.675781 71.800781 414.707031 74.65625 C 426.59375 78.457031 438 83.210938 448.933594 88.914062 C 452.261719 90.816406 455.589844 91.292969 458.917969 91.292969 C 464.621094 91.292969 469.851562 88.914062 474.128906 85.113281 C 478.40625 80.835938 484.109375 78.457031 490.289062 78.457031 C 495.992188 78.457031 501.699219 80.835938 506.453125 85.113281 L 538.300781 116.960938 C 547.332031 125.992188 547.332031 140.253906 538.300781 148.808594 C 531.644531 155.464844 530.21875 165.921875 534.496094 174.003906 C 540.203125 184.9375 544.957031 196.34375 548.757812 208.230469 C 551.609375 217.261719 559.691406 223.441406 569.199219 223.441406 C 581.558594 223.441406 592.015625 233.421875 592.015625 246.257812 L 592.015625 291.414062 C 592.015625 303.773438 582.03125 314.230469 569.199219 314.230469 C 559.691406 314.230469 551.609375 320.410156 548.757812 329.445312 C 544.957031 341.328125 540.203125 352.734375 534.496094 363.667969 C 530.21875 372.226562 531.644531 382.207031 538.300781 388.863281 C 547.332031 397.894531 547.332031 412.15625 538.300781 420.710938 L 530.695312 428.316406 L 526.890625 459.214844 L 552.085938 434.019531 C 568.246094 417.859375 568.246094 391.238281 552.085938 375.078125 C 551.136719 374.125 551.136719 373.175781 551.609375 372.226562 C 557.789062 360.339844 563.019531 347.507812 567.296875 334.671875 C 567.773438 333.722656 568.722656 332.769531 569.671875 332.769531 C 592.492188 332.769531 611.503906 314.230469 611.503906 290.941406 L 611.503906 245.78125 C 611.503906 222.964844 592.964844 203.949219 569.671875 203.949219 C 568.722656 203.949219 567.773438 203.476562 567.296875 202.050781 C 563.492188 189.214844 558.265625 176.378906 551.609375 164.496094 C 551.136719 163.546875 551.136719 162.121094 552.085938 161.644531 C 568.246094 145.480469 568.246094 118.863281 552.085938 102.699219 L 520.238281 70.851562 C 512.15625 62.769531 501.699219 58.492188 490.765625 58.492188 C 479.832031 58.492188 469.375 62.769531 461.292969 70.851562 C 460.816406 71.328125 459.867188 71.800781 459.390625 71.800781 C 458.917969 71.800781 458.441406 71.800781 458.441406 71.328125 C 446.558594 65.148438 433.722656 59.917969 420.886719 55.640625 C 419.9375 55.164062 418.988281 54.214844 418.988281 53.261719 C 418.988281 30.445312 400.449219 11.433594 377.15625 11.433594 L 331.996094 11.433594 C 309.179688 11.433594 290.167969 29.972656 290.167969 53.261719 C 290.167969 54.214844 289.691406 55.164062 288.265625 55.640625 C 275.429688 59.441406 262.597656 64.671875 250.710938 71.328125 C 250.238281 71.328125 249.761719 71.800781 249.761719 71.800781 C 249.285156 71.800781 248.8125 71.800781 247.859375 70.851562 C 239.777344 62.769531 229.320312 58.492188 218.386719 58.492188 C 207.453125 58.492188 196.996094 62.769531 188.917969 70.851562 L 157.066406 102.699219 C 140.90625 118.863281 140.90625 145.480469 157.066406 161.644531 C 158.019531 162.59375 158.019531 163.546875 157.542969 164.496094 C 151.363281 176.378906 146.132812 189.214844 141.855469 202.050781 C 141.382812 203 140.429688 203.949219 139.480469 203.949219 C 116.664062 203.949219 97.648438 222.488281 97.648438 245.78125 L 97.648438 291.414062 Z M 97.171875 291.414062 "/></g><path style=" stroke:none;fill-rule:nonzero;fill:#020159;fill-opacity:1;" d="M 370.5 468.246094 C 370.5 469.183594 370.410156 470.109375 370.226562 471.027344 C 370.042969 471.945312 369.773438 472.839844 369.414062 473.703125 C 369.058594 474.570312 368.617188 475.390625 368.097656 476.167969 C 367.578125 476.949219 366.984375 477.667969 366.324219 478.332031 C 365.660156 478.992188 364.941406 479.582031 364.164062 480.105469 C 363.382812 480.625 362.5625 481.0625 361.699219 481.421875 C 360.832031 481.78125 359.941406 482.050781 359.023438 482.234375 C 358.105469 482.414062 357.175781 482.507812 356.242188 482.507812 C 355.304688 482.507812 354.375 482.414062 353.457031 482.234375 C 352.539062 482.050781 351.648438 481.78125 350.78125 481.421875 C 349.917969 481.0625 349.097656 480.625 348.316406 480.105469 C 347.539062 479.582031 346.820312 478.992188 346.15625 478.332031 C 345.496094 477.667969 344.902344 476.949219 344.382812 476.167969 C 343.863281 475.390625 343.421875 474.570312 343.066406 473.703125 C 342.707031 472.839844 342.4375 471.945312 342.253906 471.027344 C 342.070312 470.109375 341.980469 469.183594 341.980469 468.246094 C 341.980469 467.308594 342.070312 466.382812 342.253906 465.464844 C 342.4375 464.546875 342.707031 463.652344 343.066406 462.789062 C 343.421875 461.925781 343.863281 461.101562 344.382812 460.324219 C 344.902344 459.546875 345.496094 458.824219 346.15625 458.164062 C 346.820312 457.5 347.539062 456.910156 348.316406 456.390625 C 349.097656 455.867188 349.917969 455.429688 350.78125 455.070312 C 351.648438 454.714844 352.539062 454.441406 353.457031 454.261719 C 354.375 454.078125 355.304688 453.984375 356.242188 453.984375 C 357.175781 453.984375 358.105469 454.078125 359.023438 454.261719 C 359.941406 454.441406 360.832031 454.714844 361.699219 455.070312 C 362.5625 455.429688 363.382812 455.867188 364.164062 456.390625 C 364.941406 456.910156 365.660156 457.5 366.324219 458.164062 C 366.984375 458.824219 367.578125 459.546875 368.097656 460.324219 C 368.617188 461.101562 369.058594 461.925781 369.414062 462.789062 C 369.773438 463.652344 370.042969 464.546875 370.226562 465.464844 C 370.410156 466.382812 370.5 467.308594 370.5 468.246094 Z M 370.5 468.246094 "/><g clip-rule="nonzero" clip-path="url(#3ebb41bf05)"><path style=" stroke:none;fill-rule:nonzero;fill:#020159;fill-opacity:1;" d="M 648.582031 534.796875 L 610.078125 534.796875 C 613.40625 529.089844 615.308594 522.910156 615.308594 515.78125 C 615.308594 494.867188 598.195312 477.753906 577.28125 477.753906 C 556.363281 477.753906 539.25 494.867188 539.25 515.78125 C 539.25 522.910156 541.152344 529.089844 544.480469 534.796875 L 495.992188 534.796875 C 497.421875 531.46875 498.371094 528.140625 498.847656 524.8125 L 512.15625 420.234375 C 513.105469 410.730469 510.253906 401.222656 504.074219 394.089844 C 497.894531 386.960938 488.863281 382.683594 479.355469 382.683594 L 233.597656 382.683594 C 224.09375 382.683594 215.0625 386.960938 208.882812 394.089844 C 202.703125 401.222656 199.847656 410.730469 200.800781 420.234375 L 214.109375 524.8125 C 214.585938 528.617188 215.535156 531.945312 216.960938 534.796875 L 163.246094 534.796875 C 166.574219 529.089844 168.476562 522.910156 168.476562 515.78125 C 168.476562 494.867188 151.363281 477.753906 130.449219 477.753906 C 109.53125 477.753906 92.417969 494.867188 92.417969 515.78125 C 92.417969 522.910156 94.320312 529.089844 97.648438 534.796875 L 59.144531 534.796875 C 53.917969 534.796875 49.636719 539.074219 49.636719 544.304688 C 49.636719 549.53125 53.917969 553.808594 59.144531 553.808594 L 648.582031 553.808594 C 653.8125 553.808594 658.089844 549.53125 658.089844 544.304688 C 658.089844 539.074219 653.8125 534.796875 648.582031 534.796875 Z M 130.449219 534.796875 C 119.988281 534.796875 111.433594 526.238281 111.433594 515.78125 C 111.433594 505.324219 119.988281 496.765625 130.449219 496.765625 C 140.90625 496.765625 149.460938 505.324219 149.460938 515.78125 C 149.460938 526.238281 140.90625 534.796875 130.449219 534.796875 Z M 493.140625 417.859375 L 479.832031 522.4375 C 478.882812 529.566406 472.703125 534.796875 465.570312 534.796875 L 246.433594 534.796875 C 239.304688 534.796875 233.125 529.566406 232.171875 522.4375 L 218.863281 417.859375 C 218.386719 413.582031 219.8125 409.777344 222.191406 406.449219 C 224.566406 403.125 228.847656 401.695312 232.648438 401.695312 L 478.40625 401.695312 C 482.683594 401.695312 486.488281 403.597656 488.863281 406.449219 C 491.242188 409.300781 493.617188 413.582031 493.140625 417.859375 Z M 577.28125 534.796875 C 566.820312 534.796875 558.265625 526.238281 558.265625 515.78125 C 558.265625 505.324219 566.820312 496.765625 577.28125 496.765625 C 587.738281 496.765625 596.292969 505.324219 596.292969 515.78125 C 596.292969 526.238281 587.738281 534.796875 577.28125 534.796875 Z M 577.28125 534.796875 "/></g><path style=" stroke:none;fill-rule:nonzero;fill:#020159;fill-opacity:1;" d="M 429.921875 296.644531 L 368.125 296.644531 C 365.746094 293.792969 361.945312 291.890625 357.667969 291.890625 C 349.585938 291.890625 343.40625 298.070312 343.40625 306.152344 C 343.40625 314.230469 349.585938 320.410156 357.667969 320.410156 C 361.945312 320.410156 365.746094 318.511719 368.125 315.660156 L 429.921875 315.660156 C 443.230469 315.660156 453.6875 305.199219 453.6875 291.890625 L 453.6875 225.816406 C 453.6875 170.675781 409.003906 125.992188 353.863281 125.992188 C 298.722656 125.992188 254.039062 170.675781 254.039062 225.816406 L 254.039062 249.585938 C 254.039062 254.8125 258.316406 259.089844 263.546875 259.089844 C 268.777344 259.089844 273.054688 254.8125 273.054688 249.585938 L 273.054688 225.816406 C 273.054688 181.132812 309.179688 145.007812 353.863281 145.007812 C 398.546875 145.007812 434.671875 181.132812 434.671875 225.816406 L 434.671875 291.890625 C 434.671875 294.742188 432.773438 296.644531 429.921875 296.644531 Z M 429.921875 296.644531 "/><path style=" stroke:none;fill-rule:nonzero;fill:#020159;fill-opacity:1;" d="M 233.125 355.585938 C 228.847656 357.964844 225.519531 360.816406 222.667969 364.621094 C 225.992188 363.667969 229.796875 363.667969 233.597656 363.667969 L 261.644531 363.667969 L 305.851562 344.179688 C 310.132812 351.785156 317.738281 358.441406 325.34375 363.667969 L 383.8125 363.667969 C 391.417969 358.441406 399.023438 351.785156 403.300781 344.179688 L 447.507812 363.667969 L 480.308594 363.667969 C 482.207031 363.667969 483.636719 363.667969 485.535156 364.144531 C 482.683594 360.816406 479.832031 357.964844 476.027344 356.0625 C 475.078125 355.589844 473.652344 354.636719 472.703125 354.160156 L 429.445312 335.148438 L 387.136719 335.148438 C 382.859375 343.230469 367.648438 352.734375 355.289062 358.441406 C 340.554688 351.785156 322.015625 339.425781 322.015625 330.871094 L 322.015625 318.511719 C 324.867188 320.886719 327.71875 322.789062 331.046875 324.691406 C 327.71875 319.460938 325.816406 313.28125 325.816406 307.101562 C 325.816406 303.773438 326.292969 300.445312 327.242188 297.59375 C 316.785156 286.1875 309.65625 269.550781 308.230469 251.960938 C 310.605469 248.160156 316.785156 239.601562 328.671875 236.273438 C 332.472656 235.324219 337.226562 235.800781 341.027344 237.699219 C 349.109375 241.503906 365.273438 246.730469 384.285156 241.027344 C 395.695312 237.699219 400.921875 244.832031 402.824219 249.109375 C 402.351562 259.566406 399.972656 269.550781 395.695312 278.582031 L 416.136719 278.582031 C 419.460938 269.074219 421.363281 259.089844 421.839844 249.585938 C 421.839844 249.109375 421.839844 248.632812 421.839844 247.683594 L 421.839844 233.898438 C 421.839844 195.871094 391.890625 164.496094 355.289062 164.496094 C 318.6875 164.496094 288.742188 195.394531 288.742188 233.898438 L 288.742188 249.585938 C 288.742188 250.535156 288.742188 251.011719 289.214844 251.960938 C 290.167969 267.171875 295.394531 282.859375 303 296.167969 L 303 325.164062 L 236.453125 354.160156 C 235.027344 354.636719 234.074219 355.113281 233.125 355.585938 Z M 353.863281 183.035156 C 376.679688 183.035156 395.695312 200.148438 400.449219 222.964844 C 393.792969 220.113281 386.1875 219.636719 377.15625 222.488281 C 365.273438 226.292969 354.339844 223.441406 347.683594 220.113281 C 342.457031 217.734375 336.75 216.308594 331.523438 216.308594 C 328.671875 216.308594 325.816406 216.785156 322.964844 217.261719 C 316.785156 218.6875 311.558594 221.0625 307.277344 223.914062 C 311.558594 200.621094 330.570312 183.035156 353.863281 183.035156 Z M 353.863281 183.035156 "/></g></svg>