<svg xmlns="http://www.w3.org/2000/svg" xmlns:xlink="http://www.w3.org/1999/xlink" width="945" zoomAndPan="magnify" viewBox="0 0 708 574.08" height="756" preserveAspectRatio="xMidYMid meet" version="1.2"><defs><clipPath id="4e80509b51"><path d="M 76.132812 4.878906 L 631.976562 4.878906 L 631.976562 560.722656 L 76.132812 560.722656 Z M 76.132812 4.878906 "/></clipPath></defs><g id="99162de459"><g clip-rule="nonzero" clip-path="url(#4e80509b51)"><path style=" stroke:none;fill-rule:evenodd;fill:#020159;fill-opacity:1;" d="M 354 4.878906 C 410.648438 4.878906 456.570312 50.800781 456.570312 107.449219 C 456.570312 164.09375 410.648438 210.015625 354 210.015625 C 297.351562 210.015625 251.429688 164.097656 251.429688 107.449219 C 251.429688 50.800781 297.355469 4.878906 354 4.878906 Z M 542.863281 378.617188 C 567.859375 378.617188 588.125 398.882812 588.125 423.882812 C 588.125 448.878906 567.859375 469.144531 542.863281 469.144531 C 517.863281 469.144531 497.597656 448.878906 497.597656 423.882812 C 497.597656 398.882812 517.863281 378.617188 542.863281 378.617188 Z M 155.171875 360.875 C 119.035156 268.980469 151.140625 163.179688 232.917969 106.796875 C 232.886719 114.070312 233.472656 121.242188 234.722656 128.414062 C 164.019531 183.132812 139.570312 279.414062 175.238281 360.894531 C 168.601562 359.839844 161.808594 359.832031 155.171875 360.875 Z M 485.234375 451.25 C 408.5625 511.050781 299.441406 511.050781 222.769531 451.253906 C 225.609375 445.285156 227.550781 438.804688 228.417969 431.992188 C 300.554688 492.753906 407.449219 492.753906 479.585938 431.992188 C 480.453125 438.804688 482.394531 445.285156 485.234375 451.25 Z M 475.085938 106.796875 C 556.863281 163.175781 588.964844 268.980469 552.832031 360.871094 C 546.195312 359.832031 539.398438 359.839844 532.765625 360.894531 C 568.433594 279.417969 543.980469 183.132812 473.28125 128.414062 C 474.53125 121.242188 475.117188 114.070312 475.085938 106.796875 Z M 453.851562 560.617188 L 631.871094 560.617188 C 627.0625 515.703125 589.050781 480.722656 542.863281 480.722656 C 496.671875 480.722656 458.660156 515.703125 453.851562 560.617188 Z M 165.140625 378.617188 C 190.140625 378.617188 210.40625 398.882812 210.40625 423.882812 C 210.40625 448.878906 190.140625 469.144531 165.140625 469.144531 C 140.144531 469.144531 119.875 448.878906 119.875 423.882812 C 119.875 398.882812 140.144531 378.617188 165.140625 378.617188 Z M 76.132812 560.617188 L 254.148438 560.617188 C 249.34375 515.703125 211.328125 480.722656 165.140625 480.722656 C 118.953125 480.722656 80.9375 515.703125 76.132812 560.617188 Z M 446.855469 232.28125 C 459.589844 265.128906 472.324219 297.972656 485.058594 330.820312 C 485.867188 332.484375 485.863281 332.488281 487.648438 331.960938 L 506.121094 324.800781 C 506.765625 324.550781 507.121094 323.707031 506.871094 323.070312 L 468.425781 223.902344 C 468.179688 223.257812 467.335938 222.902344 466.699219 223.148438 L 447.609375 230.550781 C 446.964844 230.800781 446.609375 231.644531 446.855469 232.28125 Z M 467.605469 237.382812 C 467.605469 240.894531 464.757812 243.742188 461.242188 243.742188 C 457.730469 243.742188 454.882812 240.894531 454.882812 237.382812 C 454.882812 233.867188 457.730469 231.019531 461.242188 231.019531 C 464.757812 231.019531 467.605469 233.867188 467.605469 237.382812 Z M 222.292969 323.988281 L 265.292969 226.703125 C 265.585938 226.035156 265.3125 225.257812 264.636719 224.960938 L 245.90625 216.683594 C 245.238281 216.386719 244.460938 216.664062 244.164062 217.339844 L 201.167969 314.621094 C 200.871094 315.289062 201.148438 316.066406 201.824219 316.363281 L 220.550781 324.640625 C 221.21875 324.9375 221.996094 324.664062 222.292969 323.988281 Z M 250.40625 237.492188 C 246.894531 237.328125 244.183594 234.351562 244.347656 230.839844 C 244.507812 227.332031 247.484375 224.617188 250.996094 224.78125 C 254.503906 224.945312 257.21875 227.921875 257.054688 231.429688 C 256.894531 234.941406 253.914062 237.652344 250.40625 237.492188 Z M 244.472656 313.550781 L 271.332031 252.777344 L 280.582031 257.042969 C 291.71875 263.195312 301.675781 260.863281 312.496094 258.328125 C 320 256.570312 328.066406 254.683594 336.894531 257.101562 C 329.984375 263.449219 324.289062 269.324219 316.585938 275.105469 C 310.769531 279.472656 304.324219 283.691406 297.347656 287.765625 C 294.769531 289.273438 292.90625 292.054688 292.582031 295.035156 C 292.265625 297.578125 293.007812 300.195312 294.574219 302.21875 C 315.445312 329.074219 337.636719 320.101562 358.675781 311.582031 C 369.929688 307.027344 380.734375 302.652344 388.238281 306.929688 L 440.664062 337.179688 C 442.632812 339.285156 443.121094 342.339844 441.761719 344.890625 C 439.9375 348.039062 436.175781 349.429688 432.871094 347.683594 C 421.25 341.03125 409.496094 334.582031 397.863281 327.921875 C 394.011719 325.71875 389.101562 327.054688 386.898438 330.90625 C 384.695312 334.761719 386.03125 339.671875 389.882812 341.875 C 401.511719 348.53125 413.203125 355.078125 424.894531 361.625 C 428.09375 363.429688 429.359375 367.445312 427.570312 370.691406 C 425.828125 373.859375 421.851562 375.046875 418.652344 373.371094 L 372.609375 347.460938 C 368.738281 345.292969 363.84375 346.671875 361.671875 350.539062 C 359.503906 354.410156 360.882812 359.304688 364.753906 361.476562 C 377.265625 368.515625 389.75 375.671875 402.261719 382.6875 C 405.496094 384.507812 406.714844 388.550781 404.917969 391.820312 C 403.125 395 399.09375 396.140625 395.898438 394.378906 L 369.65625 379.523438 C 364.191406 373.15625 355.886719 370.332031 347.578125 371.902344 C 343.207031 361.625 332.6875 355.980469 321.691406 358.058594 C 317.785156 348.886719 308.742188 343.132812 298.734375 343.839844 C 295.484375 331.039062 282.28125 323.554688 269.617188 327.394531 C 267.5 328.035156 265.472656 328.976562 263.609375 330.199219 C 260.53125 318.933594 253.835938 317.683594 244.472656 313.550781 Z M 260.742188 363.574219 C 258.90625 367.003906 260.210938 371.359375 263.644531 373.195312 C 265.917969 374.410156 268.816406 374.222656 270.964844 372.820312 L 282.9375 352.101562 C 284.226562 348.804688 282.820312 344.914062 279.683594 343.242188 C 276.253906 341.414062 271.898438 342.710938 270.0625 346.144531 C 266.957031 351.953125 263.847656 357.765625 260.742188 363.574219 Z M 321.464844 404.332031 L 333.210938 381.761719 C 333.609375 378.855469 332.171875 375.871094 329.566406 374.484375 C 326.988281 373.109375 323.703125 373.527344 321.511719 375.441406 L 308.917969 399.832031 C 308.917969 402.453125 310.308594 404.863281 312.632812 406.105469 C 315.585938 407.683594 319.347656 406.910156 321.464844 404.332031 Z M 347.425781 389.273438 L 336.09375 411.050781 C 336.007812 413.730469 337.421875 416.292969 339.800781 417.566406 C 343.230469 419.402344 347.585938 418.101562 349.421875 414.667969 L 358.359375 397.953125 C 360.167969 394.574219 358.859375 390.144531 355.457031 388.332031 C 352.886719 386.957031 349.617188 387.371094 347.425781 389.273438 Z M 307.304688 367.980469 C 307.742188 365.058594 306.300781 362.035156 303.675781 360.636719 C 301.347656 359.390625 298.492188 359.566406 296.308594 361.035156 L 281.425781 387.15625 C 279.589844 390.582031 280.894531 394.9375 284.328125 396.777344 C 287.667969 398.5625 291.808594 397.390625 293.773438 394.171875 Z M 439.816406 258.484375 L 463.863281 320.511719 L 451.753906 325.566406 C 450.351562 324.179688 448.738281 322.949219 446.933594 321.917969 L 396.160156 292.980469 C 381.898438 284.851562 367.566406 290.648438 352.648438 296.6875 C 338.949219 302.234375 324.582031 308.046875 312.183594 297.570312 C 329.597656 286.585938 340.984375 273.578125 356.699219 261.792969 C 375.03125 249.363281 388.679688 254.941406 400.335938 259.703125 C 420.21875 267.832031 423.792969 267.058594 439.816406 258.484375 Z M 374.425781 400.652344 C 373.320312 404.71875 370.601562 409.042969 368.597656 412.785156 C 371.222656 414.292969 373.386719 416.078125 376.648438 415.121094 C 378.972656 414.441406 380.453125 412.3125 380.679688 411.898438 C 381.5625 410.296875 381.710938 408.484375 381.242188 406.855469 C 380.316406 403.660156 377.125 402.179688 374.425781 400.652344 Z M 354 155.867188 C 346.148438 155.867188 339.78125 162.230469 339.78125 170.085938 C 339.78125 177.9375 346.148438 184.304688 354 184.304688 C 361.855469 184.304688 368.21875 177.9375 368.21875 170.085938 C 368.21875 162.230469 361.855469 155.867188 354 155.867188 Z M 354 130.484375 C 359.972656 130.484375 364.878906 125.753906 365.09375 119.785156 L 367.898438 42.089844 C 368.125 35.765625 363.132812 30.589844 356.804688 30.589844 C 352.839844 30.589844 355.160156 30.589844 351.195312 30.589844 C 344.867188 30.589844 339.875 35.765625 340.101562 42.089844 L 342.90625 119.785156 C 343.125 125.753906 348.027344 130.484375 354 130.484375 Z M 354 130.484375 "/></g></g></svg>