<svg xmlns="http://www.w3.org/2000/svg" xmlns:xlink="http://www.w3.org/1999/xlink" width="945" zoomAndPan="magnify" viewBox="0 0 708 574.08" height="756" preserveAspectRatio="xMidYMid meet" version="1.2"><defs><clipPath id="eb2f166ab4"><path d="M 0.566406 56.550781 L 517 56.550781 L 517 471 L 0.566406 471 Z M 0.566406 56.550781 "/></clipPath><clipPath id="9c8a44479e"><path d="M 337 475 L 707.421875 475 L 707.421875 496.4375 L 337 496.4375 Z M 337 475 "/></clipPath></defs><g id="4b81fa866c"><path style="fill-rule:evenodd;fill:#3f588e;fill-opacity:1;stroke-width:6.94;stroke-linecap:butt;stroke-linejoin:miter;stroke:#000000;stroke-opacity:1;stroke-miterlimit:2.613;" d="M 3498.46788 3543.420323 L 19269.967442 3543.420323 L 19269.967442 12890.055403 L 3498.46788 12890.055403 Z M 3498.46788 3543.420323 " transform="matrix(0.0314476,0,0,0.0314476,-98.061554,-39.65489)"/><g clip-rule="nonzero" clip-path="url(#eb2f166ab4)"><path style=" stroke:none;fill-rule:nonzero;fill:#020159;fill-opacity:1;" d="M 512.527344 56.550781 L 4.429688 56.550781 C 2.300781 56.550781 0.578125 58.273438 0.578125 60.398438 L 0.578125 381.726562 C 0.578125 383.851562 2.300781 385.574219 4.429688 385.574219 L 202.300781 385.574219 C 202.199219 391.972656 201.671875 416.695312 199.800781 425.394531 C 198.132812 433.179688 195.480469 439.824219 191.566406 445.144531 C 183.453125 456.179688 182.65625 456.664062 177.109375 461.792969 C 176.109375 462.710938 172.148438 467.921875 177.78125 470.113281 C 183.160156 470.113281 258.480469 470.113281 258.480469 470.113281 C 258.480469 470.113281 333.792969 470.113281 339.175781 470.113281 C 344.8125 467.921875 340.847656 462.710938 339.847656 461.792969 C 334.296875 456.664062 333.503906 456.179688 325.394531 445.144531 C 321.476562 439.824219 318.824219 433.179688 317.152344 425.394531 C 315.285156 416.695312 314.761719 391.972656 314.652344 385.574219 L 512.527344 385.574219 C 514.65625 385.574219 516.375 383.851562 516.375 381.726562 L 516.375 60.398438 C 516.375 58.273438 514.65625 56.550781 512.527344 56.550781 Z M 258.476562 61.414062 C 260.125 61.414062 261.464844 62.75 261.464844 64.398438 C 261.464844 66.046875 260.125 67.386719 258.476562 67.386719 C 256.828125 67.386719 255.492188 66.046875 255.492188 64.398438 C 255.492188 62.75 256.828125 61.414062 258.476562 61.414062 Z M 258.476562 369.929688 C 261.777344 369.929688 264.449219 372.601562 264.449219 375.898438 C 264.449219 379.195312 261.777344 381.871094 258.476562 381.871094 C 255.179688 381.871094 252.507812 379.199219 252.507812 375.898438 C 252.507812 372.601562 255.179688 369.929688 258.476562 369.929688 Z M 19.613281 71.777344 L 497.34375 71.777344 L 497.34375 364.386719 L 19.613281 364.386719 Z M 19.613281 71.777344 "/></g><path style=" stroke:none;fill-rule:evenodd;fill:#020159;fill-opacity:1;" d="M 384.324219 264.234375 L 663.308594 264.234375 C 673.011719 264.234375 680.953125 271.925781 680.953125 281.332031 L 680.953125 472.644531 L 366.679688 472.644531 L 366.679688 281.332031 C 366.679688 271.925781 374.621094 264.234375 384.324219 264.234375 Z M 523.816406 271.746094 C 522.292969 271.746094 521.058594 272.941406 521.058594 274.414062 C 521.058594 275.890625 522.292969 277.085938 523.816406 277.085938 C 525.339844 277.085938 526.574219 275.890625 526.574219 274.414062 C 526.574219 272.941406 525.339844 271.746094 523.816406 271.746094 Z M 384.121094 287.210938 L 663.511719 287.210938 L 663.511719 456.078125 L 384.121094 456.078125 Z M 384.121094 287.210938 "/><path style="fill-rule:evenodd;fill:#3f588e;fill-opacity:1;stroke-width:6.94;stroke-linecap:butt;stroke-linejoin:miter;stroke:#000000;stroke-opacity:1;stroke-miterlimit:2.613;" d="M 15332.86852 10393.967479 L 24217.177685 10393.967479 L 24217.177685 15763.755036 L 15332.86852 15763.755036 Z M 15332.86852 10393.967479 " transform="matrix(0.0314476,0,0,0.0314476,-98.061554,-39.65489)"/><g clip-rule="nonzero" clip-path="url(#9c8a44479e)"><path style=" stroke:none;fill-rule:evenodd;fill:#020159;fill-opacity:1;" d="M 337.515625 475.953125 L 707.417969 475.953125 L 707.417969 489.738281 C 707.417969 493.375 704.441406 496.355469 700.800781 496.355469 L 344.132812 496.355469 C 340.492188 496.355469 337.515625 493.375 337.515625 489.738281 Z M 337.515625 475.953125 "/></g></g></svg>