<svg xmlns="http://www.w3.org/2000/svg" xmlns:xlink="http://www.w3.org/1999/xlink" width="945" zoomAndPan="magnify" viewBox="0 0 708 574.08" height="756" preserveAspectRatio="xMidYMid meet" version="1.2"><defs><clipPath id="b7387809df"><path d="M 6.539062 68.996094 L 701.53125 68.996094 L 701.53125 486 L 6.539062 486 Z M 6.539062 68.996094 "/></clipPath></defs><g id="c3d7f2a8ce"><path style=" stroke:none;fill-rule:nonzero;fill:#3853a1;fill-opacity:1;" d="M 683.714844 195.078125 L 613.074219 92.425781 C 605.675781 81.625 588.921875 73.769531 575.835938 73.769531 C 575.835938 73.769531 572.167969 73.769531 572.132812 73.808594 C 563.976562 83.769531 566.582031 105.207031 573.332031 115.40625 C 593.089844 145.273438 567.136719 153.359375 550.222656 168.046875 C 536.746094 179.753906 517.203125 186.273438 500.550781 189.960938 C 479.917969 194.527344 466.367188 204.628906 460.039062 216.175781 C 447.71875 238.644531 430.410156 263.378906 403.335938 263.183594 C 380.953125 263.015625 358.644531 262.375 336.261719 262.863281 C 317.09375 263.285156 289.601562 258.792969 274.355469 273.554688 C 262.257812 285.265625 266.246094 299.949219 247.429688 305.273438 C 236.484375 308.378906 224.824219 307.773438 213.5625 307.515625 C 190.496094 306.976562 165.941406 304.832031 143.371094 310.78125 C 133.515625 313.375 123.828125 317.109375 117.070312 325.121094 C 109.640625 333.929688 111.578125 344.730469 108.753906 355.28125 C 105.054688 369.113281 95.8125 380.964844 81.433594 384.644531 C 69.3125 387.75 56.738281 388.613281 44.53125 391.632812 C 32.535156 394.59375 20.703125 398.023438 9.011719 401.835938 L 9.011719 418.851562 C 9.011719 431.9375 21.171875 444.929688 34.257812 444.929688 L 91.953125 444.929688 L 87.535156 480.273438 L 83.785156 485.832031 L 61.546875 518.832031 C 59.972656 521.160156 59.667969 523.710938 60.710938 525.675781 C 61.742188 527.613281 63.90625 528.90625 66.660156 528.90625 L 637.667969 528.90625 C 640.40625 528.90625 642.578125 527.613281 643.632812 525.675781 C 644.695312 523.710938 644.425781 521.058594 642.886719 518.710938 L 621.449219 485.832031 L 617.828125 480.273438 L 619.484375 444.929688 L 673.742188 444.929688 C 686.828125 444.929688 696.605469 431.9375 696.605469 418.851562 L 696.605469 230.605469 C 696.605469 214.601562 683.714844 195.078125 683.714844 195.078125 "/><path style=" stroke:none;fill-rule:nonzero;fill:#3853a1;fill-opacity:1;" d="M 292.148438 205.160156 L 419.894531 205.160156 C 422.1875 205.160156 423.105469 203.453125 421.933594 201.480469 L 414.882812 189.453125 C 413.710938 187.484375 410.875 185.710938 408.585938 185.710938 L 305.441406 185.710938 C 303.148438 185.710938 300.195312 187.410156 298.882812 189.285156 L 290.363281 201.648438 C 289.054688 203.527344 289.851562 205.160156 292.148438 205.160156 "/><path style=" stroke:none;fill-rule:nonzero;fill:#3853a1;fill-opacity:1;" d="M 157.777344 112.066406 L 122.683594 112.066406 L 116.988281 119.015625 L 152.101562 119.015625 L 157.777344 112.066406 "/><path style=" stroke:none;fill-rule:nonzero;fill:#3853a1;fill-opacity:1;" d="M 161.75 106.210938 C 164.992188 101.542969 162.988281 98.171875 157.304688 98.171875 L 142.839844 98.171875 C 137.160156 98.171875 129.859375 101.621094 126.613281 106.289062 L 124.105469 109.289062 L 159.199219 109.289062 L 161.75 106.210938 "/><path style=" stroke:none;fill-rule:nonzero;fill:#3853a1;fill-opacity:1;" d="M 110.300781 142.636719 L 124.847656 142.636719 C 130.53125 142.636719 137.824219 138.863281 141.066406 134.191406 L 142.15625 132.910156 L 107.03125 132.910156 L 105.867188 134.292969 C 102.628906 138.960938 104.621094 142.636719 110.300781 142.636719 "/><path style=" stroke:none;fill-rule:nonzero;fill:#3853a1;fill-opacity:1;" d="M 150.679688 121.792969 L 115.566406 121.792969 L 108.453125 131.519531 L 143.578125 131.519531 L 150.679688 121.792969 "/><path style=" stroke:none;fill-rule:nonzero;fill:#020159;fill-opacity:1;" d="M 89.707031 146.609375 L 124.023438 97.203125 C 127.328125 92.441406 134.992188 88.449219 140.75 88.449219 L 174.75 88.449219 C 176.914062 88.449219 178.523438 88.984375 179.054688 89.996094 C 179.582031 91.003906 179.15625 92.609375 177.914062 94.402344 L 143.691406 143.722656 C 140.398438 148.480469 132.746094 152.363281 126.976562 152.363281 L 92.859375 152.363281 C 90.6875 152.363281 89.082031 151.90625 88.558594 150.90625 C 88.039062 149.910156 88.46875 148.394531 89.707031 146.609375 Z M 92.859375 157.921875 L 126.976562 157.921875 C 134.335938 157.921875 143.398438 152.980469 147.601562 146.917969 L 181.828125 97.34375 C 184.160156 93.972656 184.671875 90.796875 183.265625 88.117188 C 181.859375 85.429688 178.835938 84.277344 174.75 84.277344 L 140.75 84.277344 C 133.398438 84.277344 124.332031 88.777344 120.117188 94.851562 L 85.796875 144.015625 C 83.457031 147.375 82.941406 150.832031 84.34375 153.507812 C 85.742188 156.179688 88.765625 157.921875 92.859375 157.921875 "/><path style=" stroke:none;fill-rule:nonzero;fill:#020159;fill-opacity:1;" d="M 417.914062 274.632812 L 292.863281 274.632812 C 290.5625 274.632812 288.695312 276.5 288.695312 278.804688 L 288.695312 289.917969 C 288.695312 292.21875 290.5625 294.085938 292.863281 294.085938 L 417.914062 294.085938 C 420.214844 294.085938 422.082031 292.21875 422.082031 289.917969 L 422.082031 278.804688 C 422.082031 276.5 420.214844 274.632812 417.914062 274.632812 "/><g clip-rule="nonzero" clip-path="url(#b7387809df)"><path style=" stroke:none;fill-rule:nonzero;fill:#020159;fill-opacity:1;" d="M 149.75 309.679688 L 149.75 271.035156 C 149.75 259.210938 159.335938 249.625 171.160156 249.625 L 538.226562 249.625 C 550.054688 249.625 559.640625 259.210938 559.640625 271.035156 L 559.640625 331.601562 L 149.75 331.601562 Z M 26.535156 197.015625 L 97.875 93.914062 C 104.445312 84.324219 120.148438 75.941406 132.164062 75.941406 L 575.835938 75.941406 C 587.851562 75.941406 603.601562 84.324219 610.1875 93.929688 L 681.449219 197.128906 C 681.582031 197.320312 694.417969 216.207031 694.417969 230.953125 L 694.417969 419.191406 C 694.417969 430.550781 684.652344 439.980469 673.742188 439.980469 L 622.109375 439.980469 L 593.394531 396.039062 C 591.289062 392.8125 590.207031 389.082031 590.207031 387.605469 L 590.207031 357.242188 C 590.207031 342.808594 577.800781 331.601562 563.367188 331.601562 L 562.417969 331.601562 L 562.417969 271.628906 C 562.417969 257.175781 550.699219 245.457031 536.246094 245.457031 L 170.363281 245.457031 C 155.910156 245.457031 144.191406 257.175781 144.191406 271.628906 L 144.191406 332.101562 C 132.269531 334.417969 123.351562 344.589844 123.351562 357.238281 L 123.351562 386.316406 C 123.351562 388.664062 121.640625 393.085938 119.699219 395.960938 L 89.828125 439.980469 L 34.257812 439.980469 C 23.347656 439.980469 13.582031 430.550781 13.582031 419.199219 L 13.582031 230.953125 C 13.582031 216.246094 26.417969 197.179688 26.535156 197.015625 Z M 687.242188 193 L 616.015625 89.976562 C 608.027344 78.308594 590.375 68.996094 575.835938 68.996094 L 132.164062 68.996094 C 117.625 68.996094 99.972656 78.308594 91.996094 89.960938 L 20.742188 193.113281 C 20.167969 193.960938 6.636719 214.035156 6.636719 230.953125 L 6.636719 419.191406 C 6.636719 434.351562 19.542969 448.316406 34.257812 448.316406 L 84.175781 448.316406 L 64.976562 476.605469 C 62.910156 479.667969 63.523438 481.886719 64.070312 482.921875 C 64.636719 483.988281 66.171875 485.832031 70.089844 485.832031 L 83.785156 485.832031 L 87.535156 480.273438 L 70.089844 480.273438 C 68.878906 480.273438 68.34375 480.351562 68.292969 480.351562 C 68.292969 480.339844 68.128906 480.066406 68.804688 479.074219 L 123.34375 398.617188 C 125.851562 394.902344 127.519531 389.617188 127.519531 386.316406 L 127.519531 357.242188 C 127.519531 345.433594 137.582031 335.769531 149.386719 335.769531 L 563.367188 335.769531 C 575.171875 335.769531 584.648438 345.433594 584.648438 357.242188 L 584.648438 387.609375 C 584.648438 390.671875 586.941406 395.386719 589.015625 398.558594 L 641.855469 478.976562 C 642.421875 479.839844 642.480469 480.175781 642.488281 480.230469 C 642.398438 480.328125 641.863281 480.273438 640.613281 480.273438 L 617.824219 480.273438 L 621.449219 485.832031 L 640.613281 485.832031 C 644.527344 485.832031 646.167969 483.980469 646.742188 482.917969 C 647.300781 481.878906 648.023438 479.628906 646.003906 476.539062 L 627.558594 448.316406 L 673.742188 448.316406 C 688.457031 448.316406 701.363281 434.351562 701.363281 419.199219 L 701.363281 230.953125 C 701.363281 214.035156 687.832031 193.867188 687.242188 193 "/></g><path style=" stroke:none;fill-rule:nonzero;fill:#020159;fill-opacity:1;" d="M 668.054688 216.972656 C 668.054688 215.660156 666.992188 214.886719 665.679688 214.886719 L 39.945312 214.886719 C 38.632812 214.886719 37.566406 215.660156 37.566406 216.972656 C 37.566406 218.285156 38.632812 219.054688 39.945312 219.054688 L 665.679688 219.054688 C 666.992188 219.054688 668.054688 218.285156 668.054688 216.972656 "/><path style=" stroke:none;fill-rule:nonzero;fill:#020159;fill-opacity:1;" d="M 557.578125 373.285156 C 558 375.015625 558.25 376.8125 558.25 378.652344 L 558.25 378.84375 L 149.75 378.84375 L 149.75 378.652344 C 149.75 376.8125 150 375.015625 150.421875 373.285156 Z M 563.808594 378.652344 C 563.808594 364.222656 551.628906 352.445312 537.203125 352.445312 L 170.804688 352.445312 C 156.371094 352.445312 144.191406 364.222656 144.191406 378.652344 L 144.191406 395.3125 C 144.191406 395.542969 144.253906 395.773438 144.339844 395.984375 C 144.730469 396.964844 145.898438 397.6875 146.972656 397.6875 C 148.214844 397.6875 149.578125 396.734375 149.722656 395.515625 L 558.277344 395.515625 C 558.425781 396.734375 559.785156 397.6875 561.03125 397.6875 C 561.855469 397.6875 562.734375 397.269531 563.28125 396.628906 C 563.601562 396.253906 563.808594 395.800781 563.808594 395.304688 L 563.808594 378.652344 "/><path style=" stroke:none;fill-rule:nonzero;fill:#020159;fill-opacity:1;" d="M 660.917969 171.816406 C 660.917969 170.507812 659.847656 169.035156 658.542969 169.035156 L 423.285156 169.035156 C 421.808594 166.257812 418.523438 164.867188 414.667969 164.867188 L 295.707031 164.867188 C 291.855469 164.867188 288.570312 166.257812 287.09375 169.035156 L 171.347656 169.035156 C 166.042969 169.035156 162.113281 167.496094 160.59375 164.613281 C 159.097656 161.714844 159.953125 157.609375 162.992188 153.230469 L 208.417969 87.40625 C 209.15625 86.3125 208.890625 84.855469 207.796875 84.117188 C 206.722656 83.355469 205.226562 83.648438 204.488281 84.71875 L 159.070312 150.578125 C 154.933594 156.550781 153.976562 162.632812 156.382812 167.222656 C 158.789062 171.792969 164.089844 174.59375 171.347656 174.59375 L 290.617188 174.59375 C 290.828125 173.203125 290.949219 173.433594 290.949219 173.003906 C 290.949219 171.007812 293.042969 169.035156 295.707031 169.035156 L 414.667969 169.035156 C 417.335938 169.035156 419.429688 171.007812 419.429688 173.003906 C 419.429688 173.433594 419.550781 173.203125 419.761719 174.59375 L 658.542969 174.59375 C 659.847656 174.59375 660.917969 173.121094 660.917969 171.816406 "/><path style=" stroke:none;fill-rule:nonzero;fill:#fbfefe;fill-opacity:1;" d="M 641.855469 478.976562 L 589.015625 398.558594 C 586.941406 395.386719 584.648438 390.671875 584.648438 387.609375 L 584.648438 357.242188 C 584.648438 345.433594 575.171875 335.769531 563.367188 335.769531 L 149.386719 335.769531 C 137.582031 335.769531 127.519531 345.433594 127.519531 357.242188 L 127.519531 386.316406 C 127.519531 389.617188 125.851562 394.902344 123.34375 398.617188 L 68.804688 479.074219 C 68.128906 480.066406 68.292969 480.339844 68.292969 480.351562 C 68.34375 480.351562 68.878906 480.273438 70.089844 480.273438 L 87.535156 480.273438 L 144.339844 395.984375 C 144.253906 395.773438 144.191406 395.542969 144.191406 395.3125 L 144.191406 378.652344 C 144.191406 364.222656 156.371094 352.445312 170.804688 352.445312 L 537.203125 352.445312 C 551.628906 352.445312 563.808594 364.222656 563.808594 378.652344 L 563.808594 395.304688 C 563.808594 395.800781 563.601562 396.25 563.28125 396.628906 L 617.824219 480.273438 L 640.613281 480.273438 C 641.863281 480.273438 642.398438 480.328125 642.488281 480.230469 C 642.480469 480.175781 642.421875 479.839844 641.855469 478.976562 "/><path style=" stroke:none;fill-rule:nonzero;fill:#fbfefe;fill-opacity:1;" d="M 557.101562 395.515625 L 150.164062 395.515625 L 65.492188 521.253906 C 64.890625 522.148438 64.769531 522.695312 64.910156 522.96875 C 65.046875 523.222656 65.648438 523.347656 66.660156 523.347656 L 637.667969 523.347656 C 638.6875 523.347656 639.296875 523.289062 639.441406 523.011719 C 639.605469 522.710938 639.5 522.117188 638.902344 521.203125 L 557.101562 395.515625 "/></g></svg>