<svg xmlns="http://www.w3.org/2000/svg" xmlns:xlink="http://www.w3.org/1999/xlink" width="945" zoomAndPan="magnify" viewBox="0 0 708 574.08" height="756" preserveAspectRatio="xMidYMid meet" version="1.2"><defs><clipPath id="60a8e45abf"><path d="M 56.101562 10.542969 L 651.59375 10.542969 L 651.59375 555 L 56.101562 555 Z M 56.101562 10.542969 "/></clipPath></defs><g id="1e398efd83"><g clip-rule="nonzero" clip-path="url(#60a8e45abf)"><path style=" stroke:none;fill-rule:nonzero;fill:#020159;fill-opacity:1;" d="M 597.6875 10.929688 L 110.007812 10.929688 C 80.28125 10.929688 56.101562 35.113281 56.101562 64.835938 L 56.101562 369.617188 C 56.101562 399.339844 80.28125 423.523438 110.007812 423.523438 L 253.683594 423.523438 L 253.683594 474.703125 L 195.851562 474.703125 C 169.722656 474.703125 148.46875 492.550781 148.46875 514.492188 L 148.46875 544.679688 C 148.46875 549.984375 152.769531 554.285156 158.074219 554.285156 L 549.621094 554.285156 C 554.925781 554.285156 559.226562 549.984375 559.226562 544.679688 L 559.226562 514.492188 C 559.226562 492.550781 537.96875 474.703125 511.839844 474.703125 L 454.011719 474.703125 L 454.011719 423.527344 L 597.6875 423.527344 C 627.410156 423.527344 651.59375 399.34375 651.59375 369.617188 L 651.59375 64.839844 C 651.59375 35.113281 627.410156 10.929688 597.6875 10.929688 Z M 540.015625 514.492188 L 540.015625 535.074219 L 167.675781 535.074219 L 167.675781 514.492188 C 167.675781 503.335938 180.582031 493.910156 195.851562 493.910156 L 511.839844 493.910156 C 527.113281 493.910156 540.015625 503.335938 540.015625 514.492188 Z M 434.800781 474.703125 L 272.890625 474.703125 L 272.890625 423.527344 L 434.800781 423.527344 Z M 632.382812 369.617188 C 632.382812 388.75 616.820312 404.316406 597.6875 404.316406 L 110.007812 404.316406 C 90.875 404.316406 75.308594 388.75 75.308594 369.617188 L 75.308594 64.839844 C 75.308594 45.707031 90.875 30.140625 110.007812 30.140625 L 597.6875 30.140625 C 616.820312 30.140625 632.382812 45.707031 632.382812 64.839844 Z M 598.796875 47.976562 L 108.898438 47.976562 C 100.210938 47.976562 93.148438 55.042969 93.148438 63.726562 L 93.148438 355.308594 C 93.148438 360.613281 97.449219 364.914062 102.753906 364.914062 L 604.941406 364.914062 C 610.246094 364.914062 614.546875 360.613281 614.546875 355.308594 L 614.546875 63.726562 C 614.546875 55.042969 607.480469 47.976562 598.796875 47.976562 Z M 595.335938 345.703125 L 112.355469 345.703125 L 112.355469 67.1875 L 595.335938 67.1875 Z M 384.527344 320.222656 C 387.863281 320.128906 390.914062 318.3125 392.585938 315.421875 L 411.695312 282.320312 L 423.308594 282.320312 L 429.113281 292.375 L 410 325.476562 C 408.332031 328.367188 408.28125 331.917969 409.875 334.855469 C 411.464844 337.789062 414.464844 339.691406 417.796875 339.871094 C 418.835938 339.925781 419.863281 339.957031 420.890625 339.957031 C 440.054688 339.957031 457.035156 330.175781 466.734375 313.375 C 476.195312 296.988281 475.992188 276.347656 466.664062 260.128906 L 513.378906 179.21875 C 532.089844 179.183594 550.066406 169.039062 559.527344 152.65625 C 569.746094 134.953125 569.175781 114.160156 558.003906 97.027344 C 556.179688 94.230469 553.035156 92.585938 549.699219 92.671875 C 546.363281 92.761719 543.3125 94.578125 541.640625 97.46875 L 522.53125 130.574219 L 510.917969 130.574219 L 505.113281 120.515625 L 524.226562 87.414062 C 525.894531 84.523438 525.941406 80.972656 524.351562 78.035156 C 522.761719 75.101562 519.761719 73.203125 516.429688 73.019531 C 496.007812 71.914062 477.710938 81.816406 467.492188 99.515625 C 458.03125 115.902344 458.238281 136.542969 467.5625 152.761719 L 420.847656 233.675781 C 402.136719 233.707031 384.160156 243.851562 374.699219 260.238281 C 364.480469 277.9375 365.046875 298.734375 376.222656 315.867188 C 378.046875 318.660156 381.171875 320.300781 384.527344 320.222656 Z M 391.335938 269.84375 C 398.082031 258.160156 411.605469 251.445312 424.996094 253.140625 C 428.828125 253.625 432.585938 251.761719 434.519531 248.414062 L 487.160156 157.234375 C 489.09375 153.886719 488.832031 149.703125 486.492188 146.625 C 478.332031 135.878906 477.382812 120.804688 484.128906 109.121094 C 487.296875 103.632812 491.683594 99.320312 496.847656 96.414062 L 485.707031 115.714844 C 483.988281 118.6875 483.988281 122.347656 485.707031 125.320312 L 497.058594 144.980469 C 498.773438 147.953125 501.945312 149.78125 505.375 149.78125 L 528.078125 149.78125 C 531.507812 149.78125 534.679688 147.953125 536.394531 144.980469 L 547.539062 125.679688 C 547.605469 131.605469 546.0625 137.5625 542.890625 143.050781 C 536.148438 154.734375 522.621094 161.449219 509.230469 159.753906 C 505.398438 159.265625 501.644531 161.128906 499.710938 164.480469 L 447.066406 255.65625 C 445.132812 259.007812 445.398438 263.1875 447.734375 266.269531 C 455.894531 277.015625 456.847656 292.085938 450.101562 303.769531 C 446.929688 309.257812 442.546875 313.574219 437.378906 316.480469 L 448.523438 297.175781 C 450.238281 294.207031 450.238281 290.542969 448.523438 287.570312 L 437.171875 267.910156 C 435.457031 264.941406 432.285156 263.109375 428.855469 263.109375 L 406.152344 263.109375 C 402.722656 263.109375 399.550781 264.941406 397.835938 267.910156 L 386.691406 287.214844 C 386.621094 281.285156 388.164062 275.332031 391.335938 269.84375 Z M 253.027344 261.300781 C 283.273438 261.300781 307.882812 236.691406 307.882812 206.445312 C 307.882812 176.199219 283.273438 151.59375 253.027344 151.59375 C 222.78125 151.59375 198.175781 176.199219 198.175781 206.445312 C 198.175781 236.691406 222.78125 261.300781 253.027344 261.300781 Z M 253.027344 170.800781 C 272.683594 170.800781 288.671875 186.789062 288.671875 206.445312 C 288.671875 226.101562 272.683594 242.089844 253.027344 242.089844 C 233.375 242.089844 217.382812 226.101562 217.382812 206.445312 C 217.382812 186.789062 233.375 170.800781 253.027344 170.800781 Z M 147.085938 225.652344 L 159.464844 230.417969 C 161.730469 239.300781 165.234375 247.75 169.925781 255.644531 L 164.535156 267.777344 C 162.921875 271.410156 163.710938 275.660156 166.519531 278.46875 L 181.007812 292.953125 C 183.816406 295.765625 188.066406 296.554688 191.695312 294.9375 L 203.835938 289.546875 C 211.730469 294.238281 220.179688 297.742188 229.054688 300.003906 L 233.824219 312.386719 C 235.25 316.097656 238.816406 318.542969 242.789062 318.542969 L 263.273438 318.542969 C 267.246094 318.542969 270.808594 316.097656 272.234375 312.386719 L 277 300.007812 C 285.882812 297.742188 294.335938 294.238281 302.230469 289.550781 L 314.363281 294.9375 C 317.992188 296.550781 322.242188 295.761719 325.050781 292.953125 L 339.539062 278.46875 C 342.347656 275.65625 343.136719 271.410156 341.523438 267.777344 L 336.132812 255.636719 C 340.824219 247.742188 344.324219 239.292969 346.589844 230.417969 L 358.972656 225.648438 C 362.679688 224.222656 365.125 220.660156 365.125 216.6875 L 365.125 196.203125 C 365.125 192.226562 362.679688 188.664062 358.972656 187.238281 L 346.59375 182.472656 C 344.328125 173.589844 340.824219 165.140625 336.136719 157.246094 L 341.523438 145.109375 C 343.136719 141.480469 342.347656 137.230469 339.539062 134.421875 L 325.054688 119.9375 C 322.242188 117.125 317.992188 116.339844 314.363281 117.949219 L 302.222656 123.34375 C 294.324219 118.652344 285.878906 115.148438 277.003906 112.886719 L 272.234375 100.503906 C 270.808594 96.792969 267.246094 94.347656 263.269531 94.347656 L 242.785156 94.347656 C 238.8125 94.347656 235.25 96.792969 233.824219 100.503906 L 229.054688 112.886719 C 220.179688 115.148438 211.730469 118.652344 203.835938 123.34375 L 191.695312 117.949219 C 188.066406 116.339844 183.816406 117.128906 181.003906 119.9375 L 166.519531 134.421875 C 163.710938 137.230469 162.921875 141.480469 164.53125 145.113281 L 169.925781 157.25 C 165.230469 165.144531 161.730469 173.59375 159.464844 182.472656 L 147.085938 187.238281 C 143.375 188.664062 140.929688 192.226562 140.929688 196.203125 L 140.929688 216.6875 C 140.929688 220.660156 143.378906 224.226562 147.085938 225.652344 Z M 160.140625 202.796875 L 171.15625 198.558594 C 174.238281 197.371094 176.492188 194.683594 177.128906 191.445312 C 179.105469 181.378906 183.019531 171.941406 188.757812 163.394531 C 190.597656 160.652344 190.902344 157.160156 189.5625 154.140625 L 184.765625 143.34375 L 189.925781 138.183594 L 200.726562 142.980469 C 203.742188 144.320312 207.234375 144.015625 209.976562 142.175781 C 218.53125 136.4375 227.964844 132.523438 238.027344 130.546875 C 241.269531 129.910156 243.957031 127.65625 245.140625 124.574219 L 249.382812 113.558594 L 256.675781 113.558594 L 260.917969 124.574219 C 262.105469 127.65625 264.789062 129.910156 268.03125 130.546875 C 278.09375 132.523438 287.53125 136.4375 296.082031 142.175781 C 298.820312 144.015625 302.316406 144.320312 305.332031 142.980469 L 316.132812 138.183594 L 321.292969 143.34375 L 316.496094 154.136719 C 315.15625 157.15625 315.460938 160.648438 317.300781 163.390625 C 323.042969 171.9375 326.953125 181.375 328.933594 191.445312 C 329.570312 194.6875 331.828125 197.371094 334.910156 198.558594 L 345.917969 202.796875 L 345.917969 210.09375 L 334.902344 214.332031 C 331.820312 215.519531 329.566406 218.207031 328.929688 221.445312 C 326.953125 231.507812 323.042969 240.945312 317.300781 249.496094 C 315.460938 252.238281 315.15625 255.730469 316.496094 258.75 L 321.292969 269.550781 L 316.132812 274.707031 L 305.339844 269.914062 C 302.324219 268.574219 298.828125 268.878906 296.085938 270.71875 C 287.539062 276.457031 278.101562 280.371094 268.03125 282.347656 C 264.789062 282.984375 262.105469 285.242188 260.917969 288.324219 L 256.679688 299.335938 L 249.382812 299.335938 L 245.144531 288.320312 C 243.957031 285.238281 241.269531 282.980469 238.03125 282.34375 C 227.96875 280.367188 218.53125 276.457031 209.980469 270.714844 C 207.238281 268.875 203.742188 268.570312 200.730469 269.910156 L 189.929688 274.707031 L 184.769531 269.550781 L 189.5625 258.753906 C 190.902344 255.734375 190.601562 252.242188 188.757812 249.5 C 183.019531 240.957031 179.105469 231.515625 177.128906 221.445312 C 176.492188 218.203125 174.234375 215.515625 171.152344 214.332031 L 160.140625 210.09375 Z M 160.140625 202.796875 "/></g></g></svg>