<svg xmlns="http://www.w3.org/2000/svg" xmlns:xlink="http://www.w3.org/1999/xlink" width="945" zoomAndPan="magnify" viewBox="0 0 708 574.08" height="756" preserveAspectRatio="xMidYMid meet" version="1.2"><defs><clipPath id="878521fa56"><path d="M 387 0 L 651 0 L 651 263 L 387 263 Z M 387 0 "/></clipPath><clipPath id="94a48b8dc3"><path d="M 88.585938 36.65625 L 88.585938 523.539062 C 88.585938 543.785156 104.996094 560.195312 125.242188 560.195312 L 614.230469 560.195312 C 634.476562 560.195312 650.890625 543.785156 650.890625 523.539062 L 650.890625 36.65625 C 650.890625 16.410156 634.476562 0 614.230469 0 L 125.242188 0 C 104.996094 0 88.585938 16.410156 88.585938 36.65625 Z M 88.585938 36.65625 "/></clipPath><clipPath id="dc5e1cc0b2"><path d="M 88.585938 0 L 353 0 L 353 263 L 88.585938 263 Z M 88.585938 0 "/></clipPath><clipPath id="abc28e8204"><path d="M 88.585938 36.65625 L 88.585938 523.539062 C 88.585938 543.785156 104.996094 560.195312 125.242188 560.195312 L 614.230469 560.195312 C 634.476562 560.195312 650.890625 543.785156 650.890625 523.539062 L 650.890625 36.65625 C 650.890625 16.410156 634.476562 0 614.230469 0 L 125.242188 0 C 104.996094 0 88.585938 16.410156 88.585938 36.65625 Z M 88.585938 36.65625 "/></clipPath><clipPath id="084958b78c"><path d="M 88.585938 297 L 353 297 L 353 560 L 88.585938 560 Z M 88.585938 297 "/></clipPath><clipPath id="eb3ebbda80"><path d="M 88.585938 36.65625 L 88.585938 523.539062 C 88.585938 543.785156 104.996094 560.195312 125.242188 560.195312 L 614.230469 560.195312 C 634.476562 560.195312 650.890625 543.785156 650.890625 523.539062 L 650.890625 36.65625 C 650.890625 16.410156 634.476562 0 614.230469 0 L 125.242188 0 C 104.996094 0 88.585938 16.410156 88.585938 36.65625 Z M 88.585938 36.65625 "/></clipPath><clipPath id="92f6e4d127"><path d="M 387 297 L 651 297 L 651 560 L 387 560 Z M 387 297 "/></clipPath><clipPath id="f12de34488"><path d="M 88.585938 36.65625 L 88.585938 523.539062 C 88.585938 543.785156 104.996094 560.195312 125.242188 560.195312 L 614.230469 560.195312 C 634.476562 560.195312 650.890625 543.785156 650.890625 523.539062 L 650.890625 36.65625 C 650.890625 16.410156 634.476562 0 614.230469 0 L 125.242188 0 C 104.996094 0 88.585938 16.410156 88.585938 36.65625 Z M 88.585938 36.65625 "/></clipPath></defs><g id="fb3f1e0dc3"><g clip-rule="nonzero" clip-path="url(#878521fa56)"><g clip-rule="nonzero" clip-path="url(#94a48b8dc3)"><path style=" stroke:none;fill-rule:nonzero;fill:#020159;fill-opacity:1;" d="M 387.300781 262.550781 L 650.878906 262.550781 L 650.878906 17.679688 C 650.878906 8.019531 643.007812 0.183594 633.304688 0.183594 L 387.300781 0.183594 Z M 387.300781 262.550781 "/></g></g><g clip-rule="nonzero" clip-path="url(#dc5e1cc0b2)"><g clip-rule="nonzero" clip-path="url(#abc28e8204)"><path style=" stroke:none;fill-rule:nonzero;fill:#020159;fill-opacity:1;" d="M 352.164062 262.550781 L 352.164062 0.183594 L 106.160156 0.183594 C 96.457031 0.183594 88.585938 8.019531 88.585938 17.679688 L 88.585938 262.550781 Z M 352.164062 262.550781 "/></g></g><g clip-rule="nonzero" clip-path="url(#084958b78c)"><g clip-rule="nonzero" clip-path="url(#eb3ebbda80)"><path style=" stroke:none;fill-rule:nonzero;fill:#020159;fill-opacity:1;" d="M 352.164062 297.535156 L 88.585938 297.535156 L 88.585938 542.410156 C 88.585938 552.058594 96.457031 559.898438 106.160156 559.898438 L 352.164062 559.898438 Z M 352.164062 297.535156 "/></g></g><g clip-rule="nonzero" clip-path="url(#92f6e4d127)"><g clip-rule="nonzero" clip-path="url(#f12de34488)"><path style=" stroke:none;fill-rule:nonzero;fill:#020159;fill-opacity:1;" d="M 387.300781 297.535156 L 387.300781 559.898438 L 633.304688 559.898438 C 643.007812 559.898438 650.878906 552.058594 650.878906 542.410156 L 650.878906 297.535156 Z M 387.300781 297.535156 "/></g></g></g></svg>