<svg xmlns="http://www.w3.org/2000/svg" xmlns:xlink="http://www.w3.org/1999/xlink" width="945" zoomAndPan="magnify" viewBox="0 0 708 574.08" height="756" preserveAspectRatio="xMidYMid meet" version="1.2"><defs><clipPath id="6608d3b480"><path d="M 179.039062 0 L 533.640625 0 L 533.640625 557.339844 L 179.039062 557.339844 Z M 179.039062 0 "/></clipPath></defs><g id="75053f61b7"><g clip-rule="nonzero" clip-path="url(#6608d3b480)"><path style=" stroke:none;fill-rule:nonzero;fill:#020159;fill-opacity:1;" d="M 457.65625 0 L 255.023438 0 C 213.105469 0 179.039062 34.066406 179.039062 75.984375 L 179.039062 481.246094 C 179.039062 523.164062 213.105469 557.230469 255.023438 557.230469 L 457.65625 557.230469 C 499.574219 557.230469 533.640625 523.164062 533.640625 481.246094 L 533.640625 75.984375 C 533.640625 34.066406 499.574219 0 457.65625 0 Z M 406.996094 506.574219 L 305.683594 506.574219 L 305.683594 481.246094 L 406.996094 481.246094 Z M 489.316406 430.585938 L 223.363281 430.585938 L 223.363281 75.984375 L 489.316406 75.984375 Z M 489.316406 430.585938 "/></g></g></svg>