<svg xmlns="http://www.w3.org/2000/svg" xmlns:xlink="http://www.w3.org/1999/xlink" width="945" zoomAndPan="magnify" viewBox="0 0 708 574.08" height="756" preserveAspectRatio="xMidYMid meet" version="1.2"><defs><clipPath id="1bf441147f"><path d="M 46.625 42.222656 L 661.566406 42.222656 L 661.566406 523.257812 L 46.625 523.257812 Z M 46.625 42.222656 "/></clipPath></defs><g id="3bcbf9c7d9"><g clip-rule="nonzero" clip-path="url(#1bf441147f)"><path style=" stroke:none;fill-rule:nonzero;fill:#020159;fill-opacity:1;" d="M 95 42.222656 C 84.769531 42.222656 75.636719 47.914062 71.09375 56.996094 L 65.144531 68.949219 L 322.15625 68.949219 L 316.203125 56.996094 C 311.664062 47.863281 302.527344 42.222656 292.300781 42.222656 Z M 514.339844 42.222656 C 506.925781 42.222656 500.976562 48.226562 500.976562 55.585938 L 500.976562 162.484375 C 500.976562 169.84375 506.925781 175.84375 514.339844 175.84375 L 567.785156 175.84375 L 567.785156 189.207031 L 541.0625 189.207031 L 541.0625 215.929688 L 578.902344 215.929688 C 580.363281 216.191406 581.828125 216.191406 583.234375 215.929688 L 621.234375 215.929688 L 621.234375 189.207031 L 594.511719 189.207031 L 594.511719 175.84375 L 647.957031 175.84375 C 655.371094 175.84375 661.320312 169.84375 661.320312 162.484375 L 661.320312 55.585938 C 661.320312 48.226562 655.371094 42.222656 647.957031 42.222656 Z M 474.253906 91.445312 L 367.355469 206.535156 L 367.355469 245.839844 L 474.253906 130.746094 Z M 60.03125 95.671875 C 52.617188 95.671875 46.667969 101.621094 46.667969 109.035156 L 46.667969 509.894531 C 46.667969 517.308594 52.617188 523.257812 60.03125 523.257812 L 327.269531 523.257812 C 334.679688 523.257812 340.632812 517.308594 340.632812 509.894531 L 340.632812 109.035156 C 340.632812 101.621094 334.679688 95.671875 327.269531 95.671875 Z M 113.476562 149.121094 L 273.820312 149.121094 C 281.234375 149.121094 287.183594 155.070312 287.183594 162.484375 L 287.183594 296.101562 C 287.183594 303.515625 281.234375 309.464844 273.820312 309.464844 L 113.476562 309.464844 C 106.066406 309.464844 100.117188 303.515625 100.117188 296.101562 L 100.117188 162.484375 C 100.117188 155.070312 106.066406 149.121094 113.476562 149.121094 Z M 126.839844 175.84375 L 126.839844 215.929688 L 260.460938 215.929688 L 260.460938 175.84375 Z M 126.839844 242.65625 L 126.839844 282.742188 L 260.460938 282.742188 L 260.460938 242.65625 Z M 367.355469 279.558594 L 367.355469 318.859375 L 474.253906 433.949219 L 474.253906 394.648438 Z M 514.339844 349.550781 C 506.925781 349.550781 500.976562 355.5 500.976562 362.914062 L 500.976562 469.808594 C 500.976562 477.21875 506.925781 483.171875 514.339844 483.171875 L 567.785156 483.171875 L 567.785156 496.53125 L 541.0625 496.53125 L 541.0625 523.257812 L 578.902344 523.257812 C 580.363281 523.519531 581.828125 523.519531 583.234375 523.257812 L 621.234375 523.257812 L 621.234375 496.53125 L 594.511719 496.53125 L 594.511719 483.171875 L 647.957031 483.171875 C 655.371094 483.171875 661.320312 477.21875 661.320312 469.808594 L 661.320312 362.914062 C 661.320312 355.5 655.371094 349.550781 647.957031 349.550781 Z M 193.648438 362.914062 C 201.007812 362.914062 207.011719 368.914062 207.011719 376.273438 C 207.011719 383.632812 201.007812 389.636719 193.648438 389.636719 C 186.289062 389.636719 180.289062 383.632812 180.289062 376.273438 C 180.289062 368.914062 186.289062 362.914062 193.648438 362.914062 Z M 193.648438 416.359375 C 201.007812 416.359375 207.011719 422.363281 207.011719 429.722656 C 207.011719 437.082031 201.007812 443.085938 193.648438 443.085938 C 186.289062 443.085938 180.289062 437.082031 180.289062 429.722656 C 180.289062 422.363281 186.289062 416.359375 193.648438 416.359375 Z M 193.648438 416.359375 "/></g></g></svg>