<svg xmlns="http://www.w3.org/2000/svg" xmlns:xlink="http://www.w3.org/1999/xlink" width="945" zoomAndPan="magnify" viewBox="0 0 708 574.08" height="756" preserveAspectRatio="xMidYMid meet" version="1.2"><g id="5ac8b2f517"><path style=" stroke:none;fill-rule:nonzero;fill:#020159;fill-opacity:1;" d="M 164.25 85.699219 L 173.550781 77.476562 C 173.550781 77.476562 177.769531 57.789062 177.769531 57.789062 C 179.5 50.109375 191.183594 52.597656 189.5625 60.386719 L 184.910156 82.019531 C 184.691406 83.316406 183.9375 84.398438 183.070312 85.265625 C 179.285156 87.96875 171.496094 96.949219 168.25 96.191406 C 162.949219 96.40625 160.136719 89.160156 164.25 85.699219 Z M 127.253906 81.910156 C 129.960938 12.359375 229.367188 12.359375 232.179688 81.910156 C 232.179688 110.792969 208.597656 134.375 179.71875 134.375 C 150.726562 134.375 127.253906 110.902344 127.253906 81.910156 Z M 139.261719 81.910156 C 141.101562 135.347656 218.226562 135.457031 220.066406 81.910156 C 220.066406 59.628906 201.890625 41.457031 179.609375 41.457031 C 157.328125 41.457031 139.261719 59.628906 139.261719 81.910156 Z M 630.679688 398.851562 C 630.679688 415.183594 624.730469 430.652344 614.019531 442.765625 L 630.570312 545.851562 C 631.21875 549.421875 628.191406 552.882812 624.621094 552.777344 L 607.421875 552.777344 C 604.71875 552.777344 602.335938 550.9375 601.582031 548.339844 L 594.65625 522.378906 L 541.871094 504.640625 L 487.675781 522.8125 L 480.863281 548.339844 C 480.105469 550.9375 477.726562 552.777344 475.023438 552.777344 L 457.824219 552.777344 C 454.253906 552.882812 451.222656 549.316406 451.875 545.851562 L 464.746094 465.484375 C 464.746094 465.484375 444.625 465.484375 444.625 465.484375 C 426.128906 466.132812 414.445312 442.875 426.019531 428.378906 C 426.019531 428.378906 447.113281 400.148438 447.113281 400.148438 C 458.902344 383.921875 478.050781 378.296875 497.414062 379.488281 L 492.21875 359.910156 L 492.21875 371.589844 C 492.21875 374.945312 489.515625 377.648438 486.164062 377.648438 L 339.484375 377.648438 C 336.132812 377.648438 333.425781 374.945312 333.425781 371.589844 L 333.425781 327.675781 L 326.613281 327.675781 L 326.613281 371.589844 C 326.613281 374.945312 323.90625 377.648438 320.554688 377.648438 L 173.984375 377.648438 C 170.632812 377.648438 167.925781 374.945312 167.925781 371.589844 L 167.925781 327.675781 L 166.738281 327.675781 L 107.675781 548.339844 C 106.917969 550.9375 104.539062 552.777344 101.835938 552.777344 L 83.121094 552.777344 C 79.550781 552.882812 76.523438 549.316406 77.171875 545.851562 L 112.109375 327.675781 L 83.121094 327.675781 C 79.769531 327.675781 77.0625 324.96875 77.0625 321.617188 L 77.0625 288.515625 C 77.0625 285.164062 79.769531 282.460938 83.121094 282.460938 L 136.449219 282.460938 C 136.664062 276.183594 135.152344 263.421875 138.289062 259.527344 C 137.097656 257.578125 136.339844 255.417969 136.339844 253.035156 C 136.773438 248.277344 135.042969 234.324219 138.289062 230.429688 C 135.042969 226.425781 136.773438 212.691406 136.339844 207.820312 C 136.339844 201.007812 141.859375 195.382812 148.78125 195.382812 L 279.992188 195.382812 C 286.804688 195.382812 292.429688 200.898438 292.429688 207.820312 C 291.996094 212.582031 293.835938 226.425781 290.484375 230.429688 C 291.671875 232.375 292.429688 234.539062 292.429688 237.027344 C 291.996094 241.789062 293.730469 255.632812 290.484375 259.636719 C 293.621094 263.53125 292.105469 276.183594 292.324219 282.566406 L 390.109375 282.566406 C 393.027344 267.964844 406.984375 258.230469 422.019531 259.636719 L 422.019531 236.8125 L 347.164062 236.8125 C 335.265625 236.8125 325.53125 227.183594 325.53125 215.285156 L 325.53125 80.9375 C 325.53125 69.039062 335.265625 59.304688 347.164062 59.304688 L 551.820312 59.304688 C 563.722656 59.304688 573.347656 69.039062 573.347656 80.9375 L 573.347656 215.285156 C 573.347656 227.183594 563.722656 236.8125 551.820312 236.8125 L 476.859375 236.8125 L 476.859375 259.636719 C 491.894531 258.230469 505.851562 267.964844 508.769531 282.566406 L 562.207031 282.566406 L 565.019531 263.636719 C 568.695312 238.324219 585.789062 216.691406 609.585938 207.28125 C 619.429688 203.171875 631.109375 211.066406 630.785156 221.777344 L 630.785156 398.851562 Z M 337.539062 191.378906 L 561.339844 191.378906 L 561.339844 80.9375 C 561.339844 75.636719 557.015625 71.3125 551.820312 71.3125 L 347.054688 71.3125 C 341.757812 71.3125 337.429688 75.636719 337.429688 80.9375 L 337.429688 191.378906 Z M 551.714844 224.804688 C 557.015625 224.804688 561.234375 220.476562 561.234375 215.285156 L 561.234375 203.386719 L 337.539062 203.386719 L 337.539062 215.285156 C 337.539062 220.585938 341.863281 224.804688 347.164062 224.804688 Z M 434.023438 236.8125 L 434.023438 259.636719 L 464.746094 259.636719 L 464.746094 236.8125 Z M 402.546875 282.460938 L 496.113281 282.460938 C 493.734375 276.183594 487.570312 271.640625 480.429688 271.640625 L 418.339844 271.640625 C 411.199219 271.640625 405.035156 276.183594 402.546875 282.460938 Z M 148.347656 223.832031 L 279.882812 224.15625 C 280.097656 224.15625 280.207031 223.9375 280.207031 223.832031 L 280.207031 207.820312 L 148.671875 207.496094 Z M 148.347656 253.035156 L 279.882812 253.363281 C 280.097656 253.363281 280.207031 253.144531 280.207031 253.035156 L 280.207031 237.027344 L 148.671875 236.703125 Z M 148.347656 282.132812 L 279.882812 282.460938 C 280.097656 282.460938 280.207031 282.242188 280.207031 282.132812 L 280.207031 266.125 L 148.671875 265.800781 Z M 154.296875 327.675781 L 124.226562 327.675781 L 90.152344 540.769531 L 97.292969 540.769531 Z M 314.605469 327.675781 L 179.933594 327.675781 L 179.933594 365.535156 L 314.605469 365.535156 Z M 480.214844 327.675781 L 345.542969 327.675781 L 345.542969 365.535156 L 480.214844 365.535156 Z M 557.230469 315.667969 C 557.988281 310.476562 559.503906 299.875 560.257812 294.574219 L 89.070312 294.574219 L 89.070312 315.667969 Z M 539.382812 327.675781 L 545.117188 363.804688 C 553.011719 354.824219 553.660156 338.816406 555.390625 327.675781 Z M 509.851562 379.378906 C 518.289062 379.703125 527.375 378.082031 534.515625 373.429688 L 527.265625 327.78125 L 496.113281 327.78125 Z M 490.597656 465.484375 L 476.96875 465.484375 L 464.960938 540.769531 L 470.476562 540.769531 C 473.183594 530.492188 488.109375 474.570312 490.597656 465.484375 Z M 523.050781 498.367188 L 496.65625 489.496094 L 491.464844 508.96875 Z M 541.871094 491.984375 L 582.757812 478.246094 L 578.863281 463.753906 C 573.996094 464.832031 569.019531 465.484375 563.9375 465.484375 L 502.929688 465.484375 L 499.574219 477.8125 Z M 590.871094 508.425781 L 585.894531 489.820312 L 560.800781 498.257812 Z M 603.417969 452.609375 C 599.308594 455.421875 594.980469 457.910156 590.4375 460.074219 C 594.117188 473.921875 608.070312 526.058594 612.074219 540.878906 L 617.589844 540.878906 Z M 618.671875 221.777344 C 618.671875 219.179688 616.074219 217.664062 614.019531 218.421875 C 594.117188 226.320312 579.839844 244.273438 576.808594 265.367188 L 570.859375 306.039062 C 569.453125 315.667969 566.207031 337.625 564.800781 347.359375 C 562.097656 367.371094 546.414062 384.894531 526.617188 389.546875 C 503.253906 395.496094 473.074219 383.597656 456.847656 407.289062 L 435.753906 435.519531 C 433.160156 438.980469 432.835938 443.308594 434.675781 447.203125 C 436.621094 451.097656 440.300781 453.367188 444.625 453.367188 C 484.972656 453.367188 527.699219 457.476562 567.613281 453.042969 C 581.027344 451.527344 593.792969 446.554688 603.3125 436.710938 C 613.15625 426.433594 618.5625 412.914062 618.5625 398.742188 L 618.5625 221.777344 Z M 405.035156 352.660156 L 420.71875 352.660156 C 428.617188 352.660156 428.617188 340.65625 420.71875 340.65625 C 420.71875 340.65625 405.035156 340.65625 405.035156 340.65625 C 397.140625 340.65625 397.140625 352.554688 405.035156 352.660156 Z M 240.832031 352.660156 L 256.519531 352.660156 C 264.414062 352.660156 264.414062 340.65625 256.519531 340.65625 C 256.519531 340.65625 240.832031 340.65625 240.832031 340.65625 C 233.046875 340.65625 233.046875 352.554688 240.832031 352.660156 Z M 240.832031 352.660156 "/></g></svg>